%TF.GenerationSoftware,KiCad,Pcbnew,10.0.4*%
%TF.CreationDate,2026-08-11T23:07:26+10:00*%
%TF.ProjectId,v2_mini,76325f6d-696e-4692-9e6b-696361645f70,rev?*%
%TF.SameCoordinates,Original*%
%TF.FileFunction,Copper,L6,Bot*%
%TF.FilePolarity,Positive*%
%FSLAX46Y46*%
G04 Gerber Fmt 4.6, Leading zero omitted, Abs format (unit mm)*
G04 Created by KiCad (PCBNEW 10.0.4) date 2026-08-11 23:07:26*
%MOMM*%
%LPD*%
G01*
G04 APERTURE LIST*
G04 Aperture macros list*
%AMRoundRect*
0 Rectangle with rounded corners*
0 $1 Rounding radius*
0 $2 $3 $4 $5 $6 $7 $8 $9 X,Y pos of 4 corners*
0 Add a 4 corners polygon primitive as box body*
4,1,4,$2,$3,$4,$5,$6,$7,$8,$9,$2,$3,0*
0 Add four circle primitives for the rounded corners*
1,1,$1+$1,$2,$3*
1,1,$1+$1,$4,$5*
1,1,$1+$1,$6,$7*
1,1,$1+$1,$8,$9*
0 Add four rect primitives between the rounded corners*
20,1,$1+$1,$2,$3,$4,$5,0*
20,1,$1+$1,$4,$5,$6,$7,0*
20,1,$1+$1,$6,$7,$8,$9,0*
20,1,$1+$1,$8,$9,$2,$3,0*%
%AMRotRect*
0 Rectangle, with rotation*
0 The origin of the aperture is its center*
0 $1 length*
0 $2 width*
0 $3 Rotation angle, in degrees counterclockwise*
0 Add horizontal line*
21,1,$1,$2,0,0,$3*%
%AMFreePoly0*
4,1,21,1.328536,1.403536,1.330000,1.400000,1.330000,-0.900000,1.328536,-0.903536,1.325000,-0.905000,-0.625000,-0.905000,-0.628536,-0.903536,-0.630000,-0.900000,-0.630000,-0.405000,-1.325000,-0.405000,-1.328536,-0.403536,-1.330000,-0.400000,-1.330000,0.700000,-1.328536,0.703536,-1.325000,0.705000,0.070000,0.705000,0.070000,1.400000,0.071464,1.403536,0.075000,1.405000,1.325000,1.405000,
1.328536,1.403536,1.328536,1.403536,$1*%
%AMFreePoly1*
4,1,21,-0.071464,1.403536,-0.070000,1.400000,-0.070000,0.705000,1.325000,0.705000,1.328536,0.703536,1.330000,0.700000,1.330000,-0.400000,1.328536,-0.403536,1.325000,-0.405000,0.630000,-0.405000,0.630000,-0.900000,0.628536,-0.903536,0.625000,-0.905000,-1.325000,-0.905000,-1.328536,-0.903536,-1.330000,-0.900000,-1.330000,1.400000,-1.328536,1.403536,-1.325000,1.405000,-0.075000,1.405000,
-0.071464,1.403536,-0.071464,1.403536,$1*%
%AMFreePoly2*
4,1,6,0.266700,0.000000,0.266700,-0.101600,-0.152400,-0.101600,-0.152400,0.101600,0.165100,0.101600,0.266700,0.000000,0.266700,0.000000,$1*%
%AMFreePoly3*
4,1,6,0.266700,0.000000,0.165100,-0.101600,-0.152400,-0.101600,-0.152400,0.101600,0.165100,0.101600,0.266700,0.000000,0.266700,0.000000,$1*%
%AMFreePoly4*
4,1,6,0.266700,0.000000,0.165100,-0.101600,-0.152400,-0.101600,-0.152400,0.101600,0.266700,0.101600,0.266700,0.000000,0.266700,0.000000,$1*%
%AMFreePoly5*
4,1,7,0.152400,-0.101600,-0.152400,-0.101600,-0.165100,-0.101600,-0.266700,0.000000,-0.266700,0.101600,0.152400,0.101600,0.152400,-0.101600,0.152400,-0.101600,$1*%
%AMFreePoly6*
4,1,7,0.152400,-0.101600,-0.152400,-0.101600,-0.165100,-0.101600,-0.266700,0.000000,-0.165100,0.101600,0.152400,0.101600,0.152400,-0.101600,0.152400,-0.101600,$1*%
%AMFreePoly7*
4,1,7,0.152400,-0.101600,-0.152400,-0.101600,-0.266700,-0.101600,-0.266700,0.000000,-0.165100,0.101600,0.152400,0.101600,0.152400,-0.101600,0.152400,-0.101600,$1*%
G04 Aperture macros list end*
%TA.AperFunction,ComponentPad*%
%ADD10O,2.100000X1.000000*%
%TD*%
%TA.AperFunction,ComponentPad*%
%ADD11O,1.800000X1.000000*%
%TD*%
%TA.AperFunction,ComponentPad*%
%ADD12C,4.400000*%
%TD*%
%TA.AperFunction,SMDPad,CuDef*%
%ADD13R,1.400000X0.300000*%
%TD*%
%TA.AperFunction,SMDPad,CuDef*%
%ADD14FreePoly0,270.000000*%
%TD*%
%TA.AperFunction,SMDPad,CuDef*%
%ADD15FreePoly1,270.000000*%
%TD*%
%TA.AperFunction,SMDPad,CuDef*%
%ADD16RoundRect,0.140000X-0.140000X-0.170000X0.140000X-0.170000X0.140000X0.170000X-0.140000X0.170000X0*%
%TD*%
%TA.AperFunction,SMDPad,CuDef*%
%ADD17R,0.800000X0.400000*%
%TD*%
%TA.AperFunction,SMDPad,CuDef*%
%ADD18R,0.400000X0.800000*%
%TD*%
%TA.AperFunction,SMDPad,CuDef*%
%ADD19RotRect,1.800000X1.800000X225.000000*%
%TD*%
%TA.AperFunction,SMDPad,CuDef*%
%ADD20R,0.700000X0.700000*%
%TD*%
%TA.AperFunction,SMDPad,CuDef*%
%ADD21RoundRect,0.050000X-0.250000X-0.075000X0.250000X-0.075000X0.250000X0.075000X-0.250000X0.075000X0*%
%TD*%
%TA.AperFunction,SMDPad,CuDef*%
%ADD22RoundRect,0.052500X-0.697500X-1.197500X0.697500X-1.197500X0.697500X1.197500X-0.697500X1.197500X0*%
%TD*%
%TA.AperFunction,SMDPad,CuDef*%
%ADD23R,0.900000X1.700000*%
%TD*%
%TA.AperFunction,SMDPad,CuDef*%
%ADD24RoundRect,0.135000X-0.185000X0.135000X-0.185000X-0.135000X0.185000X-0.135000X0.185000X0.135000X0*%
%TD*%
%TA.AperFunction,SMDPad,CuDef*%
%ADD25R,0.533400X0.381000*%
%TD*%
%TA.AperFunction,SMDPad,CuDef*%
%ADD26RoundRect,0.140000X0.170000X-0.140000X0.170000X0.140000X-0.170000X0.140000X-0.170000X-0.140000X0*%
%TD*%
%TA.AperFunction,SMDPad,CuDef*%
%ADD27RoundRect,0.140000X-0.170000X0.140000X-0.170000X-0.140000X0.170000X-0.140000X0.170000X0.140000X0*%
%TD*%
%TA.AperFunction,SMDPad,CuDef*%
%ADD28RoundRect,0.135000X0.185000X-0.135000X0.185000X0.135000X-0.185000X0.135000X-0.185000X-0.135000X0*%
%TD*%
%TA.AperFunction,SMDPad,CuDef*%
%ADD29RoundRect,0.135000X-0.135000X-0.185000X0.135000X-0.185000X0.135000X0.185000X-0.135000X0.185000X0*%
%TD*%
%TA.AperFunction,SMDPad,CuDef*%
%ADD30C,1.000000*%
%TD*%
%TA.AperFunction,SMDPad,CuDef*%
%ADD31RoundRect,0.050000X0.075000X-0.150000X0.075000X0.150000X-0.075000X0.150000X-0.075000X-0.150000X0*%
%TD*%
%TA.AperFunction,SMDPad,CuDef*%
%ADD32RoundRect,0.050000X0.300000X-0.150000X0.300000X0.150000X-0.300000X0.150000X-0.300000X-0.150000X0*%
%TD*%
%TA.AperFunction,SMDPad,CuDef*%
%ADD33RoundRect,0.225000X-0.250000X0.225000X-0.250000X-0.225000X0.250000X-0.225000X0.250000X0.225000X0*%
%TD*%
%TA.AperFunction,SMDPad,CuDef*%
%ADD34R,0.500000X1.870000*%
%TD*%
%TA.AperFunction,SMDPad,CuDef*%
%ADD35RoundRect,0.225000X-0.225000X-0.250000X0.225000X-0.250000X0.225000X0.250000X-0.225000X0.250000X0*%
%TD*%
%TA.AperFunction,SMDPad,CuDef*%
%ADD36RoundRect,0.250000X0.475000X-0.250000X0.475000X0.250000X-0.475000X0.250000X-0.475000X-0.250000X0*%
%TD*%
%TA.AperFunction,SMDPad,CuDef*%
%ADD37RoundRect,0.250000X-0.375000X-0.850000X0.375000X-0.850000X0.375000X0.850000X-0.375000X0.850000X0*%
%TD*%
%TA.AperFunction,SMDPad,CuDef*%
%ADD38FreePoly2,180.000000*%
%TD*%
%TA.AperFunction,SMDPad,CuDef*%
%ADD39FreePoly3,180.000000*%
%TD*%
%TA.AperFunction,SMDPad,CuDef*%
%ADD40FreePoly4,180.000000*%
%TD*%
%TA.AperFunction,SMDPad,CuDef*%
%ADD41RotRect,0.228600X0.228600X135.000000*%
%TD*%
%TA.AperFunction,SMDPad,CuDef*%
%ADD42FreePoly5,180.000000*%
%TD*%
%TA.AperFunction,SMDPad,CuDef*%
%ADD43FreePoly6,180.000000*%
%TD*%
%TA.AperFunction,SMDPad,CuDef*%
%ADD44FreePoly7,180.000000*%
%TD*%
%TA.AperFunction,SMDPad,CuDef*%
%ADD45R,0.508000X0.355600*%
%TD*%
%TA.AperFunction,SMDPad,CuDef*%
%ADD46RoundRect,0.225000X0.225000X0.250000X-0.225000X0.250000X-0.225000X-0.250000X0.225000X-0.250000X0*%
%TD*%
%TA.AperFunction,SMDPad,CuDef*%
%ADD47R,1.700000X0.900000*%
%TD*%
%TA.AperFunction,SMDPad,CuDef*%
%ADD48RoundRect,0.135000X0.135000X0.185000X-0.135000X0.185000X-0.135000X-0.185000X0.135000X-0.185000X0*%
%TD*%
%TA.AperFunction,ViaPad*%
%ADD49C,0.500000*%
%TD*%
%TA.AperFunction,ViaPad*%
%ADD50C,0.600000*%
%TD*%
%TA.AperFunction,ViaPad*%
%ADD51C,0.450000*%
%TD*%
%TA.AperFunction,Conductor*%
%ADD52C,1.000000*%
%TD*%
%TA.AperFunction,Conductor*%
%ADD53C,0.150000*%
%TD*%
%TA.AperFunction,Conductor*%
%ADD54C,0.200000*%
%TD*%
%TA.AperFunction,Conductor*%
%ADD55C,0.300000*%
%TD*%
%TA.AperFunction,Conductor*%
%ADD56C,0.100000*%
%TD*%
%TA.AperFunction,Conductor*%
%ADD57C,0.400000*%
%TD*%
G04 APERTURE END LIST*
D10*
%TO.P,J6,SH1,SHELL_GND_SH1*%
%TO.N,GND*%
X83317500Y-92402500D03*
%TO.P,J6,SH2,SHELL_GND__1_SH2*%
X83317500Y-101042500D03*
D11*
%TO.P,J6,SH3,SHELL_GND__2_SH3*%
X79137500Y-92402500D03*
%TO.P,J6,SH4,SHELL_GND__3_SH4*%
X79137500Y-101042500D03*
%TD*%
D12*
%TO.P,H5,1,1_1*%
%TO.N,GND*%
X111700000Y-110940000D03*
%TD*%
%TO.P,H7,1,1_1*%
%TO.N,GND*%
X78340000Y-81630000D03*
%TD*%
%TO.P,H4,1,1_1*%
%TO.N,GND*%
X78340000Y-110770000D03*
%TD*%
%TO.P,H6,1,1_1*%
%TO.N,GND*%
X133270000Y-110860000D03*
%TD*%
D13*
%TO.P,J3,1,1_1*%
%TO.N,+3V3*%
X114630000Y-90300000D03*
%TO.P,J3,2,2_2*%
%TO.N,Net-(J3-Pad2)*%
X114630000Y-90800000D03*
%TO.P,J3,3,3_3*%
%TO.N,GND*%
X114630000Y-91300000D03*
%TO.P,J3,4,4_4*%
%TO.N,+3V3*%
X114630000Y-91800000D03*
%TO.P,J3,5,5_5*%
X114630000Y-92300000D03*
%TO.P,J3,6,6_6*%
X114630000Y-92800000D03*
%TO.P,J3,7,7_7*%
%TO.N,/ESP32-S31 MCU/LCD_RN*%
X114630000Y-93300000D03*
%TO.P,J3,8,8_8*%
%TO.N,/ESP32-S31 MCU/LCD_CSN*%
X114630000Y-93800000D03*
%TO.P,J3,9,9_9*%
%TO.N,/ESP32-S31 MCU/LCD_SCLK*%
X114630000Y-94300000D03*
%TO.P,J3,10,10_10*%
%TO.N,/ESP32-S31 MCU/LCD_DC*%
X114630000Y-94800000D03*
%TO.P,J3,11,11_11*%
%TO.N,GND*%
X114630000Y-95300000D03*
%TO.P,J3,12,12_12*%
%TO.N,/ESP32-S31 MCU/LCD_SDA*%
X114630000Y-95800000D03*
%TO.P,J3,13,13_13*%
%TO.N,GND*%
X114630000Y-96300000D03*
%TO.P,J3,14,14_14*%
X114630000Y-96800000D03*
%TO.P,J3,15,15_15*%
X114630000Y-97300000D03*
%TO.P,J3,16,16_16*%
X114630000Y-97800000D03*
%TO.P,J3,17,17_17*%
X114630000Y-98300000D03*
%TO.P,J3,18,18_18*%
X114630000Y-98800000D03*
%TO.P,J3,19,19_19*%
X114630000Y-99300000D03*
%TO.P,J3,20,20_20*%
X114630000Y-99800000D03*
%TO.P,J3,21,21_21*%
%TO.N,/ESP32-S31 MCU/LCD_TE*%
X114630000Y-100300000D03*
%TO.P,J3,22,22_22*%
%TO.N,unconnected-(J3-Pad22)*%
X114630000Y-100800000D03*
%TO.P,J3,23,23_23*%
%TO.N,GND*%
X114630000Y-101300000D03*
%TO.P,J3,24,24_24*%
X114630000Y-101800000D03*
D14*
%TO.P,J3,S1,SHIELD_S1*%
X115630000Y-88525000D03*
D15*
%TO.P,J3,S2,SHIELD__1_S2*%
X115630000Y-103575000D03*
%TD*%
D16*
%TO.P,C15,1*%
%TO.N,GND*%
X111690000Y-93090000D03*
%TO.P,C15,2*%
%TO.N,+3V3*%
X112650000Y-93090000D03*
%TD*%
D17*
%TO.P,U2,1,GND_1*%
%TO.N,GND*%
X87370000Y-105700000D03*
%TO.P,U2,2,GND_2*%
X87370000Y-104850000D03*
%TO.P,U2,3,3V3_3*%
%TO.N,+3V3*%
X87370000Y-104000000D03*
%TO.P,U2,4,3V3_4*%
X87370000Y-103150000D03*
%TO.P,U2,5,EN_5*%
%TO.N,Net-(U2-EN)*%
X87370000Y-102300000D03*
%TO.P,U2,6,GPIO2_6*%
%TO.N,/ESP32-S31 MCU/BAT_ALRT*%
X87370000Y-101450000D03*
%TO.P,U2,7,GPIO3_7*%
%TO.N,unconnected-(U2-GPIO3-Pad7)*%
X87370000Y-100600000D03*
%TO.P,U2,8,GPIO0/XTAL_32K_N_8*%
%TO.N,/ESP32-S31 MCU/CHG_INT*%
X87370000Y-99750000D03*
%TO.P,U2,9,GPIO1/XTAL_32K_P_9*%
%TO.N,/ESP32-S31 MCU/CHG_STAT*%
X87370000Y-98900000D03*
%TO.P,U2,10,GPIO4_10*%
%TO.N,/ESP32-S31 MCU/LCD_BACK*%
X87370000Y-98050000D03*
%TO.P,U2,11,GPIO5_11*%
%TO.N,/ESP32-S31 MCU/LCD_TE*%
X87370000Y-97200000D03*
%TO.P,U2,12,GPIO6_12*%
%TO.N,/ESP32-S31 MCU/POW_SCL*%
X87370000Y-96350000D03*
%TO.P,U2,13,GPIO7_13*%
%TO.N,/ESP32-S31 MCU/POW_SDA*%
X87370000Y-95500000D03*
%TO.P,U2,14,GPIO8_14*%
%TO.N,/ESP32-S31 MCU/PWR_KILL_N*%
X87370000Y-94650000D03*
%TO.P,U2,15,GPIO9_15*%
%TO.N,/ESP32-S31 MCU/IMU_RESET_N*%
X87370000Y-93800000D03*
%TO.P,U2,16,GPIO10_16*%
%TO.N,/ESP32-S31 MCU/IMU_CS_N*%
X87370000Y-92950000D03*
%TO.P,U2,17,GPIO11_17*%
%TO.N,/ESP32-S31 MCU/IMU_MOSI*%
X87370000Y-92100000D03*
%TO.P,U2,18,GPIO12_18*%
%TO.N,/ESP32-S31 MCU/IMU_SCLK*%
X87370000Y-91250000D03*
%TO.P,U2,19,GPIO13_19*%
%TO.N,/ESP32-S31 MCU/IMU_MISO*%
X87370000Y-90400000D03*
%TO.P,U2,20,GPIO14_20*%
%TO.N,/ESP32-S31 MCU/IMU_DRDY*%
X87370000Y-89550000D03*
%TO.P,U2,21,GPIO15_21*%
%TO.N,/ESP32-S31 MCU/LCD_RN*%
X87370000Y-88700000D03*
%TO.P,U2,22,GPIO16_22*%
%TO.N,/ESP32-S31 MCU/LCD_SCLK*%
X87370000Y-87850000D03*
%TO.P,U2,23,GPIO17_23*%
%TO.N,/ESP32-S31 MCU/LCD_SDA*%
X87370000Y-87000000D03*
%TO.P,U2,24,GPIO18_24*%
%TO.N,/ESP32-S31 MCU/LCD_CSN*%
X87370000Y-86150000D03*
%TO.P,U2,25,GPIO19_25*%
%TO.N,/ESP32-S31 MCU/LCD_DC*%
X87370000Y-85300000D03*
D18*
%TO.P,U2,26,GND_26*%
%TO.N,GND*%
X88750000Y-84200000D03*
%TO.P,U2,27,SDIO_DATA0/GPIO20_27*%
%TO.N,/ESP32-S31 MCU/SD_D0*%
X89600000Y-84200000D03*
%TO.P,U2,28,SDIO_DATA1/GPIO21_28*%
%TO.N,/ESP32-S31 MCU/SD_D1*%
X90450000Y-84200000D03*
%TO.P,U2,29,SDIO_DATA2/GPIO22_29*%
%TO.N,/ESP32-S31 MCU/SD_D2*%
X91300000Y-84200000D03*
%TO.P,U2,30,SDIO_DATA3/GPIO23_30*%
%TO.N,/ESP32-S31 MCU/SD_D3*%
X92150000Y-84200000D03*
%TO.P,U2,31,SDIO_CLK/GPIO24_31*%
%TO.N,/ESP32-S31 MCU/SD_CLK*%
X93000000Y-84200000D03*
%TO.P,U2,32,SDIO_CMD/GPIO25_32*%
%TO.N,/ESP32-S31 MCU/SD_CMD*%
X93850000Y-84200000D03*
%TO.P,U2,33,NC_33*%
%TO.N,unconnected-(U2-NC-Pad33)*%
X94700000Y-84200000D03*
%TO.P,U2,34,NC_34*%
%TO.N,unconnected-(U2-NC-Pad34)*%
X95550000Y-84200000D03*
%TO.P,U2,35,NC_35*%
%TO.N,unconnected-(U2-NC-Pad35)*%
X96400000Y-84200000D03*
%TO.P,U2,36,NC_36*%
%TO.N,unconnected-(U2-NC-Pad36)*%
X97250000Y-84200000D03*
%TO.P,U2,37,NC_37*%
%TO.N,unconnected-(U2-NC-Pad37)*%
X98100000Y-84200000D03*
%TO.P,U2,38,NC_38*%
%TO.N,unconnected-(U2-NC-Pad38)*%
X98950000Y-84200000D03*
%TO.P,U2,39,NC_39*%
%TO.N,unconnected-(U2-NC-Pad39)*%
X99800000Y-84200000D03*
%TO.P,U2,40,USB_DP_40*%
%TO.N,Net-(U2-USB_DP)*%
X100650000Y-84200000D03*
%TO.P,U2,41,USB_DM_41*%
%TO.N,Net-(U2-USB_DM)*%
X101500000Y-84200000D03*
%TO.P,U2,42,GPIO33_42*%
%TO.N,Net-(U2-GPIO33)*%
X102350000Y-84200000D03*
%TO.P,U2,43,GPIO34_43*%
%TO.N,Net-(U2-GPIO34)*%
X103200000Y-84200000D03*
%TO.P,U2,44,GPIO35_44*%
%TO.N,/ESP32-S31 MCU/USB_VBUS_S*%
X104050000Y-84200000D03*
%TO.P,U2,45,GPIO36\u002A_45*%
%TO.N,unconnected-(U2-GPIO36\u002A-Pad45)*%
X104900000Y-84200000D03*
%TO.P,U2,46,GPIO37_46*%
%TO.N,unconnected-(U2-GPIO37-Pad46)*%
X105750000Y-84200000D03*
%TO.P,U2,47,GND_47*%
%TO.N,GND*%
X106600000Y-84200000D03*
D17*
%TO.P,U2,48,GND_48*%
X107970000Y-85300000D03*
%TO.P,U2,49,GPIO38_49*%
%TO.N,/ESP32-S31 MCU/PWR_INT_N*%
X107970000Y-86150000D03*
%TO.P,U2,50,GPIO39_50*%
%TO.N,/ESP32-S31 MCU/LED_EN*%
X107970000Y-87000000D03*
%TO.P,U2,51,GPIO40_51*%
%TO.N,/ESP32-S31 MCU/CHG_PG*%
X107970000Y-87850000D03*
%TO.P,U2,52,GPIO42/ADC1_CH0_N_52*%
%TO.N,/ESP32-S31 MCU/GNSS_PPS*%
X107970000Y-88700000D03*
%TO.P,U2,53,GPIO43/ADC1_CH0_P_53*%
%TO.N,/ESP32-S31 MCU/USB_CC1*%
X107970000Y-89550000D03*
%TO.P,U2,54,GPIO44/ADC1_CH1_N_54*%
%TO.N,/ESP32-S31 MCU/GNSS_RESETN*%
X107970000Y-90400000D03*
%TO.P,U2,55,GPIO45/ADC1_CH1_P_55*%
%TO.N,/ESP32-S31 MCU/USB_CC2*%
X107970000Y-91250000D03*
%TO.P,U2,56,GPIO46/ADC1_CH2_N_56*%
%TO.N,/ESP32-S31 MCU/GNSS_TXD1*%
X107970000Y-92100000D03*
%TO.P,U2,57,GPIO47/ADC1_CH2_P_57*%
%TO.N,/ESP32-S31 MCU/GNSS_RXD1*%
X107970000Y-92950000D03*
%TO.P,U2,58,GPIO48/ADC1_CH3_N_58*%
%TO.N,/ESP32-S31 MCU/GNSS_TXD2*%
X107970000Y-93800000D03*
%TO.P,U2,59,GPIO49/ADC1_CH3_P_59*%
%TO.N,/ESP32-S31 MCU/GNSS_RXD2*%
X107970000Y-94650000D03*
%TO.P,U2,60,GPIO50/ADC2_CH0_N_60*%
%TO.N,/ESP32-S31 MCU/GNSS_PVT*%
X107970000Y-95500000D03*
%TO.P,U2,61,GPIO51/ADC2_CH0_P_61*%
%TO.N,/ESP32-S31 MCU/GNSS_RTK*%
X107970000Y-96350000D03*
%TO.P,U2,62,GPIO52/ADC2_CH1_N_62*%
%TO.N,/ESP32-S31 MCU/GNSS_ERR*%
X107970000Y-97200000D03*
%TO.P,U2,63,GPIO53/ADC2_CH1_P_63*%
%TO.N,unconnected-(U2-GPIO53{slash}ADC2_CH1_P-Pad63)*%
X107970000Y-98050000D03*
%TO.P,U2,64,MTDO/GPIO54_64*%
%TO.N,unconnected-(U2-MTDO{slash}GPIO54-Pad64)*%
X107970000Y-98900000D03*
%TO.P,U2,65,MTCK/GPIO55_65*%
%TO.N,unconnected-(U2-MTCK{slash}GPIO55-Pad65)*%
X107970000Y-99750000D03*
%TO.P,U2,66,MTDI/GPIO56_66*%
%TO.N,unconnected-(U2-MTDI{slash}GPIO56-Pad66)*%
X107970000Y-100600000D03*
%TO.P,U2,67,MTMS/GPIO57_67*%
%TO.N,unconnected-(U2-MTMS{slash}GPIO57-Pad67)*%
X107970000Y-101450000D03*
%TO.P,U2,68,UART0_TXD/GPIO58_68*%
%TO.N,Net-(U2-UART0_TXD{slash}GPIO58)*%
X107970000Y-102300000D03*
%TO.P,U2,69,UART0_RXD/GPIO59_69*%
%TO.N,Net-(U2-UART0_RXD{slash}GPIO59)*%
X107970000Y-103150000D03*
%TO.P,U2,70,GPIO60_70*%
%TO.N,unconnected-(U2-GPIO60-Pad70)*%
X107970000Y-104000000D03*
%TO.P,U2,71,GPIO61_71*%
%TO.N,Net-(U2-GPIO61)*%
X107970000Y-104850000D03*
%TO.P,U2,72,GND_72*%
%TO.N,GND*%
X107970000Y-105700000D03*
D18*
%TO.P,U2,73,GND_73*%
X106600000Y-106800000D03*
%TO.P,U2,74,GND_74*%
X105750000Y-106800000D03*
%TO.P,U2,75,GND_75*%
X104900000Y-106800000D03*
%TO.P,U2,76,GND_76*%
X104050000Y-106800000D03*
%TO.P,U2,77,GND_77*%
X103200000Y-106800000D03*
%TO.P,U2,78,GND_78*%
X102350000Y-106800000D03*
%TO.P,U2,79,GND_79*%
X101500000Y-106800000D03*
%TO.P,U2,80,GND_80*%
X100650000Y-106800000D03*
%TO.P,U2,81,GND_81*%
X99800000Y-106800000D03*
%TO.P,U2,82,GND_82*%
X98950000Y-106800000D03*
%TO.P,U2,83,GND_83*%
X98100000Y-106800000D03*
%TO.P,U2,84,GND_84*%
X97250000Y-106800000D03*
%TO.P,U2,85,GND_85*%
X96400000Y-106800000D03*
%TO.P,U2,86,GND_86*%
X95550000Y-106800000D03*
%TO.P,U2,87,GND_87*%
X94700000Y-106800000D03*
%TO.P,U2,88,GND_88*%
X93850000Y-106800000D03*
%TO.P,U2,89,GND_89*%
X93000000Y-106800000D03*
%TO.P,U2,90,GND_90*%
X92150000Y-106800000D03*
%TO.P,U2,91,NC_91*%
%TO.N,unconnected-(U2-NC-Pad91)*%
X91300000Y-106800000D03*
%TO.P,U2,92,GND_92*%
%TO.N,GND*%
X90450000Y-106800000D03*
%TO.P,U2,93,GND_93*%
X89600000Y-106800000D03*
%TO.P,U2,94,GND_94*%
X88750000Y-106800000D03*
D19*
%TO.P,U2,95,GND_95*%
X94350000Y-95500000D03*
X96010000Y-93840000D03*
X96010000Y-97160000D03*
X97670000Y-92180000D03*
X97670000Y-95500000D03*
X97670000Y-98820000D03*
X99330000Y-93840000D03*
X99330000Y-97160000D03*
X100990000Y-95500000D03*
D20*
%TO.P,U2,96,GND_96*%
X87370000Y-84200000D03*
%TO.P,U2,97,GND_97*%
X107970000Y-84200000D03*
%TO.P,U2,98,GND_98*%
X107970000Y-106800000D03*
%TO.P,U2,99,GND_99*%
X87370000Y-106800000D03*
%TD*%
D21*
%TO.P,U4,1,SW_1*%
%TO.N,Net-(U4-SW)*%
X120260000Y-83300000D03*
%TO.P,U4,2,VOUT_2*%
%TO.N,Net-(U4-VOUT)*%
X120260000Y-82800000D03*
%TO.P,U4,3,GND_3*%
%TO.N,GND*%
X120260000Y-82300000D03*
%TO.P,U4,4,SYNC_4*%
X120260000Y-81800000D03*
%TO.P,U4,5,SCL_5*%
%TO.N,/ESP32-S31 MCU/POW_SCL*%
X120260000Y-81300000D03*
%TO.P,U4,6,SDA_6*%
%TO.N,/ESP32-S31 MCU/POW_SDA*%
X120260000Y-80800000D03*
%TO.P,U4,7,OUT3_7*%
%TO.N,Net-(D32-B_K)*%
X123060000Y-80800000D03*
%TO.P,U4,8,OUT2_8*%
%TO.N,Net-(D32-R_K)*%
X123060000Y-81300000D03*
%TO.P,U4,9,OUT1_9*%
%TO.N,Net-(D32-G_K)*%
X123060000Y-81800000D03*
%TO.P,U4,10,OUT0_10*%
%TO.N,Net-(D32-B_A)*%
X123060000Y-82300000D03*
%TO.P,U4,11,EN_11*%
%TO.N,/ESP32-S31 MCU/LED_EN*%
X123060000Y-82800000D03*
%TO.P,U4,12,VIN_12*%
%TO.N,+3V3*%
X123060000Y-83300000D03*
D22*
%TO.P,U4,13,GND_13*%
%TO.N,GND*%
X121660000Y-82050000D03*
%TD*%
D16*
%TO.P,C40,1*%
%TO.N,GND*%
X129760000Y-100140000D03*
%TO.P,C40,2*%
%TO.N,+3V3_IMU*%
X130720000Y-100140000D03*
%TD*%
D23*
%TO.P,SW1,1,1_1*%
%TO.N,GND*%
X80570000Y-103830000D03*
%TO.P,SW1,2,2_2*%
%TO.N,Net-(U2-EN)*%
X83970000Y-103830000D03*
%TD*%
D24*
%TO.P,R35,1*%
%TO.N,+3V3*%
X94920000Y-81990000D03*
%TO.P,R35,2*%
%TO.N,/ESP32-S31 MCU/PWR_INT_N*%
X94920000Y-83010000D03*
%TD*%
D25*
%TO.P,D33,1,B_K_1*%
%TO.N,Net-(D32-G_K)*%
X125300000Y-80889998D03*
%TO.P,D33,2,G_K_2*%
%TO.N,Net-(D32-B_K)*%
X125300000Y-81509999D03*
%TO.P,D33,3,R_K_3*%
%TO.N,Net-(D32-B_A)*%
X125300000Y-82130000D03*
%TO.P,D33,4,R_A_4*%
%TO.N,Net-(D32-R_K)*%
X124436400Y-82130000D03*
%TO.P,D33,5,G_A_5*%
X124436400Y-81509999D03*
%TO.P,D33,6,B_A_6*%
X124436400Y-80889998D03*
%TD*%
D26*
%TO.P,C17,1*%
%TO.N,Net-(U8-BTST)*%
X83190000Y-86617500D03*
%TO.P,C17,2*%
%TO.N,Net-(U8-SW)*%
X83190000Y-85657500D03*
%TD*%
D27*
%TO.P,C13,1*%
%TO.N,GND*%
X122940000Y-89230000D03*
%TO.P,C13,2*%
%TO.N,+3V3*%
X122940000Y-90190000D03*
%TD*%
D28*
%TO.P,R6,1*%
%TO.N,+3V3*%
X110160000Y-95070000D03*
%TO.P,R6,2*%
%TO.N,/ESP32-S31 MCU/LCD_RN*%
X110160000Y-94050000D03*
%TD*%
D29*
%TO.P,R11,1*%
%TO.N,GND*%
X79410000Y-95500000D03*
%TO.P,R11,2*%
%TO.N,/Power + USB/USB_CC1_pre*%
X80430000Y-95500000D03*
%TD*%
D30*
%TO.P,TP1,1,1_1*%
%TO.N,Net-(U2-UART0_RXD{slash}GPIO59)*%
X121830000Y-97920000D03*
%TD*%
D28*
%TO.P,R7,1*%
%TO.N,+3V3*%
X111250000Y-95080000D03*
%TO.P,R7,2*%
%TO.N,/ESP32-S31 MCU/LCD_CSN*%
X111250000Y-94060000D03*
%TD*%
%TO.P,R24,1*%
%TO.N,/ESP32-S31 MCU/GNSS_RESETN*%
X109290000Y-91110000D03*
%TO.P,R24,2*%
%TO.N,+3V3_GNSS*%
X109290000Y-90090000D03*
%TD*%
D29*
%TO.P,R20,1*%
%TO.N,+3V3_IMU*%
X128140000Y-84350000D03*
%TO.P,R20,2*%
%TO.N,/ESP32-S31 MCU/IMU_RESET_N*%
X129160000Y-84350000D03*
%TD*%
D28*
%TO.P,R18,1*%
%TO.N,Net-(U2-UART0_TXD{slash}GPIO58)*%
X121350000Y-103060000D03*
%TO.P,R18,2*%
%TO.N,Net-(R18-Pad2)*%
X121350000Y-102040000D03*
%TD*%
D23*
%TO.P,SW5,1,1_1*%
%TO.N,GND*%
X134400000Y-106640000D03*
%TO.P,SW5,2,2_2*%
%TO.N,Net-(U5-P3{slash}INT)*%
X131000000Y-106640000D03*
%TD*%
D25*
%TO.P,D32,1,B_K_1*%
%TO.N,Net-(D32-B_K)*%
X118880000Y-80859998D03*
%TO.P,D32,2,G_K_2*%
%TO.N,Net-(D32-G_K)*%
X118880000Y-81479999D03*
%TO.P,D32,3,R_K_3*%
%TO.N,Net-(D32-R_K)*%
X118880000Y-82100000D03*
%TO.P,D32,4,R_A_4*%
%TO.N,Net-(D32-B_A)*%
X118016400Y-82100000D03*
%TO.P,D32,5,G_A_5*%
X118016400Y-81479999D03*
%TO.P,D32,6,B_A_6*%
X118016400Y-80859998D03*
%TD*%
D31*
%TO.P,Q1,1,G_1*%
%TO.N,/ESP32-S31 MCU/LCD_BACK*%
X114455000Y-106350000D03*
%TO.P,Q1,2,S_2*%
%TO.N,GND*%
X114005000Y-106350000D03*
D32*
%TO.P,Q1,3,D_3*%
%TO.N,Net-(Q1-D)*%
X114230000Y-105650000D03*
%TD*%
D33*
%TO.P,C14,1*%
%TO.N,GND*%
X121580000Y-88600000D03*
%TO.P,C14,2*%
%TO.N,+3V3*%
X121580000Y-90150000D03*
%TD*%
D34*
%TO.P,U3,1,HEATSINK_1*%
%TO.N,GND*%
X125430000Y-86082500D03*
%TO.P,U3,2,RESERVED_2*%
%TO.N,unconnected-(U3-RESERVED-Pad2)*%
X126230000Y-86082500D03*
%TO.P,U3,3,TA9_3*%
%TO.N,GND*%
X127030000Y-86082500D03*
%TO.P,U3,4,TA8_4*%
X127830000Y-86082500D03*
%TO.P,U3,5,RESERVED_5*%
X128630000Y-86082500D03*
%TO.P,U3,6,~{EXTRES}_6*%
%TO.N,/ESP32-S31 MCU/IMU_RESET_N*%
X129430000Y-86082500D03*
%TO.P,U3,7,RESERVED_7*%
%TO.N,GND*%
X130230000Y-86082500D03*
%TO.P,U3,8,V3P3_8*%
%TO.N,+3V3_IMU*%
X131030000Y-86082500D03*
%TO.P,U3,9,GND_9*%
%TO.N,GND*%
X131830000Y-86082500D03*
%TO.P,U3,10,VREGA2_10*%
%TO.N,Net-(U3-VREGA)*%
X132630000Y-86082500D03*
%TO.P,U3,11,VREGA_11*%
X133430000Y-86082500D03*
%TO.P,U3,12,GND_12*%
%TO.N,GND*%
X134230000Y-86082500D03*
%TO.P,U3,13,GND_13*%
X134230000Y-98412500D03*
%TO.P,U3,14,VREGD2_14*%
%TO.N,Net-(U3-VREGD)*%
X133430000Y-98412500D03*
%TO.P,U3,15,VREGD_15*%
X132630000Y-98412500D03*
%TO.P,U3,16,GND_16*%
%TO.N,GND*%
X131830000Y-98412500D03*
%TO.P,U3,17,V3P3_17*%
%TO.N,+3V3_IMU*%
X131030000Y-98412500D03*
%TO.P,U3,18,VDDIO_18*%
X130230000Y-98412500D03*
%TO.P,U3,19,MISO_19*%
%TO.N,/ESP32-S31 MCU/IMU_MISO*%
X129430000Y-98412500D03*
%TO.P,U3,20,DRY_SYNC_20*%
%TO.N,/ESP32-S31 MCU/IMU_DRDY*%
X128630000Y-98412500D03*
%TO.P,U3,21,SCK_21*%
%TO.N,/ESP32-S31 MCU/IMU_SCLK*%
X127830000Y-98412500D03*
%TO.P,U3,22,CS_22*%
%TO.N,/ESP32-S31 MCU/IMU_CS_N*%
X127030000Y-98412500D03*
%TO.P,U3,23,MOSI_23*%
%TO.N,/ESP32-S31 MCU/IMU_MOSI*%
X126230000Y-98412500D03*
%TO.P,U3,24,HEATSINK_24*%
%TO.N,GND*%
X125430000Y-98412500D03*
%TD*%
D16*
%TO.P,C39,1*%
%TO.N,GND*%
X130090000Y-83380000D03*
%TO.P,C39,2*%
%TO.N,+3V3_IMU*%
X131050000Y-83380000D03*
%TD*%
D35*
%TO.P,C23,1*%
%TO.N,GND*%
X111345000Y-90870000D03*
%TO.P,C23,2*%
%TO.N,+3V3*%
X112895000Y-90870000D03*
%TD*%
D23*
%TO.P,SW6,1,1_1*%
%TO.N,Net-(U5-P1)*%
X123350000Y-106860000D03*
%TO.P,SW6,2,2_2*%
%TO.N,GND*%
X119950000Y-106860000D03*
%TD*%
D29*
%TO.P,R19,1*%
%TO.N,/ESP32-S31 MCU/SD_CLK*%
X92910000Y-83200000D03*
%TO.P,R19,2*%
%TO.N,Net-(J2-CLK)*%
X93930000Y-83200000D03*
%TD*%
D36*
%TO.P,C28,1*%
%TO.N,GND*%
X118650000Y-85430000D03*
%TO.P,C28,2*%
%TO.N,Net-(U4-VOUT)*%
X118650000Y-83530000D03*
%TD*%
D23*
%TO.P,SW2,1,1_1*%
%TO.N,Net-(U2-GPIO61)*%
X83970000Y-107250000D03*
%TO.P,SW2,2,2_2*%
%TO.N,GND*%
X80570000Y-107250000D03*
%TD*%
D37*
%TO.P,L2,1*%
%TO.N,Net-(U4-SW)*%
X120580000Y-85200000D03*
%TO.P,L2,2*%
%TO.N,+3V3*%
X122730000Y-85200000D03*
%TD*%
D30*
%TO.P,TP2,1,1_1*%
%TO.N,Net-(R18-Pad2)*%
X121830000Y-100500000D03*
%TD*%
D23*
%TO.P,SW7,1,1_1*%
%TO.N,GND*%
X78190000Y-85880000D03*
%TO.P,SW7,2,2_2*%
%TO.N,Net-(U7-PB_IN{slash}\u002APB_IN)*%
X81590000Y-85880000D03*
%TD*%
D26*
%TO.P,C41,1*%
%TO.N,GND*%
X82750000Y-89000000D03*
%TO.P,C41,2*%
%TO.N,/Power + USB/3V3_RAW*%
X82750000Y-88040000D03*
%TD*%
D35*
%TO.P,C36,1*%
%TO.N,Net-(U3-VREGA)*%
X133025000Y-84040000D03*
%TO.P,C36,2*%
%TO.N,GND*%
X134575000Y-84040000D03*
%TD*%
D29*
%TO.P,R4,1*%
%TO.N,Net-(Q1-D)*%
X115250000Y-105730000D03*
%TO.P,R4,2*%
%TO.N,Net-(J3-Pad2)*%
X116270000Y-105730000D03*
%TD*%
D38*
%TO.P,U5,1,P0_1*%
%TO.N,Net-(U5-P0)*%
X122620000Y-109769240D03*
D39*
%TO.P,U5,2,P2_2*%
%TO.N,Net-(U5-P2)*%
X122620000Y-110269620D03*
D40*
%TO.P,U5,3,GND_3*%
%TO.N,GND*%
X122620000Y-110770000D03*
D41*
%TO.P,U5,4,P3/INT_4*%
%TO.N,Net-(U5-P3{slash}INT)*%
X122172960Y-110538860D03*
D42*
%TO.P,U5,5,SCL_5*%
%TO.N,/ESP32-S31 MCU/POW_SCL*%
X121725920Y-110770000D03*
D43*
%TO.P,U5,6,SDA_6*%
%TO.N,/ESP32-S31 MCU/POW_SDA*%
X121725920Y-110269620D03*
D44*
%TO.P,U5,7,VCC_7*%
%TO.N,+3V3*%
X121725920Y-109769240D03*
D41*
%TO.P,U5,8,P1_8*%
%TO.N,Net-(U5-P1)*%
X122172960Y-110000380D03*
%TD*%
D45*
%TO.P,U7,1,VCC_1*%
%TO.N,/Power + USB/3V3_RAW*%
X84660000Y-86439999D03*
%TO.P,U7,2,GND_2*%
%TO.N,GND*%
X84660000Y-85790000D03*
%TO.P,U7,3,PB_IN/\u002APB_IN_3*%
%TO.N,Net-(U7-PB_IN{slash}\u002APB_IN)*%
X84660000Y-85140001D03*
%TO.P,U7,4,\u002ACLR_4*%
%TO.N,/ESP32-S31 MCU/PWR_KILL_N*%
X86107800Y-85140001D03*
%TO.P,U7,5,\u002AINT_5*%
%TO.N,/ESP32-S31 MCU/PWR_INT_N*%
X86107800Y-85790000D03*
%TO.P,U7,6,OUT_6*%
%TO.N,/Power + USB/GATE_EN*%
X86107800Y-86439999D03*
%TD*%
D25*
%TO.P,D35,1,B_K_1*%
%TO.N,Net-(D32-B_A)*%
X134870000Y-80939998D03*
%TO.P,D35,2,G_K_2*%
%TO.N,Net-(D32-R_K)*%
X134870000Y-81559999D03*
%TO.P,D35,3,R_K_3*%
%TO.N,Net-(D32-B_K)*%
X134870000Y-82180000D03*
%TO.P,D35,4,R_A_4*%
%TO.N,Net-(D32-G_K)*%
X134006400Y-82180000D03*
%TO.P,D35,5,G_A_5*%
X134006400Y-81559999D03*
%TO.P,D35,6,B_A_6*%
X134006400Y-80939998D03*
%TD*%
D46*
%TO.P,C27,1*%
%TO.N,GND*%
X125925000Y-83610000D03*
%TO.P,C27,2*%
%TO.N,+3V3*%
X124375000Y-83610000D03*
%TD*%
D28*
%TO.P,R5,1*%
%TO.N,GND*%
X113140000Y-106240000D03*
%TO.P,R5,2*%
%TO.N,/ESP32-S31 MCU/LCD_BACK*%
X113140000Y-105220000D03*
%TD*%
D16*
%TO.P,C22,1*%
%TO.N,GND*%
X111670000Y-92070000D03*
%TO.P,C22,2*%
%TO.N,+3V3*%
X112630000Y-92070000D03*
%TD*%
D47*
%TO.P,SW4,1,1_1*%
%TO.N,GND*%
X127150000Y-112490000D03*
%TO.P,SW4,2,2_2*%
%TO.N,Net-(U5-P2)*%
X127150000Y-109090000D03*
%TD*%
D16*
%TO.P,C38,1*%
%TO.N,GND*%
X130090000Y-84360000D03*
%TO.P,C38,2*%
%TO.N,+3V3_IMU*%
X131050000Y-84360000D03*
%TD*%
%TO.P,C37,1*%
%TO.N,Net-(U3-VREGD)*%
X132980000Y-100100000D03*
%TO.P,C37,2*%
%TO.N,GND*%
X133940000Y-100100000D03*
%TD*%
D25*
%TO.P,D34,1,B_K_1*%
%TO.N,Net-(D32-R_K)*%
X130270000Y-80939998D03*
%TO.P,D34,2,G_K_2*%
%TO.N,Net-(D32-B_A)*%
X130270000Y-81559999D03*
%TO.P,D34,3,R_K_3*%
%TO.N,Net-(D32-G_K)*%
X130270000Y-82180000D03*
%TO.P,D34,4,R_A_4*%
%TO.N,Net-(D32-B_K)*%
X129406400Y-82180000D03*
%TO.P,D34,5,G_A_5*%
X129406400Y-81559999D03*
%TO.P,D34,6,B_A_6*%
X129406400Y-80939998D03*
%TD*%
D47*
%TO.P,SW3,1,1_1*%
%TO.N,GND*%
X127160000Y-100550000D03*
%TO.P,SW3,2,2_2*%
%TO.N,Net-(U5-P0)*%
X127160000Y-103950000D03*
%TD*%
D48*
%TO.P,R34,1*%
%TO.N,+3V3*%
X84670000Y-88160000D03*
%TO.P,R34,2*%
%TO.N,/ESP32-S31 MCU/PWR_KILL_N*%
X83650000Y-88160000D03*
%TD*%
D29*
%TO.P,R12,1*%
%TO.N,GND*%
X79410000Y-98475000D03*
%TO.P,R12,2*%
%TO.N,/Power + USB/USB_CC2_pre*%
X80430000Y-98475000D03*
%TD*%
D49*
%TO.N,GND*%
X134400000Y-106640000D03*
X88540000Y-79760000D03*
X78030000Y-85370000D03*
X127030000Y-86082500D03*
X112060000Y-85680000D03*
X107170000Y-80860000D03*
X84960000Y-90380000D03*
X101140000Y-91150000D03*
X83540000Y-105650000D03*
X103480000Y-106490000D03*
X134230000Y-86082500D03*
X110170000Y-85790000D03*
X107970000Y-85300000D03*
X88750000Y-84200000D03*
X104440000Y-106500000D03*
X79210000Y-84130000D03*
X106600000Y-84200000D03*
X88440000Y-83070000D03*
X109370000Y-82090000D03*
X125260000Y-107470000D03*
X88420000Y-85450000D03*
X116750000Y-102850000D03*
X110010000Y-87420000D03*
X125925000Y-83610000D03*
X85900000Y-98060000D03*
X85333120Y-96478822D03*
X95920000Y-80050000D03*
X105570000Y-82010000D03*
X131830000Y-86082500D03*
X78120000Y-84700000D03*
X121595521Y-88584479D03*
X88290000Y-88850000D03*
X83892500Y-93522500D03*
X98890000Y-98340000D03*
X106120000Y-92990000D03*
X83892500Y-99922500D03*
X131830000Y-98412500D03*
X84380000Y-90390000D03*
X98620000Y-94250000D03*
X79000000Y-85950000D03*
X106170000Y-100570000D03*
X105790000Y-94660000D03*
X88950000Y-86360000D03*
X102410000Y-106800000D03*
X98880000Y-93280000D03*
X121250000Y-82900000D03*
X98400000Y-92810000D03*
X96870000Y-98470000D03*
X102420000Y-105500000D03*
X87370000Y-106800000D03*
X110120000Y-86700000D03*
X97970000Y-87870000D03*
X110020000Y-88340000D03*
X110570000Y-107040000D03*
X105040000Y-94430000D03*
X93830000Y-106800000D03*
X110370000Y-100570000D03*
X83160000Y-106850000D03*
X88510000Y-101950000D03*
X89420000Y-101960000D03*
X82569997Y-89925000D03*
X97770000Y-98470000D03*
X93800000Y-96250000D03*
X88430000Y-86360000D03*
X96570000Y-92470000D03*
X125430000Y-98412500D03*
X105020000Y-91100000D03*
X106170000Y-90070000D03*
X89600000Y-106800000D03*
X114630000Y-95300000D03*
X88750000Y-106800000D03*
X106060000Y-91110000D03*
X115030000Y-103770000D03*
X111420000Y-100530000D03*
X130230000Y-86082500D03*
X116720000Y-89590000D03*
X108510000Y-106480000D03*
X111130000Y-89040000D03*
X110370000Y-98470000D03*
X133940000Y-100100000D03*
X85323263Y-88430000D03*
X115630000Y-103575000D03*
X99240000Y-96320000D03*
X87800000Y-83070000D03*
X89020000Y-79490000D03*
X90450000Y-106800000D03*
X79410000Y-98475000D03*
X99090000Y-83450000D03*
X110370000Y-92170000D03*
X88070000Y-79500000D03*
X90650000Y-92850000D03*
X104070000Y-92170000D03*
X106140000Y-92110000D03*
X109300000Y-100480000D03*
X130090000Y-83380000D03*
X116090000Y-102960000D03*
X99870000Y-100570000D03*
X110230000Y-84340000D03*
X111960000Y-86710000D03*
X115820000Y-87520000D03*
X78640000Y-84680000D03*
X121670000Y-81490000D03*
X89110000Y-88475000D03*
X104070000Y-96370000D03*
X109640000Y-106530000D03*
X124020000Y-101740000D03*
X109970000Y-82090000D03*
X99870000Y-94270000D03*
X97786642Y-96025000D03*
X92159999Y-81819129D03*
X115107500Y-103052500D03*
X88302320Y-88327607D03*
X104040000Y-91150000D03*
X79410000Y-95500000D03*
X89470000Y-101430000D03*
X107190000Y-100510000D03*
X97680000Y-91520000D03*
X85270000Y-104610000D03*
X97770000Y-94270000D03*
X106940000Y-92100000D03*
X92160000Y-83240000D03*
X87340000Y-104880000D03*
X110370000Y-90070000D03*
X101500000Y-106800000D03*
X82920000Y-106280000D03*
X86990000Y-80000000D03*
X101970000Y-98470000D03*
X112970000Y-81090000D03*
X88520000Y-101430000D03*
X107220000Y-93590000D03*
X119840000Y-106860000D03*
X105510000Y-106480000D03*
X86020000Y-80020000D03*
X80570000Y-103830000D03*
X78980000Y-90920000D03*
X88100000Y-80020000D03*
X89020000Y-80010000D03*
X99870000Y-92170000D03*
X112940000Y-82890000D03*
X88940000Y-85450000D03*
X108460000Y-107030000D03*
X101970000Y-94270000D03*
X107570000Y-107010000D03*
X86190000Y-89170000D03*
X125430000Y-86082500D03*
X111790000Y-96290000D03*
X109970000Y-82890000D03*
X93140000Y-95400000D03*
X93000000Y-106800000D03*
X112370000Y-81090000D03*
X115940000Y-104480000D03*
X109640000Y-107030000D03*
X100440000Y-92820000D03*
X86990000Y-79420000D03*
X99160000Y-94640000D03*
X112370000Y-82090000D03*
X106170000Y-96370000D03*
X91660000Y-83240000D03*
X107560000Y-106490000D03*
X112260000Y-88220000D03*
X85970000Y-79450000D03*
X99870000Y-98470000D03*
X112970000Y-82090000D03*
X112270000Y-102770000D03*
X104070000Y-98470000D03*
X112470000Y-100570000D03*
X104110000Y-94390000D03*
X98980000Y-91170000D03*
X82060000Y-97480000D03*
X80570000Y-104360000D03*
X84840000Y-90890000D03*
X106170000Y-98470000D03*
X99830000Y-106800000D03*
X102370000Y-102770000D03*
X134575000Y-84040000D03*
X98920000Y-106800000D03*
X83170000Y-89925000D03*
X92150000Y-106800000D03*
D50*
X102970000Y-80940000D03*
D49*
X110590000Y-106520000D03*
X111670000Y-92070000D03*
X104430000Y-107010000D03*
X112310000Y-89770000D03*
X109370000Y-82890000D03*
X100610000Y-106800000D03*
X96610000Y-97300000D03*
X134230000Y-98412500D03*
X130090000Y-84360000D03*
X109970000Y-81090000D03*
X131740000Y-88550000D03*
X94700000Y-106800000D03*
X80570000Y-107250000D03*
X112470000Y-96370000D03*
X109370000Y-81090000D03*
X96470000Y-106800000D03*
X116420000Y-88910000D03*
X82965000Y-105645000D03*
X106750000Y-93160000D03*
X101010000Y-96280000D03*
X101620000Y-96060000D03*
X81720000Y-96860000D03*
X100740000Y-98370000D03*
X100830000Y-100530000D03*
X106170000Y-94270000D03*
X98560000Y-94900000D03*
X112260000Y-87360000D03*
X113140000Y-106240000D03*
X97770000Y-92170000D03*
X86500000Y-79770000D03*
X98420000Y-92120000D03*
X95620000Y-106800000D03*
X112370000Y-82890000D03*
X100100000Y-93270000D03*
X78710000Y-85400000D03*
X105080000Y-96170000D03*
X129760000Y-100140000D03*
X99430000Y-93170000D03*
X110370000Y-96370000D03*
X97380000Y-106800000D03*
X81510000Y-84580000D03*
X106410000Y-107060000D03*
X105090000Y-92140000D03*
X86103120Y-96478822D03*
X97410000Y-92900000D03*
X87370000Y-105700000D03*
X128630000Y-86082500D03*
X82750000Y-89175000D03*
X82530000Y-84580000D03*
X105550000Y-107020000D03*
X96360000Y-98330000D03*
X105110000Y-98400000D03*
X96530000Y-80040000D03*
X127160000Y-100550000D03*
X112110000Y-84440000D03*
X101970000Y-92170000D03*
X78190000Y-85880000D03*
X111460000Y-98340000D03*
X104570000Y-82010000D03*
X107970000Y-84200000D03*
X101060000Y-94910000D03*
X121940000Y-82900000D03*
X106460000Y-106520000D03*
X93670000Y-95640000D03*
X103500000Y-107010000D03*
X96780000Y-96110000D03*
X127830000Y-86082500D03*
X97770000Y-100570000D03*
X112470000Y-98470000D03*
X118650000Y-85550000D03*
X128330000Y-91240000D03*
X96530000Y-93240000D03*
X98610000Y-96090000D03*
X97740000Y-90020000D03*
X87370000Y-84200000D03*
X85280000Y-98010000D03*
X121210000Y-81960000D03*
X121850000Y-104300000D03*
X88680000Y-85890000D03*
X99870000Y-96370000D03*
X96930000Y-91950000D03*
X93190000Y-91870000D03*
X104070000Y-100570000D03*
X98050000Y-106800000D03*
X122940000Y-89230000D03*
X100670000Y-94270000D03*
X96220000Y-80560000D03*
X101970000Y-100570000D03*
X98850000Y-100560000D03*
X109130000Y-98400000D03*
X100170000Y-87870000D03*
X100190000Y-94890000D03*
%TO.N,+3V3*%
X85310000Y-94320000D03*
X126130000Y-91240000D03*
X113440000Y-96460000D03*
X95690000Y-83280000D03*
X121760000Y-105210000D03*
X96830000Y-83270000D03*
X86260000Y-103310000D03*
X121530000Y-90165000D03*
X87050000Y-104010000D03*
X88970000Y-103600000D03*
X89400000Y-98920000D03*
X122940000Y-90190000D03*
X85030000Y-89350000D03*
X124375000Y-83610000D03*
X86320000Y-94300000D03*
X98410000Y-83080000D03*
X87040000Y-103150000D03*
X113465000Y-89575000D03*
X94920000Y-81990000D03*
X97747500Y-82790000D03*
X96230000Y-83270000D03*
X87620000Y-103140000D03*
X87610000Y-104020000D03*
X89250000Y-91050000D03*
X89400000Y-99890000D03*
X96180000Y-82730000D03*
%TO.N,Net-(U2-USB_DM)*%
X101500000Y-84200000D03*
%TO.N,+3V3_GNSS*%
X104360000Y-102700000D03*
X99780000Y-83190000D03*
X100240000Y-82830000D03*
X109440000Y-89170000D03*
X103220000Y-103230000D03*
X103360000Y-82560000D03*
X102510000Y-82560000D03*
X103960000Y-103200000D03*
X102540000Y-83110000D03*
X103186041Y-102383959D03*
X103850000Y-102370000D03*
X99800000Y-82470000D03*
X103390000Y-83150000D03*
%TO.N,Net-(J6-VBUS)*%
X83599028Y-99128792D03*
X80940000Y-91270000D03*
X81220000Y-90680000D03*
X81830000Y-91270000D03*
X84166379Y-94328669D03*
X84170000Y-99112500D03*
X82020000Y-90630000D03*
X83592510Y-94315997D03*
%TO.N,/Power + USB/USB_CC1_pre*%
X80430000Y-95500000D03*
%TO.N,/ESP32-S31 MCU/USB_DP*%
X83892500Y-97472500D03*
X83940000Y-96472500D03*
%TO.N,/Power + USB/USB_CC2_pre*%
X84807500Y-98475000D03*
X85020000Y-95075000D03*
X80430000Y-98475000D03*
%TO.N,/ESP32-S31 MCU/GNSS_PVT*%
X107220000Y-95350000D03*
%TO.N,/ESP32-S31 MCU/GNSS_RTK*%
X107250000Y-96350000D03*
%TO.N,/ESP32-S31 MCU/GNSS_ERR*%
X107060000Y-97410000D03*
%TO.N,/ESP32-S31 MCU/GNSS_RXD2*%
X109200000Y-95000000D03*
%TO.N,/ESP32-S31 MCU/GNSS_TXD2*%
X109270000Y-93920000D03*
%TO.N,/ESP32-S31 MCU/GNSS_TXD1*%
X109240000Y-92090000D03*
%TO.N,/ESP32-S31 MCU/GNSS_RXD1*%
X108850000Y-93240000D03*
%TO.N,/ESP32-S31 MCU/GNSS_RESETN*%
X109310000Y-91130000D03*
%TO.N,/ESP32-S31 MCU/GNSS_PPS*%
X108660000Y-89060000D03*
%TO.N,Net-(U8-TS)*%
X86240000Y-90520000D03*
X89680000Y-92690000D03*
X90650000Y-98510000D03*
%TO.N,Net-(U2-GPIO34)*%
X131560000Y-101500000D03*
X101670000Y-81980000D03*
%TO.N,/Power + USB/GATE_EN*%
X91040000Y-83280000D03*
%TO.N,/Power + USB/3V3_RAW*%
X85630000Y-84156566D03*
%TO.N,/ESP32-S31 MCU/USB_VBUS_S*%
X80000000Y-90920000D03*
X104042021Y-88945764D03*
X104050000Y-84140000D03*
X90860000Y-89130000D03*
%TO.N,Net-(U8-BAT)*%
X82960000Y-103870000D03*
X85840000Y-87510000D03*
X86190000Y-88210000D03*
X86425000Y-87610000D03*
X82960000Y-103160000D03*
X82310000Y-102750000D03*
X82200000Y-103370000D03*
X86130000Y-87030000D03*
X82970000Y-104450000D03*
%TO.N,Net-(U8-SW)*%
X82800000Y-82940000D03*
D51*
X83790000Y-85820000D03*
X83560000Y-85370000D03*
D49*
X82110000Y-82920000D03*
X82800000Y-82130000D03*
X82070000Y-82140000D03*
X82810000Y-81290000D03*
X82120000Y-81300000D03*
D51*
X83750000Y-84870000D03*
D49*
%TO.N,/ESP32-S31 MCU/BAT_ALRT*%
X89250000Y-90030000D03*
X87370000Y-101450000D03*
%TO.N,/ESP32-S31 MCU/CHG_PG*%
X84000000Y-89350000D03*
%TO.N,/ESP32-S31 MCU/SD_D2*%
X122830000Y-91440000D03*
%TO.N,/ESP32-S31 MCU/SD_D3*%
X123930000Y-91840000D03*
%TO.N,/ESP32-S31 MCU/SD_CMD*%
X125030000Y-90990000D03*
%TO.N,Net-(J2-CLK)*%
X127230000Y-91440000D03*
%TO.N,/ESP32-S31 MCU/SD_D0*%
X129430000Y-91440000D03*
%TO.N,/ESP32-S31 MCU/SD_D1*%
X130390000Y-91410000D03*
%TO.N,Net-(U2-GPIO61)*%
X85280000Y-106550000D03*
%TO.N,/ESP32-S31 MCU/POW_SCL*%
X88120000Y-96650000D03*
X83152129Y-83594467D03*
X89490000Y-87990000D03*
X85310000Y-93300000D03*
X113800000Y-107580000D03*
%TO.N,/ESP32-S31 MCU/POW_SDA*%
X86320000Y-93280000D03*
X89046535Y-87493847D03*
X83620000Y-80450000D03*
X120940000Y-105730000D03*
X83752000Y-83607000D03*
D51*
%TO.N,Net-(U8-BTST)*%
X82880000Y-86700000D03*
D49*
%TO.N,/ESP32-S31 MCU/CHG_STAT*%
X84650788Y-84570092D03*
X87370000Y-98900000D03*
%TO.N,/ESP32-S31 MCU/CHG_INT*%
X84351704Y-83588081D03*
X87370000Y-99750000D03*
%TO.N,/ESP32-S31 MCU/USB_CC2*%
X88270729Y-94891771D03*
%TO.N,Net-(U2-USB_DP)*%
X100650000Y-84200000D03*
%TO.N,/ESP32-S31 MCU/USB_CC1*%
X88130000Y-95880000D03*
%TO.N,+3V3_IMU*%
X99700000Y-81190000D03*
X99720000Y-80460000D03*
X100200000Y-80790000D03*
X131050000Y-83380000D03*
X128140000Y-84350000D03*
%TO.N,Net-(U2-GPIO33)*%
X101010000Y-81960000D03*
X123020000Y-103240000D03*
%TO.N,Net-(U2-EN)*%
X86260000Y-102290000D03*
X85240000Y-103660000D03*
%TO.N,/ESP32-S31 MCU/LCD_RN*%
X100980000Y-92200000D03*
X90490000Y-88650000D03*
%TO.N,/ESP32-S31 MCU/LCD_CSN*%
X113500000Y-93632157D03*
X87740000Y-86140000D03*
%TO.N,/ESP32-S31 MCU/LCD_SCLK*%
X90750000Y-87910000D03*
X101480000Y-93280000D03*
%TO.N,/ESP32-S31 MCU/LCD_DC*%
X113430000Y-94590000D03*
X87740000Y-85310000D03*
%TO.N,/ESP32-S31 MCU/LCD_SDA*%
X87690000Y-86930000D03*
X113480000Y-95320000D03*
%TO.N,/ESP32-S31 MCU/IMU_RESET_N*%
X129430000Y-86082500D03*
X87370000Y-93800000D03*
%TO.N,/ESP32-S31 MCU/IMU_CS_N*%
X127030000Y-98412500D03*
X87460000Y-92930000D03*
%TO.N,/ESP32-S31 MCU/IMU_MOSI*%
X87370000Y-92100000D03*
X126230000Y-98412500D03*
%TO.N,/ESP32-S31 MCU/IMU_SCLK*%
X127830000Y-98412500D03*
X88355000Y-92125000D03*
%TO.N,/ESP32-S31 MCU/IMU_MISO*%
X87370000Y-90400000D03*
X129430000Y-98412500D03*
%TO.N,/ESP32-S31 MCU/IMU_DRDY*%
X87280000Y-89560000D03*
X128640000Y-97870000D03*
%TO.N,/ESP32-S31 MCU/PWR_INT_N*%
X93893902Y-82530000D03*
X107970000Y-86150000D03*
%TO.N,/ESP32-S31 MCU/LED_EN*%
X123500000Y-82860000D03*
X108930000Y-86769998D03*
%TO.N,Net-(D32-B_K)*%
X125300000Y-81509999D03*
X123060000Y-80800000D03*
%TO.N,Net-(D32-G_K)*%
X123780000Y-81700000D03*
X123780000Y-80900000D03*
%TO.N,Net-(D32-B_A)*%
X134870000Y-80939998D03*
X123060000Y-82300000D03*
X130270000Y-81559999D03*
X118016400Y-82100000D03*
X125300000Y-82130000D03*
%TD*%
%TO.N,GND*%
D52*
X96470000Y-106800000D02*
X95620000Y-106800000D01*
D53*
X127120000Y-110770000D02*
X128175000Y-109715000D01*
D54*
X110470000Y-92070000D02*
X110370000Y-92170000D01*
D55*
X82750000Y-89175000D02*
X82750000Y-89000000D01*
D52*
X107970000Y-106800000D02*
X102410000Y-106800000D01*
D53*
X128175000Y-108465000D02*
X127180000Y-107470000D01*
D52*
X97380000Y-106800000D02*
X96470000Y-106800000D01*
D53*
X114630000Y-101300000D02*
X114630000Y-101800000D01*
D54*
X111345000Y-90870000D02*
X111170000Y-90870000D01*
X116236750Y-111830000D02*
X127160000Y-111830000D01*
D53*
X115310000Y-95320000D02*
X115750000Y-94880000D01*
D54*
X111670000Y-92070000D02*
X110470000Y-92070000D01*
D53*
X114630000Y-96300000D02*
X114630000Y-99800000D01*
X127180000Y-107470000D02*
X125260000Y-107470000D01*
D52*
X98920000Y-106800000D02*
X98050000Y-106800000D01*
D54*
X111290000Y-93090000D02*
X110370000Y-92170000D01*
X111170000Y-90870000D02*
X110370000Y-90070000D01*
D52*
X107970000Y-105700000D02*
X107970000Y-106800000D01*
D53*
X114630000Y-96800000D02*
X115180000Y-96800000D01*
D52*
X100610000Y-106800000D02*
X99830000Y-106800000D01*
D53*
X115505000Y-101125000D02*
X115330000Y-101300000D01*
X114005000Y-106350000D02*
X113250000Y-106350000D01*
X114650000Y-95320000D02*
X115310000Y-95320000D01*
X115107500Y-103052500D02*
X115630000Y-103575000D01*
X115750000Y-91720000D02*
X115330000Y-91300000D01*
D54*
X78190000Y-85880000D02*
X78190000Y-84950000D01*
D53*
X115620000Y-96360000D02*
X115620000Y-95640000D01*
D52*
X93830000Y-106800000D02*
X93000000Y-106800000D01*
D54*
X78340000Y-110770000D02*
X80570000Y-108540000D01*
D53*
X127150000Y-111840000D02*
X127160000Y-111830000D01*
D56*
X84660000Y-85790000D02*
X85160000Y-85290000D01*
X86150880Y-83070000D02*
X87800000Y-83070000D01*
D52*
X102410000Y-106800000D02*
X101500000Y-106800000D01*
D53*
X127150000Y-112490000D02*
X127150000Y-111840000D01*
D54*
X113280000Y-111830000D02*
X116236750Y-111830000D01*
X111830000Y-110380000D02*
X113280000Y-111830000D01*
X78190000Y-84950000D02*
X78340000Y-84800000D01*
D53*
X115750000Y-94880000D02*
X115750000Y-91720000D01*
D54*
X80570000Y-108540000D02*
X80570000Y-107250000D01*
D53*
X122620000Y-110770000D02*
X127120000Y-110770000D01*
D52*
X95620000Y-106800000D02*
X94700000Y-106800000D01*
D56*
X85160000Y-84060880D02*
X86150880Y-83070000D01*
D52*
X94700000Y-106800000D02*
X93830000Y-106800000D01*
D53*
X114630000Y-102575000D02*
X115107500Y-103052500D01*
X114630000Y-101800000D02*
X114630000Y-102575000D01*
D56*
X120360000Y-81700000D02*
X120260000Y-81800000D01*
D52*
X101500000Y-106800000D02*
X100610000Y-106800000D01*
D56*
X120260000Y-81800000D02*
X120260000Y-82300000D01*
D53*
X114630000Y-99800000D02*
X115480000Y-99800000D01*
D54*
X127160000Y-111830000D02*
X133920000Y-111830000D01*
X111690000Y-93090000D02*
X111290000Y-93090000D01*
D52*
X99830000Y-106800000D02*
X98920000Y-106800000D01*
D53*
X115505000Y-99825000D02*
X115505000Y-101125000D01*
X128175000Y-109715000D02*
X128175000Y-108465000D01*
X115620000Y-95640000D02*
X115300000Y-95320000D01*
D56*
X121660000Y-82050000D02*
X121310000Y-81700000D01*
X85160000Y-85290000D02*
X85160000Y-84060880D01*
D53*
X113250000Y-106350000D02*
X113140000Y-106240000D01*
X115480000Y-99800000D02*
X115505000Y-99825000D01*
X115180000Y-96800000D02*
X115620000Y-96360000D01*
D56*
X115300000Y-95320000D02*
X114650000Y-95320000D01*
D53*
X115330000Y-101300000D02*
X114630000Y-101300000D01*
D52*
X98050000Y-106800000D02*
X97380000Y-106800000D01*
D53*
X115330000Y-91300000D02*
X114630000Y-91300000D01*
D54*
X78340000Y-84800000D02*
X78340000Y-81630000D01*
D53*
X114630000Y-95300000D02*
X114650000Y-95320000D01*
D56*
X121310000Y-81700000D02*
X120360000Y-81700000D01*
%TO.N,+3V3*%
D57*
X114630000Y-92800000D02*
X114630000Y-91800000D01*
D53*
X111990000Y-95080000D02*
X113370000Y-96460000D01*
D55*
X87040000Y-103150000D02*
X86420000Y-103150000D01*
D53*
X113370000Y-96460000D02*
X113440000Y-96460000D01*
D54*
X111250000Y-95080000D02*
X110170000Y-95080000D01*
D53*
X111250000Y-95080000D02*
X111990000Y-95080000D01*
D54*
X112630000Y-92070000D02*
X113610000Y-92070000D01*
D57*
X123060000Y-84870000D02*
X122730000Y-85200000D01*
D56*
X84670000Y-88160000D02*
X84670000Y-88990000D01*
D54*
X112650000Y-93090000D02*
X112650000Y-92090000D01*
X113610000Y-92070000D02*
X113880000Y-91800000D01*
X113465000Y-89575000D02*
X113480000Y-89560000D01*
D53*
X121725920Y-109769240D02*
X121725920Y-105244080D01*
D57*
X123060000Y-83300000D02*
X123060000Y-84870000D01*
D54*
X113465000Y-90300000D02*
X113465000Y-89575000D01*
D55*
X121555000Y-90190000D02*
X121530000Y-90165000D01*
X87370000Y-103150000D02*
X87040000Y-103150000D01*
X86420000Y-103150000D02*
X86260000Y-103310000D01*
D54*
X112630000Y-92070000D02*
X112630000Y-91135000D01*
D55*
X122940000Y-90190000D02*
X121555000Y-90190000D01*
X124375000Y-83610000D02*
X123370000Y-83610000D01*
X123370000Y-83610000D02*
X123060000Y-83300000D01*
D54*
X113465000Y-90300000D02*
X114630000Y-90300000D01*
D53*
X121725920Y-105244080D02*
X121760000Y-105210000D01*
D54*
X112630000Y-91135000D02*
X112895000Y-90870000D01*
X112650000Y-92090000D02*
X112630000Y-92070000D01*
D56*
X84670000Y-88990000D02*
X85030000Y-89350000D01*
D54*
X114630000Y-91800000D02*
X113880000Y-91800000D01*
X112895000Y-90870000D02*
X113465000Y-90300000D01*
X110170000Y-95080000D02*
X110160000Y-95070000D01*
D55*
X87370000Y-104000000D02*
X87370000Y-103150000D01*
%TO.N,+3V3_GNSS*%
D53*
X109290000Y-90090000D02*
X109290000Y-89320000D01*
X109290000Y-89320000D02*
X109440000Y-89170000D01*
%TO.N,/ESP32-S31 MCU/USB_DP*%
X83892500Y-97472500D02*
X83892500Y-96520000D01*
X83892500Y-96520000D02*
X83940000Y-96472500D01*
%TO.N,/ESP32-S31 MCU/GNSS_PVT*%
X107220000Y-95350000D02*
X107210000Y-95340000D01*
X107370000Y-95500000D02*
X107220000Y-95350000D01*
X107970000Y-95500000D02*
X107370000Y-95500000D01*
%TO.N,/ESP32-S31 MCU/GNSS_RTK*%
X107970000Y-96350000D02*
X107250000Y-96350000D01*
%TO.N,/ESP32-S31 MCU/GNSS_ERR*%
X107270000Y-97200000D02*
X107060000Y-97410000D01*
X107970000Y-97200000D02*
X107270000Y-97200000D01*
%TO.N,/ESP32-S31 MCU/GNSS_RXD2*%
X107970000Y-94650000D02*
X108850000Y-94650000D01*
X108850000Y-94650000D02*
X109200000Y-95000000D01*
%TO.N,/ESP32-S31 MCU/GNSS_TXD2*%
X109270000Y-93920000D02*
X109300000Y-93950000D01*
X109150000Y-93800000D02*
X109270000Y-93920000D01*
X107970000Y-93800000D02*
X109150000Y-93800000D01*
%TO.N,/ESP32-S31 MCU/GNSS_TXD1*%
X109230000Y-92100000D02*
X109240000Y-92090000D01*
X107970000Y-92100000D02*
X109230000Y-92100000D01*
%TO.N,/ESP32-S31 MCU/GNSS_RXD1*%
X108560000Y-92950000D02*
X108850000Y-93240000D01*
X107970000Y-92950000D02*
X108560000Y-92950000D01*
%TO.N,/ESP32-S31 MCU/GNSS_RESETN*%
X109310000Y-91130000D02*
X108710002Y-91130000D01*
D54*
X108226257Y-90400000D02*
X107970000Y-90400000D01*
D53*
X108710002Y-91130000D02*
X107980002Y-90400000D01*
X107980002Y-90400000D02*
X107970000Y-90400000D01*
%TO.N,/ESP32-S31 MCU/GNSS_PPS*%
X108300000Y-88700000D02*
X108660000Y-89060000D01*
X107970000Y-88700000D02*
X108300000Y-88700000D01*
X108660000Y-89060000D02*
X108690000Y-89090000D01*
%TO.N,Net-(U8-TS)*%
D56*
X86240000Y-90520000D02*
X86620000Y-90900000D01*
X87890000Y-90900000D02*
X89680000Y-92690000D01*
X86620000Y-90900000D02*
X87890000Y-90900000D01*
%TO.N,Net-(U2-GPIO34)*%
D53*
X102535000Y-83535000D02*
X103200000Y-84200000D01*
X101670000Y-82841041D02*
X102363959Y-83535000D01*
X102363959Y-83535000D02*
X102535000Y-83535000D01*
X101670000Y-81980000D02*
X101670000Y-82841041D01*
%TO.N,/Power + USB/GATE_EN*%
D56*
X86189601Y-86439999D02*
X86107800Y-86439999D01*
X91040000Y-83280000D02*
X89620000Y-83280000D01*
X86800000Y-84970000D02*
X86800000Y-85829600D01*
X91040000Y-83280000D02*
X91090000Y-83280000D01*
X89150000Y-84700000D02*
X88940000Y-84910000D01*
X89150000Y-83750000D02*
X89150000Y-84700000D01*
X88940000Y-84910000D02*
X86860000Y-84910000D01*
X89620000Y-83280000D02*
X89150000Y-83750000D01*
X86860000Y-84910000D02*
X86800000Y-84970000D01*
X86800000Y-85829600D02*
X86189601Y-86439999D01*
%TO.N,/Power + USB/3V3_RAW*%
X85360000Y-84426566D02*
X85360000Y-85760000D01*
X83138299Y-87841701D02*
X82948299Y-87841701D01*
X85630000Y-84156566D02*
X85360000Y-84426566D01*
X84791701Y-86328299D02*
X84651701Y-86328299D01*
X84651701Y-86328299D02*
X83138299Y-87841701D01*
X85360000Y-85760000D02*
X84791701Y-86328299D01*
X82948299Y-87841701D02*
X82750000Y-88040000D01*
%TO.N,/ESP32-S31 MCU/USB_VBUS_S*%
X103857785Y-89130000D02*
X104042021Y-88945764D01*
X90860000Y-89130000D02*
X103857785Y-89130000D01*
%TO.N,/ESP32-S31 MCU/CHG_PG*%
X84000000Y-89350000D02*
X84610000Y-89960000D01*
X89078959Y-89600000D02*
X106080000Y-89600000D01*
X84610000Y-89960000D02*
X88718959Y-89960000D01*
X106080000Y-89600000D02*
X107830000Y-87850000D01*
X107830000Y-87850000D02*
X107970000Y-87850000D01*
X88718959Y-89960000D02*
X89078959Y-89600000D01*
%TO.N,/ESP32-S31 MCU/SD_D2*%
D53*
X104099840Y-86190000D02*
X102799840Y-86190000D01*
X98309840Y-85950000D02*
X98309840Y-85780000D01*
X113409527Y-85925000D02*
X113289527Y-85925000D01*
X111149527Y-85365000D02*
X111149527Y-85535000D01*
X112809527Y-85125000D02*
X112689527Y-85125000D01*
X122830000Y-91440000D02*
X121404527Y-91440000D01*
X108635380Y-85584619D02*
X108495000Y-85725000D01*
X94709840Y-85950000D02*
X94709840Y-85780000D01*
X96509840Y-85780000D02*
X96509840Y-85950000D01*
X98069840Y-85540000D02*
X97949840Y-85540000D01*
X99269840Y-85540000D02*
X99149840Y-85540000D01*
X100109840Y-85780000D02*
X100109840Y-85950000D01*
X101309840Y-85780000D02*
X101309840Y-85950000D01*
X113049527Y-85685000D02*
X113049527Y-85365000D01*
X92363640Y-85343640D02*
X91795000Y-84775000D01*
X121404527Y-91440000D02*
X117370000Y-87405472D01*
X93749840Y-86190000D02*
X93730000Y-86190000D01*
X107621960Y-85725000D02*
X106948554Y-85725000D01*
X93730000Y-86190000D02*
X93000000Y-85460000D01*
X95669840Y-85540000D02*
X95549840Y-85540000D01*
X91300000Y-84280000D02*
X91300000Y-84200000D01*
X110909527Y-85775000D02*
X110789527Y-85775000D01*
X106483553Y-86190000D02*
X104099840Y-86190000D01*
X95069840Y-86190000D02*
X94949840Y-86190000D01*
X116114527Y-86150000D02*
X115195287Y-85230760D01*
X108495000Y-85725000D02*
X107621960Y-85725000D01*
X96269840Y-86190000D02*
X96149840Y-86190000D01*
X101069840Y-86190000D02*
X100949840Y-86190000D01*
X117370000Y-87405472D02*
X117370000Y-87130662D01*
X101669840Y-85540000D02*
X101549840Y-85540000D01*
X98669840Y-86190000D02*
X98549840Y-86190000D01*
X100709840Y-85950000D02*
X100709840Y-85780000D01*
X114009527Y-85125000D02*
X113889527Y-85125000D01*
X92480000Y-85460000D02*
X92363640Y-85343640D01*
X95309840Y-85780000D02*
X95309840Y-85950000D01*
X95909840Y-85950000D02*
X95909840Y-85780000D01*
X106948554Y-85725000D02*
X106483553Y-86190000D01*
X94469840Y-85540000D02*
X94349840Y-85540000D01*
X110549527Y-85535000D02*
X110549527Y-85365000D01*
X112689527Y-85125000D02*
X112039527Y-85125000D01*
X94109840Y-85780000D02*
X94109840Y-85950000D01*
X96869840Y-85540000D02*
X96749840Y-85540000D01*
X115195287Y-85230760D02*
X115089527Y-85125000D01*
X101909840Y-85950000D02*
X101909840Y-85780000D01*
X97109840Y-85950000D02*
X97109840Y-85780000D01*
X117370000Y-87130662D02*
X116389338Y-86150000D01*
X97709840Y-85780000D02*
X97709840Y-85950000D01*
X112039527Y-85125000D02*
X111389527Y-85125000D01*
X114249527Y-85685000D02*
X114249527Y-85365000D01*
X93869840Y-86190000D02*
X93749840Y-86190000D01*
X99869840Y-86190000D02*
X99749840Y-86190000D01*
X113649527Y-85365000D02*
X113649527Y-85685000D01*
X100469840Y-85540000D02*
X100349840Y-85540000D01*
X114609527Y-85925000D02*
X114489527Y-85925000D01*
X116221733Y-86150000D02*
X116114527Y-86150000D01*
X114849527Y-85365000D02*
X114849527Y-85685000D01*
X109095000Y-85125000D02*
X108635380Y-85584619D01*
X102799840Y-86190000D02*
X102149840Y-86190000D01*
X93000000Y-85460000D02*
X92480000Y-85460000D01*
X110189527Y-85125000D02*
X109095000Y-85125000D01*
X116389338Y-86150000D02*
X116221733Y-86150000D01*
X110309527Y-85125000D02*
X110189527Y-85125000D01*
X98909840Y-85780000D02*
X98909840Y-85950000D01*
X99509840Y-85950000D02*
X99509840Y-85780000D01*
X97469840Y-86190000D02*
X97349840Y-86190000D01*
X91775000Y-84755000D02*
X91300000Y-84280000D01*
X113889527Y-85125000D02*
G75*
G03*
X113649500Y-85365000I-27J-240000D01*
G01*
X101549840Y-85540000D02*
G75*
G03*
X101309800Y-85780000I-40J-240000D01*
G01*
X95909840Y-85780000D02*
G75*
G03*
X95669840Y-85539960I-240040J0D01*
G01*
X94949840Y-86190000D02*
G75*
G02*
X94709800Y-85950000I-40J240000D01*
G01*
X94709840Y-85780000D02*
G75*
G03*
X94469840Y-85539960I-240040J0D01*
G01*
X114849527Y-85685000D02*
G75*
G02*
X114609527Y-85925027I-240027J0D01*
G01*
X97949840Y-85540000D02*
G75*
G03*
X97709800Y-85780000I-40J-240000D01*
G01*
X114249527Y-85365000D02*
G75*
G03*
X114009527Y-85124973I-240027J0D01*
G01*
X95549840Y-85540000D02*
G75*
G03*
X95309800Y-85780000I-40J-240000D01*
G01*
X114489527Y-85925000D02*
G75*
G02*
X114249500Y-85685000I-27J240000D01*
G01*
X110549527Y-85365000D02*
G75*
G03*
X110309527Y-85124973I-240027J0D01*
G01*
X113049527Y-85365000D02*
G75*
G03*
X112809527Y-85124973I-240027J0D01*
G01*
X100949840Y-86190000D02*
G75*
G02*
X100709800Y-85950000I-40J240000D01*
G01*
X100349840Y-85540000D02*
G75*
G03*
X100109800Y-85780000I-40J-240000D01*
G01*
X110789527Y-85775000D02*
G75*
G02*
X110549500Y-85535000I-27J240000D01*
G01*
X100709840Y-85780000D02*
G75*
G03*
X100469840Y-85539960I-240040J0D01*
G01*
X97109840Y-85780000D02*
G75*
G03*
X96869840Y-85539960I-240040J0D01*
G01*
X102149840Y-86190000D02*
G75*
G02*
X101909800Y-85950000I-40J240000D01*
G01*
X99509840Y-85780000D02*
G75*
G03*
X99269840Y-85539960I-240040J0D01*
G01*
X98549840Y-86190000D02*
G75*
G02*
X98309800Y-85950000I-40J240000D01*
G01*
X98909840Y-85950000D02*
G75*
G02*
X98669840Y-86190040I-240040J0D01*
G01*
X96149840Y-86190000D02*
G75*
G02*
X95909800Y-85950000I-40J240000D01*
G01*
X96509840Y-85950000D02*
G75*
G02*
X96269840Y-86190040I-240040J0D01*
G01*
X94109840Y-85950000D02*
G75*
G02*
X93869840Y-86190040I-240040J0D01*
G01*
X113289527Y-85925000D02*
G75*
G02*
X113049500Y-85685000I-27J240000D01*
G01*
X98309840Y-85780000D02*
G75*
G03*
X98069840Y-85539960I-240040J0D01*
G01*
X99149840Y-85540000D02*
G75*
G03*
X98909800Y-85780000I-40J-240000D01*
G01*
X97349840Y-86190000D02*
G75*
G02*
X97109800Y-85950000I-40J240000D01*
G01*
X101909840Y-85780000D02*
G75*
G03*
X101669840Y-85539960I-240040J0D01*
G01*
X115089527Y-85125000D02*
G75*
G03*
X114849500Y-85365000I-27J-240000D01*
G01*
X95309840Y-85950000D02*
G75*
G02*
X95069840Y-86190040I-240040J0D01*
G01*
X94349840Y-85540000D02*
G75*
G03*
X94109800Y-85780000I-40J-240000D01*
G01*
X111149527Y-85535000D02*
G75*
G02*
X110909527Y-85775027I-240027J0D01*
G01*
X97709840Y-85950000D02*
G75*
G02*
X97469840Y-86190040I-240040J0D01*
G01*
X100109840Y-85950000D02*
G75*
G02*
X99869840Y-86190040I-240040J0D01*
G01*
X111389527Y-85125000D02*
G75*
G03*
X111149500Y-85365000I-27J-240000D01*
G01*
X96749840Y-85540000D02*
G75*
G03*
X96509800Y-85780000I-40J-240000D01*
G01*
X113649527Y-85685000D02*
G75*
G02*
X113409527Y-85925027I-240027J0D01*
G01*
X101309840Y-85950000D02*
G75*
G02*
X101069840Y-86190040I-240040J0D01*
G01*
X99749840Y-86190000D02*
G75*
G02*
X99509800Y-85950000I-40J240000D01*
G01*
%TO.N,/ESP32-S31 MCU/SD_D3*%
X106140000Y-85700000D02*
X106140000Y-85520000D01*
X94217894Y-85275000D02*
X94182894Y-85240000D01*
X113716274Y-84875000D02*
X113596274Y-84875000D01*
X103500000Y-85280000D02*
X103380000Y-85280000D01*
X109416274Y-83965000D02*
X109296274Y-83965000D01*
X114316274Y-83965000D02*
X114196274Y-83965000D01*
X116492892Y-85900000D02*
X116218081Y-85900000D01*
X123930000Y-91840000D02*
X122980000Y-90890000D01*
X93190000Y-85240000D02*
X92150000Y-84200000D01*
X105540000Y-85520000D02*
X105540000Y-85700000D01*
X103140000Y-85520000D02*
X103140000Y-85700000D01*
X104940000Y-85700000D02*
X104940000Y-85520000D01*
X109056274Y-84205000D02*
X109056274Y-84635000D01*
X108816274Y-84875000D02*
X108696274Y-84875000D01*
X113956274Y-84205000D02*
X113956274Y-84635000D01*
X102780000Y-85940000D02*
X102768301Y-85940000D01*
X105300000Y-85940000D02*
X105180000Y-85940000D01*
X112396274Y-84875000D02*
X111746274Y-84875000D01*
X104700000Y-85280000D02*
X104580000Y-85280000D01*
X112756274Y-84205000D02*
X112756274Y-84635000D01*
X102115000Y-85275000D02*
X94217894Y-85275000D01*
X103740000Y-85700000D02*
X103740000Y-85520000D01*
X107445000Y-84875000D02*
X106525760Y-85794238D01*
X121320000Y-90890000D02*
X121220000Y-90790000D01*
X104100000Y-85940000D02*
X103980000Y-85940000D01*
X113116274Y-83965000D02*
X112996274Y-83965000D01*
X112516274Y-84875000D02*
X112396274Y-84875000D01*
X110546274Y-84875000D02*
X109896274Y-84875000D01*
X113356274Y-84635000D02*
X113356274Y-84205000D01*
X94182894Y-85240000D02*
X93190000Y-85240000D01*
X117620000Y-87027108D02*
X116492892Y-85900000D01*
X102768301Y-85928301D02*
X102115000Y-85275000D01*
X110666274Y-84875000D02*
X110546274Y-84875000D01*
X109656274Y-84635000D02*
X109656274Y-84205000D01*
X121220000Y-90790000D02*
X121108080Y-90790000D01*
X105900000Y-85280000D02*
X105780000Y-85280000D01*
X102768301Y-85940000D02*
X102768301Y-85928301D01*
X117620000Y-87301919D02*
X117620000Y-87027108D01*
X122980000Y-90890000D02*
X121320000Y-90890000D01*
X108696274Y-84875000D02*
X107445000Y-84875000D01*
X104340000Y-85520000D02*
X104340000Y-85700000D01*
X110906274Y-84205000D02*
X110906274Y-84635000D01*
X106525760Y-85794238D02*
X106380000Y-85940000D01*
X102900000Y-85940000D02*
X102780000Y-85940000D01*
X116218081Y-85900000D02*
X115193080Y-84875000D01*
X121108080Y-90790000D02*
X117620000Y-87301919D01*
X111506274Y-84635000D02*
X111506274Y-84205000D01*
X115193080Y-84875000D02*
X114796274Y-84875000D01*
X111266274Y-83965000D02*
X111146274Y-83965000D01*
X114556274Y-84635000D02*
X114556274Y-84205000D01*
X104340000Y-85700000D02*
G75*
G02*
X104100000Y-85940000I-240000J0D01*
G01*
X111506274Y-84205000D02*
G75*
G03*
X111266274Y-83965026I-239974J0D01*
G01*
X105540000Y-85700000D02*
G75*
G02*
X105300000Y-85940000I-240000J0D01*
G01*
X103140000Y-85700000D02*
G75*
G02*
X102900000Y-85940000I-240000J0D01*
G01*
X110906274Y-84635000D02*
G75*
G02*
X110666274Y-84874974I-239974J0D01*
G01*
X103380000Y-85280000D02*
G75*
G03*
X103140000Y-85520000I0J-240000D01*
G01*
X114796274Y-84875000D02*
G75*
G02*
X114556300Y-84635000I26J240000D01*
G01*
X109056274Y-84635000D02*
G75*
G02*
X108816274Y-84874974I-239974J0D01*
G01*
X113596274Y-84875000D02*
G75*
G02*
X113356300Y-84635000I26J240000D01*
G01*
X106140000Y-85520000D02*
G75*
G03*
X105900000Y-85280000I-240000J0D01*
G01*
X105180000Y-85940000D02*
G75*
G02*
X104940000Y-85700000I0J240000D01*
G01*
X104940000Y-85520000D02*
G75*
G03*
X104700000Y-85280000I-240000J0D01*
G01*
X112756274Y-84635000D02*
G75*
G02*
X112516274Y-84874974I-239974J0D01*
G01*
X114556274Y-84205000D02*
G75*
G03*
X114316274Y-83965026I-239974J0D01*
G01*
X103980000Y-85940000D02*
G75*
G02*
X103740000Y-85700000I0J240000D01*
G01*
X109896274Y-84875000D02*
G75*
G02*
X109656300Y-84635000I26J240000D01*
G01*
X111146274Y-83965000D02*
G75*
G03*
X110906300Y-84205000I26J-240000D01*
G01*
X106380000Y-85940000D02*
G75*
G02*
X106140000Y-85700000I0J240000D01*
G01*
X103740000Y-85520000D02*
G75*
G03*
X103500000Y-85280000I-240000J0D01*
G01*
X113956274Y-84635000D02*
G75*
G02*
X113716274Y-84874974I-239974J0D01*
G01*
X109296274Y-83965000D02*
G75*
G03*
X109056300Y-84205000I26J-240000D01*
G01*
X111746274Y-84875000D02*
G75*
G02*
X111506300Y-84635000I26J240000D01*
G01*
X105780000Y-85280000D02*
G75*
G03*
X105540000Y-85520000I0J-240000D01*
G01*
X114196274Y-83965000D02*
G75*
G03*
X113956300Y-84205000I26J-240000D01*
G01*
X113356274Y-84205000D02*
G75*
G03*
X113116274Y-83965026I-239974J0D01*
G01*
X104580000Y-85280000D02*
G75*
G03*
X104340000Y-85520000I0J-240000D01*
G01*
X112996274Y-83965000D02*
G75*
G03*
X112756300Y-84205000I26J-240000D01*
G01*
X109656274Y-84205000D02*
G75*
G03*
X109416274Y-83965026I-239974J0D01*
G01*
%TO.N,/ESP32-S31 MCU/SD_CMD*%
X123603613Y-87720041D02*
X123518760Y-87635188D01*
X116727157Y-84867157D02*
X116642305Y-84782305D01*
X120547581Y-86858223D02*
X120427581Y-86858223D01*
X124932979Y-90124209D02*
X125300674Y-89756513D01*
X123790997Y-89569126D02*
X123914741Y-89445383D01*
X125030000Y-90990000D02*
X125030000Y-90560642D01*
X125030000Y-90560642D02*
X124932979Y-90463621D01*
X124027877Y-88483717D02*
X123660181Y-88851412D01*
X124339007Y-89869649D02*
X124215262Y-89993391D01*
X116364099Y-84504099D02*
X115180000Y-83320000D01*
X106175000Y-84655000D02*
X106055000Y-84775000D01*
X117490834Y-85291422D02*
X117752463Y-85029792D01*
X118056519Y-86196518D02*
X117950454Y-86090454D01*
X122327581Y-87858223D02*
X121677581Y-87858223D01*
X119947581Y-87858223D02*
X119827581Y-87858223D01*
X122387389Y-87918031D02*
X122327581Y-87858223D01*
X94425000Y-84775000D02*
X93850000Y-84200000D01*
X124508713Y-89699944D02*
X124339007Y-89869650D01*
X117752463Y-84690381D02*
X117667610Y-84605528D01*
X118798983Y-86302585D02*
X118692916Y-86196518D01*
X123914741Y-89445383D02*
X124084446Y-89275677D01*
X119258603Y-87398603D02*
X118798983Y-86938983D01*
X117328198Y-84605528D02*
X117066568Y-84867157D01*
X120787581Y-87618223D02*
X120787581Y-87098223D01*
X125300674Y-89417102D02*
X125215821Y-89332249D01*
X123179348Y-87635188D02*
X122811652Y-88002883D01*
X121677581Y-87858223D02*
X121027581Y-87858223D01*
X124339007Y-89869650D02*
X124339007Y-89869649D01*
X117950454Y-86090454D02*
X117490834Y-85630834D01*
X123967774Y-89993391D02*
X123790997Y-89816614D01*
X115180000Y-83320000D02*
X106530000Y-83320000D01*
X124876409Y-89332249D02*
X124508713Y-89699944D01*
X123235918Y-88427148D02*
X123603613Y-88059452D01*
X106055000Y-84775000D02*
X94425000Y-84775000D01*
X116642305Y-84782305D02*
X116364099Y-84504099D01*
X120187581Y-87098223D02*
X120187581Y-87618223D01*
X122472241Y-88002883D02*
X122387389Y-87918031D01*
X106530000Y-83320000D02*
X106175000Y-83675000D01*
X119827581Y-87858223D02*
X119718223Y-87858223D01*
X124452142Y-88568570D02*
X124367289Y-88483717D01*
X119718223Y-87858223D02*
X119258603Y-87398603D01*
X106175000Y-83675000D02*
X106175000Y-84655000D01*
X123320770Y-88851412D02*
X123235918Y-88766560D01*
X124084446Y-89275677D02*
X124452142Y-88907981D01*
X123603613Y-88059452D02*
G75*
G03*
X123603660Y-87719995I-169713J169752D01*
G01*
X118692916Y-86196518D02*
G75*
G03*
X118374718Y-86196518I-159099J-159099D01*
G01*
X123660181Y-88851412D02*
G75*
G02*
X123320771Y-88851412I-169705J169703D01*
G01*
X122811652Y-88002883D02*
G75*
G02*
X122472240Y-88002884I-169706J169703D01*
G01*
X124932979Y-90463621D02*
G75*
G02*
X124932964Y-90124194I169721J169721D01*
G01*
X118798983Y-86938983D02*
G75*
G02*
X118798999Y-86620800I159117J159083D01*
G01*
X124452142Y-88907981D02*
G75*
G03*
X124452118Y-88568594I-169742J169681D01*
G01*
X118798983Y-86620784D02*
G75*
G03*
X118798968Y-86302601I-159083J159084D01*
G01*
X118374718Y-86196518D02*
G75*
G02*
X118056519Y-86196518I-159099J159100D01*
G01*
X125300674Y-89756513D02*
G75*
G03*
X125300682Y-89417094I-169674J169713D01*
G01*
X123235918Y-88766560D02*
G75*
G02*
X123235964Y-88427194I169682J169660D01*
G01*
X117490834Y-85630834D02*
G75*
G02*
X117490806Y-85291394I169666J169734D01*
G01*
X124367289Y-88483717D02*
G75*
G03*
X124027877Y-88483717I-169706J-169704D01*
G01*
X117066568Y-84867157D02*
G75*
G02*
X116727156Y-84867158I-169706J169703D01*
G01*
X117752463Y-85029792D02*
G75*
G03*
X117752450Y-84690395I-169663J169692D01*
G01*
X125215821Y-89332249D02*
G75*
G03*
X124876409Y-89332249I-169706J-169704D01*
G01*
X121027581Y-87858223D02*
G75*
G02*
X120787577Y-87618223I19J240023D01*
G01*
X123518760Y-87635188D02*
G75*
G03*
X123179348Y-87635188I-169706J-169704D01*
G01*
X123790997Y-89816614D02*
G75*
G02*
X123791027Y-89569156I123703J123714D01*
G01*
X120787581Y-87098223D02*
G75*
G03*
X120547581Y-86858219I-239981J23D01*
G01*
X124215262Y-89993391D02*
G75*
G02*
X123967774Y-89993391I-123744J123746D01*
G01*
X120427581Y-86858223D02*
G75*
G03*
X120187623Y-87098223I19J-239977D01*
G01*
X117667610Y-84605528D02*
G75*
G03*
X117328198Y-84605528I-169706J-169704D01*
G01*
X120187581Y-87618223D02*
G75*
G02*
X119947581Y-87858181I-239981J23D01*
G01*
%TO.N,Net-(J2-CLK)*%
X126307086Y-91655805D02*
X126222233Y-91740657D01*
X126222233Y-92080069D02*
X126236375Y-92094211D01*
X119646323Y-88606323D02*
X119561471Y-88521471D01*
X126090000Y-92580000D02*
X125610000Y-92580000D01*
X124602370Y-91572370D02*
X124531658Y-91643079D01*
X124390236Y-91643079D02*
X124107393Y-91360236D01*
X93580000Y-84880000D02*
X93475000Y-84775000D01*
X122161920Y-89685000D02*
X121846920Y-89370000D01*
X107445000Y-84305000D02*
X106870000Y-84880000D01*
X123824552Y-90794552D02*
X123476041Y-90446041D01*
X120546920Y-89370000D02*
X120410000Y-89370000D01*
X126660640Y-91669948D02*
X126646497Y-91655805D01*
X120410000Y-89030588D02*
X120777695Y-88662892D01*
X93475000Y-83625000D02*
X93505000Y-83625000D01*
X119561471Y-88521471D02*
X119559105Y-88519105D01*
X124107393Y-91077392D02*
X123824552Y-90794552D01*
X93475000Y-84775000D02*
X93475000Y-83625000D01*
X118635572Y-87595572D02*
X118635572Y-87365572D01*
X125610000Y-92580000D02*
X125150380Y-92120380D01*
X126151523Y-92518476D02*
X126090000Y-92580000D01*
X94321447Y-85025000D02*
X94176446Y-84880000D01*
X114880000Y-83610000D02*
X107445000Y-83610000D01*
X119559105Y-88519105D02*
X118635572Y-87595572D01*
X125150380Y-91625404D02*
X124973603Y-91448627D01*
X126236375Y-92433622D02*
X126151523Y-92518476D01*
X124726115Y-91448627D02*
X124602371Y-91572370D01*
X93505000Y-83625000D02*
X93930000Y-83200000D01*
X106158554Y-85025000D02*
X94321447Y-85025000D01*
X124602371Y-91572370D02*
X124602370Y-91572370D01*
X120353430Y-88238628D02*
X119985734Y-88606323D01*
X123476041Y-90446041D02*
X123476041Y-89685000D01*
X120777695Y-88323481D02*
X120692842Y-88238628D01*
X123476041Y-89685000D02*
X122161920Y-89685000D01*
X118635572Y-87365572D02*
X114880000Y-83610000D01*
X94176446Y-84880000D02*
X93580000Y-84880000D01*
X121846920Y-89370000D02*
X120546920Y-89370000D01*
X106303553Y-84880000D02*
X106158554Y-85025000D01*
X107445000Y-83610000D02*
X107445000Y-84305000D01*
X127230000Y-91440000D02*
X127000052Y-91669948D01*
X106870000Y-84880000D02*
X106303553Y-84880000D01*
X124107393Y-91218814D02*
G75*
G03*
X124107396Y-91077389I-70693J70714D01*
G01*
X126236375Y-92094211D02*
G75*
G02*
X126236359Y-92433605I-169675J-169689D01*
G01*
X127000052Y-91669948D02*
G75*
G02*
X126660640Y-91669948I-169706J169704D01*
G01*
X120410000Y-89370000D02*
G75*
G02*
X120410006Y-89030594I169700J169700D01*
G01*
X125150380Y-91872892D02*
G75*
G03*
X125150428Y-91625356I-123780J123792D01*
G01*
X124973603Y-91448627D02*
G75*
G03*
X124726115Y-91448627I-123744J-123746D01*
G01*
X125150380Y-92120380D02*
G75*
G02*
X125150344Y-91872856I123720J123780D01*
G01*
X120692842Y-88238628D02*
G75*
G03*
X120353430Y-88238628I-169706J-169704D01*
G01*
X124531658Y-91643079D02*
G75*
G02*
X124390236Y-91643079I-70711J70713D01*
G01*
X119985734Y-88606323D02*
G75*
G02*
X119646322Y-88606324I-169706J169703D01*
G01*
X126222233Y-91740657D02*
G75*
G03*
X126222196Y-92080106I169667J-169743D01*
G01*
X120777695Y-88662892D02*
G75*
G03*
X120777682Y-88323495I-169695J169692D01*
G01*
X124107393Y-91360236D02*
G75*
G02*
X124107368Y-91218789I70707J70736D01*
G01*
X126646497Y-91655805D02*
G75*
G03*
X126307085Y-91655804I-169706J-169703D01*
G01*
%TO.N,/ESP32-S31 MCU/SD_D0*%
X120010803Y-90760803D02*
X116870000Y-87620000D01*
X112665000Y-87785000D02*
X111905001Y-87785000D01*
X111905001Y-87785000D02*
X111845001Y-87845000D01*
X122572420Y-93315000D02*
X120018223Y-90760803D01*
X109363959Y-87375000D02*
X92775000Y-87375000D01*
X92775000Y-87375000D02*
X89600000Y-84200000D01*
X127555000Y-93315000D02*
X122572420Y-93315000D01*
X116870000Y-87337770D02*
X116182230Y-86650000D01*
X116182230Y-86650000D02*
X113800000Y-86650000D01*
X109833959Y-87845000D02*
X109363959Y-87375000D01*
X113800000Y-86650000D02*
X112665000Y-87785000D01*
X116870000Y-87620000D02*
X116870000Y-87337770D01*
X129430000Y-91440000D02*
X127555000Y-93315000D01*
X111845001Y-87845000D02*
X109833959Y-87845000D01*
X120018223Y-90760803D02*
X120010803Y-90760803D01*
%TO.N,/ESP32-S31 MCU/SD_D1*%
X92870000Y-86620000D02*
X90450000Y-84200000D01*
X108320000Y-86620000D02*
X92870000Y-86620000D01*
X117120000Y-87234216D02*
X116285784Y-86400000D01*
X115825973Y-86215000D02*
X108855000Y-86215000D01*
X129253959Y-91015000D02*
X127203959Y-93065000D01*
X127203959Y-93065000D02*
X123247892Y-93065000D01*
X108450000Y-86620000D02*
X108545000Y-86525000D01*
X123247892Y-93065000D02*
X121872892Y-91690000D01*
X116010973Y-86400000D02*
X115825973Y-86215000D01*
X121872892Y-91690000D02*
X121300973Y-91690000D01*
X121300973Y-91690000D02*
X117120000Y-87509025D01*
X117120000Y-87509025D02*
X117120000Y-87234216D01*
X116285784Y-86400000D02*
X116010973Y-86400000D01*
X108855000Y-86215000D02*
X108545000Y-86525000D01*
X130390000Y-91410000D02*
X129995000Y-91015000D01*
X108320000Y-86620000D02*
X108450000Y-86620000D01*
X129995000Y-91015000D02*
X129253959Y-91015000D01*
%TO.N,Net-(U2-GPIO61)*%
X107970000Y-104850000D02*
X89750000Y-104850000D01*
X85280000Y-106550000D02*
X84670000Y-106550000D01*
X85845000Y-106275000D02*
X85570000Y-106550000D01*
X89750000Y-104850000D02*
X88325000Y-106275000D01*
X85570000Y-106550000D02*
X85280000Y-106550000D01*
X84670000Y-106550000D02*
X83970000Y-107250000D01*
X88325000Y-106275000D02*
X85845000Y-106275000D01*
%TO.N,/ESP32-S31 MCU/POW_SCL*%
D56*
X107682842Y-82490000D02*
X107482842Y-82690000D01*
X94059588Y-82130000D02*
X93728216Y-82130000D01*
X119696700Y-82323343D02*
X119190043Y-82830000D01*
X107482842Y-82690000D02*
X104350000Y-82690000D01*
X94602842Y-82410000D02*
X94412842Y-82220000D01*
X120260000Y-81300000D02*
X119960000Y-81300000D01*
X102735686Y-81600000D02*
X101855686Y-81600000D01*
X103820000Y-82160000D02*
X103295686Y-82160000D01*
X101815686Y-81560000D02*
X100844314Y-81560000D01*
X104350000Y-82690000D02*
X103820000Y-82160000D01*
D53*
X121725920Y-110770000D02*
X116990000Y-110770000D01*
D56*
X94149588Y-82220000D02*
X94059588Y-82130000D01*
D53*
X86795000Y-95775000D02*
X87370000Y-96350000D01*
D56*
X93728216Y-82130000D02*
X93638216Y-82220000D01*
D53*
X87820000Y-96350000D02*
X88120000Y-96650000D01*
X87370000Y-96350000D02*
X87820000Y-96350000D01*
D56*
X95226792Y-82410000D02*
X94602842Y-82410000D01*
X93638216Y-82220000D02*
X86500000Y-82220000D01*
X94412842Y-82220000D02*
X94149588Y-82220000D01*
D53*
X86795000Y-95545000D02*
X86795000Y-95775000D01*
D56*
X103295686Y-82160000D02*
X102735686Y-81600000D01*
X119960000Y-81300000D02*
X119696700Y-81563300D01*
D53*
X85310000Y-93300000D02*
X85895000Y-93885000D01*
D56*
X86500000Y-82220000D02*
X85550000Y-83170000D01*
X100844314Y-81560000D02*
X100534314Y-81870000D01*
X83576596Y-83170000D02*
X83152129Y-83594467D01*
X101855686Y-81600000D02*
X101815686Y-81560000D01*
D53*
X85895000Y-93885000D02*
X85895000Y-94645000D01*
D56*
X95766792Y-81870000D02*
X95226792Y-82410000D01*
X85550000Y-83170000D02*
X83576596Y-83170000D01*
D53*
X116990000Y-110770000D02*
X113800000Y-107580000D01*
D56*
X115970000Y-82830000D02*
X115630000Y-82490000D01*
D53*
X83152129Y-83594467D02*
X83152129Y-83608170D01*
D56*
X119696700Y-81563300D02*
X119696700Y-82323343D01*
X100534314Y-81870000D02*
X95766792Y-81870000D01*
X115630000Y-82490000D02*
X107682842Y-82490000D01*
D53*
X85895000Y-94645000D02*
X86795000Y-95545000D01*
D56*
X119190043Y-82830000D02*
X115970000Y-82830000D01*
%TO.N,/ESP32-S31 MCU/POW_SDA*%
D53*
X89082688Y-87530000D02*
X89290000Y-87530000D01*
D56*
X100320000Y-81550000D02*
X99905686Y-81550000D01*
X99905686Y-81550000D02*
X99865686Y-81590000D01*
X119107200Y-82630000D02*
X117510000Y-82630000D01*
X119496700Y-81263300D02*
X119496700Y-82240500D01*
D53*
X120940000Y-110169997D02*
X121039623Y-110269620D01*
X86320000Y-93280000D02*
X86745000Y-93705000D01*
D56*
X92456556Y-81550000D02*
X91356556Y-80450000D01*
X107400000Y-82490000D02*
X104432842Y-82490000D01*
X116560000Y-81680000D02*
X108210000Y-81680000D01*
X117510000Y-82630000D02*
X116560000Y-81680000D01*
D53*
X86745000Y-93705000D02*
X86745000Y-94875000D01*
X120940000Y-105730000D02*
X120940000Y-110169997D01*
D56*
X103378528Y-81960000D02*
X102778528Y-81360000D01*
X99534314Y-81590000D02*
X99494314Y-81550000D01*
X103902842Y-81960000D02*
X103378528Y-81960000D01*
X104432842Y-82490000D02*
X103902842Y-81960000D01*
D53*
X121039623Y-110269620D02*
X121725920Y-110269620D01*
D56*
X102778528Y-81360000D02*
X100510000Y-81360000D01*
X108210000Y-81680000D02*
X107400000Y-82490000D01*
X91356556Y-80450000D02*
X83620000Y-80450000D01*
D53*
X86745000Y-94875000D02*
X87370000Y-95500000D01*
D56*
X119960000Y-80800000D02*
X119496700Y-81263300D01*
X100510000Y-81360000D02*
X100320000Y-81550000D01*
D53*
X89046535Y-87493847D02*
X89082688Y-87530000D01*
D56*
X99494314Y-81550000D02*
X92456556Y-81550000D01*
X99865686Y-81590000D02*
X99534314Y-81590000D01*
X120260000Y-80800000D02*
X119960000Y-80800000D01*
X119496700Y-82240500D02*
X119107200Y-82630000D01*
%TO.N,/ESP32-S31 MCU/USB_CC2*%
D53*
X91528229Y-94891771D02*
X88270729Y-94891771D01*
X106346041Y-90495000D02*
X105993959Y-90495000D01*
X105993959Y-90495000D02*
X105948959Y-90450000D01*
X107100000Y-91250000D02*
X106345520Y-90495520D01*
X95970000Y-90450000D02*
X91528229Y-94891771D01*
X106345520Y-90495520D02*
X106346041Y-90495000D01*
X105948959Y-90450000D02*
X95970000Y-90450000D01*
X107970000Y-91250000D02*
X107100000Y-91250000D01*
%TO.N,/ESP32-S31 MCU/USB_CC1*%
X100040000Y-91625000D02*
X99115000Y-90700000D01*
X109537148Y-91625000D02*
X100040000Y-91625000D01*
X109085000Y-90665000D02*
X109607148Y-90665000D01*
X107970000Y-89550000D02*
X109085000Y-90665000D01*
X90893554Y-95880000D02*
X88130000Y-95880000D01*
X109607148Y-90665000D02*
X109785000Y-90842852D01*
X96073554Y-90700000D02*
X90893554Y-95880000D01*
X109785000Y-90842852D02*
X109785000Y-91377148D01*
X99115000Y-90700000D02*
X96073554Y-90700000D01*
X109785000Y-91377148D02*
X109537148Y-91625000D01*
%TO.N,+3V3_IMU*%
D54*
X130230000Y-99650000D02*
X130720000Y-100140000D01*
X131030000Y-83400000D02*
X131050000Y-83380000D01*
X131030000Y-99830000D02*
X130720000Y-100140000D01*
X131030000Y-86082500D02*
X131030000Y-83400000D01*
X130230000Y-98412500D02*
X130230000Y-99650000D01*
X131030000Y-98412500D02*
X131030000Y-99830000D01*
D57*
X131030000Y-86082500D02*
X131030000Y-98412500D01*
%TO.N,Net-(U2-GPIO33)*%
D53*
X101010000Y-82860000D02*
X102350000Y-84200000D01*
X101010000Y-81960000D02*
X101010000Y-82860000D01*
%TO.N,Net-(U2-EN)*%
X86260000Y-102640000D02*
X85240000Y-103660000D01*
X84140000Y-103660000D02*
X83970000Y-103830000D01*
D55*
X86270000Y-102300000D02*
X86260000Y-102290000D01*
D53*
X86260000Y-102290000D02*
X86260000Y-102640000D01*
D55*
X87370000Y-102300000D02*
X86270000Y-102300000D01*
D53*
X85240000Y-103660000D02*
X84140000Y-103660000D01*
%TO.N,Net-(J3-Pad2)*%
X115330000Y-90800000D02*
X114630000Y-90800000D01*
X116270000Y-105730000D02*
X117220000Y-104780000D01*
X117220000Y-92690000D02*
X115330000Y-90800000D01*
X117220000Y-104780000D02*
X117220000Y-92690000D01*
%TO.N,/ESP32-S31 MCU/LCD_RN*%
D56*
X87370000Y-88700000D02*
X87920000Y-89250000D01*
X89890000Y-89250000D02*
X90490000Y-88650000D01*
X114562157Y-93232157D02*
X113231845Y-93232157D01*
X113231845Y-93232157D02*
X112824002Y-93640000D01*
X108949999Y-92570000D02*
X101350000Y-92570000D01*
X114630000Y-93300000D02*
X114562157Y-93232157D01*
X101350000Y-92570000D02*
X100980000Y-92200000D01*
X110570000Y-93640000D02*
X110160000Y-94050000D01*
X110160000Y-94050000D02*
X110160000Y-93780001D01*
X110160000Y-93780001D02*
X108949999Y-92570000D01*
X87920000Y-89250000D02*
X89890000Y-89250000D01*
X112824002Y-93640000D02*
X110570000Y-93640000D01*
%TO.N,/ESP32-S31 MCU/LCD_CSN*%
X113072157Y-94060000D02*
X113500000Y-93632157D01*
X113500000Y-93640000D02*
X113660000Y-93800000D01*
X113660000Y-93800000D02*
X114630000Y-93800000D01*
X111250000Y-94060000D02*
X113072157Y-94060000D01*
X113500000Y-93632157D02*
X113500000Y-93640000D01*
%TO.N,/ESP32-S31 MCU/LCD_SCLK*%
X105745686Y-93280000D02*
X101480000Y-93280000D01*
X89933847Y-87093847D02*
X88126153Y-87093847D01*
X101480000Y-93280000D02*
X101630000Y-93130000D01*
X108815000Y-94320000D02*
X109703208Y-94320000D01*
X113720000Y-94190000D02*
X113830000Y-94300000D01*
X112974314Y-94480000D02*
X113264314Y-94190000D01*
X108645000Y-94150000D02*
X106615686Y-94150000D01*
X88126153Y-87093847D02*
X87370000Y-87850000D01*
X114630000Y-94300000D02*
X113830000Y-94300000D01*
X109703208Y-94320000D02*
X109863208Y-94480000D01*
X109863208Y-94480000D02*
X112974314Y-94480000D01*
X90750000Y-87910000D02*
X89933847Y-87093847D01*
X106615686Y-94150000D02*
X105745686Y-93280000D01*
X108815000Y-94320000D02*
X108645000Y-94150000D01*
X113264314Y-94190000D02*
X113720000Y-94190000D01*
%TO.N,/ESP32-S31 MCU/LCD_DC*%
X113640000Y-94800000D02*
X114630000Y-94800000D01*
X113430000Y-94590000D02*
X113640000Y-94800000D01*
%TO.N,/ESP32-S31 MCU/LCD_SDA*%
X113480000Y-95320000D02*
X113960000Y-95800000D01*
X113960000Y-95800000D02*
X114630000Y-95800000D01*
%TO.N,/ESP32-S31 MCU/LCD_TE*%
X114630000Y-100300000D02*
X113480000Y-100300000D01*
X96640000Y-100970000D02*
X92870000Y-97200000D01*
X113480000Y-100300000D02*
X112810000Y-100970000D01*
X112810000Y-100970000D02*
X96640000Y-100970000D01*
X92870000Y-97200000D02*
X87370000Y-97200000D01*
%TO.N,/ESP32-S31 MCU/LCD_BACK*%
X114455000Y-106350000D02*
X114455000Y-106150000D01*
X113845772Y-106000000D02*
X113140000Y-105294228D01*
X114305000Y-106000000D02*
X113845772Y-106000000D01*
X114455000Y-106150000D02*
X114305000Y-106000000D01*
X113140000Y-103042808D02*
X113140000Y-105220000D01*
X113140000Y-103042808D02*
X112047192Y-101950000D01*
X97337158Y-101950000D02*
X96807158Y-101420000D01*
X87370000Y-98050000D02*
X93437158Y-98050000D01*
X112047192Y-101950000D02*
X97337158Y-101950000D01*
X93437158Y-98050000D02*
X96807158Y-101420000D01*
X113140000Y-105294228D02*
X113140000Y-105220000D01*
%TO.N,/ESP32-S31 MCU/PWR_KILL_N*%
X83600000Y-88210000D02*
X83600000Y-90325686D01*
X83650000Y-88160000D02*
X83840000Y-88160000D01*
X87920000Y-93450000D02*
X87920000Y-94100000D01*
X83650000Y-88160000D02*
X85576000Y-86234000D01*
X87920000Y-94100000D02*
X87370000Y-94650000D01*
X85576000Y-86234000D02*
X85576000Y-85544001D01*
X83650000Y-88160000D02*
X83600000Y-88210000D01*
X83600000Y-90325686D02*
X86154314Y-92880000D01*
X87005686Y-93400000D02*
X87870000Y-93400000D01*
X85576000Y-85544001D02*
X85980000Y-85140001D01*
X86485686Y-92880000D02*
X87005686Y-93400000D01*
X86154314Y-92880000D02*
X86485686Y-92880000D01*
X87870000Y-93400000D02*
X87920000Y-93450000D01*
%TO.N,/ESP32-S31 MCU/IMU_RESET_N*%
D54*
X129430000Y-86082500D02*
X129430000Y-84620000D01*
X129430000Y-84620000D02*
X129160000Y-84350000D01*
%TO.N,/ESP32-S31 MCU/IMU_SCLK*%
D53*
X88355000Y-92125000D02*
X88245000Y-92125000D01*
X88245000Y-92125000D02*
X87370000Y-91250000D01*
%TO.N,/ESP32-S31 MCU/SD_CLK*%
X93000000Y-84200000D02*
X93000000Y-83290000D01*
X93000000Y-83290000D02*
X92910000Y-83200000D01*
%TO.N,/ESP32-S31 MCU/PWR_INT_N*%
D56*
X93893902Y-82530000D02*
X90087157Y-82530000D01*
X89147157Y-83470000D02*
X87100000Y-83470000D01*
X90087157Y-82530000D02*
X89147157Y-83470000D01*
X87100000Y-83470000D02*
X86530000Y-84040000D01*
X94440000Y-82530000D02*
X93893902Y-82530000D01*
X86530000Y-84040000D02*
X86530000Y-85449601D01*
X86189601Y-85790000D02*
X86107800Y-85790000D01*
X93893902Y-82530000D02*
X93893902Y-82426098D01*
X86530000Y-85449601D02*
X86189601Y-85790000D01*
X94920000Y-83010000D02*
X94440000Y-82530000D01*
%TO.N,/ESP32-S31 MCU/LED_EN*%
X108600000Y-87000000D02*
X107970000Y-87000000D01*
X123440000Y-82800000D02*
X123500000Y-82860000D01*
X123060000Y-82800000D02*
X123440000Y-82800000D01*
X108830002Y-86769998D02*
X108600000Y-87000000D01*
X108930000Y-86769998D02*
X108830002Y-86769998D01*
%TO.N,Net-(U2-UART0_TXD{slash}GPIO58)*%
D53*
X107970000Y-102300000D02*
X112395000Y-106725000D01*
X116295000Y-106725000D02*
X119960000Y-103060000D01*
X112395000Y-106725000D02*
X116295000Y-106725000D01*
X119960000Y-103060000D02*
X121350000Y-103060000D01*
%TO.N,Net-(U2-UART0_RXD{slash}GPIO59)*%
X111910000Y-107090000D02*
X118082148Y-107090000D01*
X122505000Y-98595000D02*
X121830000Y-97920000D01*
X107970000Y-103150000D02*
X111910000Y-107090000D01*
X118082148Y-107090000D02*
X122505000Y-102667148D01*
X122505000Y-102667148D02*
X122505000Y-98595000D01*
%TO.N,Net-(U4-SW)*%
D57*
X120260000Y-83300000D02*
X120260000Y-84880000D01*
X120260000Y-84880000D02*
X120580000Y-85200000D01*
%TO.N,Net-(U4-VOUT)*%
D54*
X120260000Y-82800000D02*
X119600000Y-82800000D01*
X119600000Y-82800000D02*
X118530000Y-83870000D01*
%TO.N,Net-(D32-B_K)*%
D56*
X130226398Y-80120000D02*
X134807202Y-80120000D01*
X129406400Y-80939998D02*
X130226398Y-80120000D01*
X123060000Y-80800000D02*
X122390000Y-80130000D01*
X135286700Y-81900499D02*
X135007199Y-82180000D01*
X119609998Y-80130000D02*
X118880000Y-80859998D01*
X135007199Y-82180000D02*
X134870000Y-82180000D01*
X128836399Y-81509999D02*
X129406400Y-80939998D01*
X129406400Y-82180000D02*
X129406400Y-80939998D01*
X134807202Y-80120000D02*
X135286700Y-80599498D01*
X122390000Y-80130000D02*
X119609998Y-80130000D01*
X125300000Y-81509999D02*
X128836399Y-81509999D01*
X135286700Y-80599498D02*
X135286700Y-81900499D01*
%TO.N,Net-(D32-R_K)*%
X125102800Y-82690000D02*
X129780000Y-82690000D01*
X130610500Y-80599498D02*
X130270000Y-80939998D01*
X129780000Y-82690000D02*
X129830000Y-82640000D01*
X122560000Y-81120000D02*
X122560000Y-80690000D01*
X124436400Y-80889998D02*
X124436400Y-82023600D01*
X134423100Y-80599498D02*
X130610500Y-80599498D01*
X129830000Y-81242799D02*
X130132801Y-80939998D01*
X134423100Y-81250298D02*
X134423100Y-80599498D01*
X134732801Y-81559999D02*
X134423100Y-81250298D01*
X129830000Y-82640000D02*
X129830000Y-81242799D01*
X119017199Y-82100000D02*
X118880000Y-82100000D01*
X119296700Y-81820499D02*
X119017199Y-82100000D01*
X119930000Y-80330000D02*
X119296700Y-80963300D01*
X123060000Y-81300000D02*
X122740000Y-81300000D01*
X122200000Y-80330000D02*
X119930000Y-80330000D01*
X130132801Y-80939998D02*
X130270000Y-80939998D01*
X124436400Y-81509999D02*
X124226401Y-81300000D01*
X134870000Y-81559999D02*
X134732801Y-81559999D01*
X124226401Y-81300000D02*
X123060000Y-81300000D01*
X122560000Y-80690000D02*
X122200000Y-80330000D01*
X122740000Y-81300000D02*
X122560000Y-81120000D01*
X124436400Y-82023600D02*
X125102800Y-82690000D01*
X119296700Y-80963300D02*
X119296700Y-81820499D01*
%TO.N,Net-(D32-G_K)*%
X134006400Y-82073600D02*
X134453300Y-82520500D01*
X125300000Y-80889998D02*
X124435002Y-80025000D01*
X123750000Y-81750000D02*
X123770000Y-81750000D01*
X123770000Y-81750000D02*
X123780000Y-81740000D01*
X123060000Y-81800000D02*
X123700000Y-81800000D01*
X118463300Y-81200498D02*
X118463300Y-80519498D01*
X134006400Y-80939998D02*
X134006400Y-82073600D01*
X123670000Y-80290000D02*
X123670000Y-80025000D01*
X126269998Y-79920000D02*
X125300000Y-80889998D01*
X119092798Y-79890000D02*
X123535000Y-79890000D01*
X123780000Y-80400000D02*
X123670000Y-80290000D01*
X135286700Y-82520500D02*
X135486700Y-82320500D01*
X135486700Y-82320500D02*
X135486700Y-80516655D01*
X134890044Y-79920000D02*
X126269998Y-79920000D01*
X130270000Y-82180000D02*
X134006400Y-82180000D01*
X118880000Y-81479999D02*
X118742801Y-81479999D01*
X123535000Y-79890000D02*
X123670000Y-80025000D01*
X123700000Y-81800000D02*
X123750000Y-81750000D01*
X134453300Y-82520500D02*
X135286700Y-82520500D01*
X118463300Y-80519498D02*
X119092798Y-79890000D01*
X118742801Y-81479999D02*
X118463300Y-81200498D01*
X123780000Y-81740000D02*
X123780000Y-81700000D01*
X135486700Y-80516655D02*
X134890044Y-79920000D01*
X123670000Y-80025000D02*
X124435002Y-80025000D01*
X123780000Y-80900000D02*
X123780000Y-80400000D01*
%TO.N,Net-(D32-B_A)*%
X118016400Y-82100000D02*
X118016400Y-80859998D01*
%TO.N,Net-(R18-Pad2)*%
D53*
X121350000Y-100980000D02*
X121830000Y-100500000D01*
X121350000Y-102040000D02*
X121350000Y-100980000D01*
%TO.N,Net-(U5-P3{slash}INT)*%
X122172960Y-110538860D02*
X122172960Y-110945820D01*
X122172960Y-110945820D02*
X122527140Y-111300000D01*
X127510000Y-111300000D02*
X131000000Y-107810000D01*
X122527140Y-111300000D02*
X127510000Y-111300000D01*
X131000000Y-107810000D02*
X131000000Y-106640000D01*
%TO.N,Net-(Q1-D)*%
D56*
X114310000Y-105730000D02*
X114230000Y-105650000D01*
X115250000Y-105730000D02*
X114310000Y-105730000D01*
%TO.N,Net-(U3-VREGA)*%
D53*
X132630000Y-86082500D02*
X132630000Y-84435000D01*
X132630000Y-84435000D02*
X133025000Y-84040000D01*
X133430000Y-84445000D02*
X133025000Y-84040000D01*
X133430000Y-86082500D02*
X133430000Y-84445000D01*
%TO.N,Net-(U3-VREGD)*%
X132630000Y-98412500D02*
X132630000Y-99750000D01*
X132630000Y-99750000D02*
X132980000Y-100100000D01*
X133430000Y-98412500D02*
X133430000Y-99650000D01*
X133430000Y-99650000D02*
X132980000Y-100100000D01*
%TO.N,Net-(U5-P1)*%
X122172960Y-110000380D02*
X122172960Y-107927040D01*
X122172960Y-107927040D02*
X123240000Y-106860000D01*
%TO.N,Net-(U7-PB_IN{slash}\u002APB_IN)*%
D56*
X84256000Y-85919686D02*
X83955686Y-86220000D01*
X84660000Y-85140001D02*
X84578199Y-85140001D01*
X84256000Y-85462200D02*
X84256000Y-85919686D01*
X84578199Y-85140001D02*
X84256000Y-85462200D01*
X83955686Y-86220000D02*
X83516502Y-86220000D01*
X83516502Y-86220000D02*
X83484002Y-86187500D01*
X81897500Y-86187500D02*
X81590000Y-85880000D01*
X83484002Y-86187500D02*
X81897500Y-86187500D01*
%TO.N,Net-(U5-P0)*%
D53*
X122620000Y-109769240D02*
X122620000Y-109240000D01*
X127160000Y-104700000D02*
X127160000Y-103950000D01*
X122620000Y-109240000D02*
X127160000Y-104700000D01*
%TO.N,Net-(U5-P2)*%
X125970380Y-110269620D02*
X127150000Y-109090000D01*
X122620000Y-110269620D02*
X125970380Y-110269620D01*
%TD*%
%TA.AperFunction,Conductor*%
%TO.N,GND*%
G36*
X89809722Y-82375345D02*
G01*
X89820122Y-82378724D01*
X89841884Y-82394534D01*
X89864815Y-82408588D01*
X89866358Y-82412315D01*
X89869623Y-82414687D01*
X89877935Y-82440268D01*
X89888226Y-82465117D01*
X89887283Y-82469040D01*
X89888531Y-82472878D01*
X89873940Y-82524611D01*
X89870932Y-82529519D01*
X89856526Y-82547791D01*
X89234400Y-83169915D01*
X89209344Y-83188119D01*
X89187582Y-83199208D01*
X89142635Y-83210000D01*
X85977528Y-83210000D01*
X85946934Y-83205154D01*
X85936532Y-83201774D01*
X85887032Y-83165809D01*
X85868126Y-83107618D01*
X85882709Y-83055902D01*
X85885720Y-83050989D01*
X85900122Y-83032717D01*
X86522260Y-82410579D01*
X86547312Y-82392378D01*
X86569079Y-82381288D01*
X86614020Y-82370500D01*
X89779131Y-82370500D01*
X89809722Y-82375345D01*
G37*
%TD.AperFunction*%
%TA.AperFunction,Conductor*%
G36*
X92545826Y-82685342D02*
G01*
X92552968Y-82687663D01*
X92552971Y-82687663D01*
X92556227Y-82688721D01*
X92605729Y-82724681D01*
X92624641Y-82782871D01*
X92610053Y-82834604D01*
X92588299Y-82870105D01*
X92588195Y-82870041D01*
X92586249Y-82873596D01*
X92553165Y-82923108D01*
X92553164Y-82923111D01*
X92553164Y-82923113D01*
X92553162Y-82923119D01*
X92539500Y-82991797D01*
X92539500Y-83095319D01*
X92534654Y-83125909D01*
X92534654Y-83125912D01*
X92530532Y-83138598D01*
X92494580Y-83188089D01*
X92490459Y-83191084D01*
X92432271Y-83210000D01*
X91475487Y-83210000D01*
X91444890Y-83205153D01*
X91430172Y-83200370D01*
X91383026Y-83167511D01*
X91375304Y-83157716D01*
X91367320Y-83145934D01*
X91320472Y-83064792D01*
X91320470Y-83064790D01*
X91320469Y-83064788D01*
X91255212Y-82999531D01*
X91254997Y-82999407D01*
X91186576Y-82959903D01*
X91181360Y-82955901D01*
X91169215Y-82950870D01*
X91162701Y-82950013D01*
X91112022Y-82936434D01*
X91086144Y-82929500D01*
X91086143Y-82929500D01*
X90993857Y-82929500D01*
X90993856Y-82929500D01*
X90967978Y-82936434D01*
X90906136Y-82953004D01*
X90904799Y-82953340D01*
X90904739Y-82953370D01*
X90904711Y-82953386D01*
X90824794Y-82999525D01*
X90759528Y-83064791D01*
X90759527Y-83064793D01*
X90758588Y-83066420D01*
X90739092Y-83090495D01*
X90724990Y-83103192D01*
X90679349Y-83126452D01*
X90677623Y-83126819D01*
X90675204Y-83127333D01*
X90669390Y-83127944D01*
X90669094Y-83128077D01*
X90668776Y-83128009D01*
X90654607Y-83129500D01*
X89955184Y-83129500D01*
X89924590Y-83124654D01*
X89914188Y-83121274D01*
X89892434Y-83105468D01*
X89869496Y-83091409D01*
X89867951Y-83087680D01*
X89864688Y-83085309D01*
X89856378Y-83059733D01*
X89846086Y-83034879D01*
X89847028Y-83030954D01*
X89845782Y-83027118D01*
X89860373Y-82975389D01*
X89863385Y-82970473D01*
X89877781Y-82952215D01*
X90109413Y-82720582D01*
X90134470Y-82702378D01*
X90148386Y-82695288D01*
X90156235Y-82691289D01*
X90201177Y-82680500D01*
X92515242Y-82680500D01*
X92545826Y-82685342D01*
G37*
%TD.AperFunction*%
%TA.AperFunction,Conductor*%
G36*
X99529720Y-82025343D02*
G01*
X99540123Y-82028723D01*
X99589623Y-82064685D01*
X99608533Y-82122875D01*
X99593950Y-82174597D01*
X99590948Y-82179497D01*
X99576536Y-82197781D01*
X99550472Y-82223846D01*
X99550472Y-82223847D01*
X99519525Y-82254794D01*
X99473392Y-82334698D01*
X99473370Y-82334739D01*
X99473341Y-82334798D01*
X99473009Y-82336118D01*
X99449500Y-82423856D01*
X99449500Y-82516144D01*
X99451769Y-82524611D01*
X99473384Y-82605284D01*
X99473385Y-82605286D01*
X99473386Y-82605288D01*
X99473387Y-82605290D01*
X99518748Y-82683857D01*
X99518758Y-82683874D01*
X99518757Y-82683874D01*
X99519528Y-82685208D01*
X99519529Y-82685209D01*
X99519531Y-82685212D01*
X99575993Y-82741674D01*
X99594196Y-82766729D01*
X99599782Y-82777692D01*
X99609354Y-82838124D01*
X99583386Y-82890784D01*
X99573743Y-82900946D01*
X99570409Y-82903859D01*
X99570435Y-82903885D01*
X99564793Y-82909527D01*
X99564791Y-82909528D01*
X99534306Y-82940013D01*
X99499526Y-82974793D01*
X99499525Y-82974794D01*
X99453392Y-83054698D01*
X99453370Y-83054739D01*
X99453340Y-83054799D01*
X99453006Y-83056127D01*
X99435494Y-83121480D01*
X99422895Y-83149777D01*
X99415631Y-83160962D01*
X99403445Y-83170830D01*
X99402170Y-83172794D01*
X99399984Y-83173632D01*
X99368087Y-83199463D01*
X99357771Y-83203423D01*
X99322292Y-83210000D01*
X98875180Y-83210000D01*
X98844587Y-83205154D01*
X98831901Y-83201032D01*
X98782401Y-83165068D01*
X98782400Y-83165066D01*
X98782394Y-83165058D01*
X98779400Y-83160936D01*
X98760500Y-83102756D01*
X98760500Y-83033857D01*
X98760499Y-83033854D01*
X98760193Y-83032713D01*
X98758664Y-83027004D01*
X98736614Y-82944712D01*
X98690469Y-82864788D01*
X98625212Y-82799531D01*
X98614184Y-82793164D01*
X98614181Y-82793162D01*
X98556576Y-82759902D01*
X98551362Y-82755901D01*
X98539215Y-82750870D01*
X98532701Y-82750013D01*
X98478999Y-82735624D01*
X98456144Y-82729500D01*
X98456143Y-82729500D01*
X98363857Y-82729500D01*
X98363856Y-82729500D01*
X98358374Y-82730969D01*
X98315547Y-82742443D01*
X98315548Y-82742444D01*
X98274707Y-82753387D01*
X98274705Y-82753388D01*
X98274700Y-82753390D01*
X98249197Y-82768115D01*
X98220283Y-82779215D01*
X98208250Y-82781773D01*
X98147399Y-82775379D01*
X98103253Y-82736665D01*
X98097991Y-82728078D01*
X98086778Y-82701977D01*
X98074114Y-82654712D01*
X98071979Y-82651015D01*
X98045580Y-82605290D01*
X98027969Y-82574788D01*
X97962712Y-82509531D01*
X97955742Y-82505507D01*
X97955739Y-82505505D01*
X97894076Y-82469902D01*
X97888862Y-82465901D01*
X97876715Y-82460870D01*
X97870201Y-82460013D01*
X97827813Y-82448655D01*
X97793644Y-82439500D01*
X97793643Y-82439500D01*
X97701357Y-82439500D01*
X97701356Y-82439500D01*
X97668219Y-82448378D01*
X97613636Y-82463004D01*
X97612299Y-82463340D01*
X97612239Y-82463370D01*
X97612211Y-82463386D01*
X97532294Y-82509525D01*
X97467025Y-82574794D01*
X97420892Y-82654698D01*
X97420870Y-82654739D01*
X97420840Y-82654799D01*
X97420504Y-82656136D01*
X97408411Y-82701269D01*
X97397000Y-82743856D01*
X97397000Y-82836144D01*
X97398167Y-82840499D01*
X97420885Y-82925286D01*
X97420888Y-82925293D01*
X97443981Y-82965290D01*
X97459289Y-82991804D01*
X97462648Y-82997621D01*
X97467031Y-83005212D01*
X97491731Y-83029913D01*
X97509937Y-83054972D01*
X97514900Y-83064713D01*
X97524470Y-83125145D01*
X97496691Y-83179661D01*
X97449812Y-83205918D01*
X97444217Y-83207262D01*
X97421094Y-83210000D01*
X97268433Y-83210000D01*
X97237840Y-83205154D01*
X97225160Y-83201033D01*
X97225157Y-83201033D01*
X97225156Y-83201033D01*
X97222643Y-83199208D01*
X97175656Y-83165071D01*
X97169161Y-83156132D01*
X97164071Y-83145455D01*
X97163131Y-83145999D01*
X97142400Y-83110092D01*
X97142400Y-83110093D01*
X97110469Y-83054788D01*
X97045212Y-82989531D01*
X97038888Y-82985880D01*
X97021551Y-82975870D01*
X96976576Y-82949902D01*
X96971362Y-82945901D01*
X96959215Y-82940870D01*
X96952701Y-82940013D01*
X96905258Y-82927301D01*
X96876144Y-82919500D01*
X96876143Y-82919500D01*
X96783857Y-82919500D01*
X96783856Y-82919500D01*
X96780124Y-82920500D01*
X96739283Y-82931442D01*
X96739284Y-82931443D01*
X96694709Y-82943386D01*
X96694705Y-82943388D01*
X96667996Y-82958809D01*
X96639076Y-82969910D01*
X96628380Y-82972183D01*
X96567530Y-82965784D01*
X96522062Y-82924841D01*
X96508835Y-82872746D01*
X96508847Y-82872317D01*
X96508986Y-82866994D01*
X96512324Y-82843978D01*
X96530500Y-82776144D01*
X96530500Y-82683856D01*
X96506614Y-82594712D01*
X96460469Y-82514788D01*
X96395212Y-82449531D01*
X96395209Y-82449529D01*
X96395207Y-82449527D01*
X96377840Y-82439501D01*
X96377838Y-82439500D01*
X96334862Y-82414687D01*
X96326575Y-82409902D01*
X96326572Y-82409899D01*
X96321362Y-82405901D01*
X96309215Y-82400870D01*
X96302701Y-82400013D01*
X96260313Y-82388655D01*
X96226144Y-82379500D01*
X96226143Y-82379500D01*
X96133857Y-82379500D01*
X96133856Y-82379500D01*
X96100719Y-82388378D01*
X96046136Y-82403004D01*
X96044799Y-82403340D01*
X96044739Y-82403370D01*
X96044711Y-82403386D01*
X95964794Y-82449525D01*
X95899525Y-82514794D01*
X95853392Y-82594698D01*
X95853370Y-82594739D01*
X95853340Y-82594799D01*
X95853004Y-82596136D01*
X95829500Y-82683856D01*
X95829500Y-82776144D01*
X95831567Y-82783858D01*
X95833140Y-82789728D01*
X95836378Y-82820534D01*
X95835734Y-82832822D01*
X95830115Y-82847458D01*
X95829939Y-82850829D01*
X95827814Y-82853452D01*
X95813807Y-82889944D01*
X95764991Y-82922562D01*
X95755332Y-82925423D01*
X95727219Y-82929500D01*
X95643856Y-82929500D01*
X95636724Y-82931410D01*
X95602974Y-82940453D01*
X95602975Y-82940454D01*
X95554706Y-82953387D01*
X95502580Y-82983484D01*
X95473656Y-82994586D01*
X95462512Y-82996954D01*
X95401662Y-82990554D01*
X95356197Y-82949613D01*
X95353760Y-82945392D01*
X95340500Y-82895898D01*
X95340500Y-82851803D01*
X95331415Y-82806131D01*
X95331415Y-82806130D01*
X95328835Y-82793162D01*
X95326836Y-82783112D01*
X95326834Y-82783110D01*
X95326834Y-82783108D01*
X95272141Y-82701256D01*
X95266250Y-82691207D01*
X95259643Y-82678239D01*
X95250074Y-82617809D01*
X95252711Y-82612633D01*
X95277849Y-82563296D01*
X95283635Y-82557510D01*
X95304369Y-82543660D01*
X95303933Y-82543007D01*
X95312040Y-82537589D01*
X95312044Y-82537588D01*
X95789048Y-82060581D01*
X95814106Y-82042376D01*
X95835873Y-82031287D01*
X95880812Y-82020500D01*
X99499132Y-82020500D01*
X99529720Y-82025343D01*
G37*
%TD.AperFunction*%
%TA.AperFunction,Conductor*%
G36*
X103858470Y-82420919D02*
G01*
X103865452Y-82424592D01*
X103889363Y-82442204D01*
X104101859Y-82654698D01*
X104171949Y-82724788D01*
X104264748Y-82817587D01*
X104280939Y-82824292D01*
X104280948Y-82824300D01*
X104280950Y-82824297D01*
X104281530Y-82824537D01*
X104290124Y-82832371D01*
X104305326Y-82834395D01*
X104320060Y-82840499D01*
X104320063Y-82840499D01*
X104320064Y-82840500D01*
X104320065Y-82840500D01*
X107512777Y-82840500D01*
X107512778Y-82840500D01*
X107539259Y-82829531D01*
X107568094Y-82817588D01*
X107705099Y-82680580D01*
X107730153Y-82662378D01*
X107748005Y-82653282D01*
X107751920Y-82651288D01*
X107796861Y-82640500D01*
X115510973Y-82640500D01*
X115541564Y-82645345D01*
X115549182Y-82647820D01*
X115564790Y-82652891D01*
X115604202Y-82677042D01*
X115884748Y-82957587D01*
X115884750Y-82957589D01*
X115897479Y-82962860D01*
X115904129Y-82965614D01*
X115910289Y-82969286D01*
X115912373Y-82971666D01*
X115923971Y-82978684D01*
X115924644Y-82979245D01*
X115930266Y-82979771D01*
X115930500Y-82978597D01*
X115940061Y-82980498D01*
X115940064Y-82980500D01*
X115940067Y-82980500D01*
X116604813Y-82980500D01*
X116635400Y-82985343D01*
X116642539Y-82987663D01*
X116642541Y-82987663D01*
X116645803Y-82988723D01*
X116695304Y-83024685D01*
X116714214Y-83082875D01*
X116699622Y-83134612D01*
X116696617Y-83139515D01*
X116682213Y-83157786D01*
X116670082Y-83169917D01*
X116645025Y-83188121D01*
X116623267Y-83199208D01*
X116578320Y-83210000D01*
X115374882Y-83210000D01*
X115344289Y-83205154D01*
X115321062Y-83197607D01*
X115281653Y-83173458D01*
X115279413Y-83171218D01*
X115279411Y-83171217D01*
X115279410Y-83171216D01*
X115279407Y-83171214D01*
X115214913Y-83144500D01*
X115214911Y-83144500D01*
X115214909Y-83144500D01*
X106564909Y-83144500D01*
X106495091Y-83144500D01*
X106495089Y-83144500D01*
X106495088Y-83144500D01*
X106430589Y-83171216D01*
X106430574Y-83171223D01*
X106413623Y-83179698D01*
X106401559Y-83190808D01*
X106385069Y-83199210D01*
X106340124Y-83210000D01*
X103855180Y-83210000D01*
X103824587Y-83205154D01*
X103811901Y-83201032D01*
X103762401Y-83165068D01*
X103762394Y-83165058D01*
X103759400Y-83160936D01*
X103742881Y-83110087D01*
X103741347Y-83110290D01*
X103740500Y-83103859D01*
X103740500Y-83103857D01*
X103740032Y-83102110D01*
X103740032Y-83102102D01*
X103740030Y-83102103D01*
X103716614Y-83014712D01*
X103670469Y-82934788D01*
X103656681Y-82921000D01*
X103638481Y-82895948D01*
X103632423Y-82884058D01*
X103631311Y-82877035D01*
X103622854Y-82823642D01*
X103623894Y-82817073D01*
X103635939Y-82783057D01*
X103640467Y-82775212D01*
X103640469Y-82775212D01*
X103686614Y-82695288D01*
X103710500Y-82606144D01*
X103710500Y-82524080D01*
X103712153Y-82506063D01*
X103715034Y-82490508D01*
X103744217Y-82436736D01*
X103799437Y-82410384D01*
X103858470Y-82420919D01*
G37*
%TD.AperFunction*%
%TA.AperFunction,Conductor*%
G36*
X91268119Y-80605345D02*
G01*
X91280456Y-80609353D01*
X91291345Y-80612891D01*
X91330758Y-80637042D01*
X92371304Y-81677588D01*
X92371306Y-81677589D01*
X92371305Y-81677589D01*
X92390568Y-81685567D01*
X92390574Y-81685570D01*
X92426618Y-81700500D01*
X92426619Y-81700500D01*
X92426620Y-81700500D01*
X94389306Y-81700500D01*
X94419894Y-81705343D01*
X94432581Y-81709466D01*
X94482081Y-81745427D01*
X94482090Y-81745439D01*
X94483797Y-81747789D01*
X94502698Y-81805981D01*
X94500797Y-81825277D01*
X94499501Y-81831792D01*
X94499500Y-81831807D01*
X94499500Y-81955986D01*
X94493820Y-81989034D01*
X94489753Y-82000518D01*
X94454636Y-82047549D01*
X94450457Y-82050586D01*
X94392268Y-82069500D01*
X94268614Y-82069500D01*
X94238020Y-82064654D01*
X94214794Y-82057107D01*
X94175383Y-82032956D01*
X94163614Y-82021187D01*
X94144840Y-82002412D01*
X94112436Y-81988990D01*
X94112434Y-81988989D01*
X94089527Y-81979500D01*
X94089525Y-81979500D01*
X94089524Y-81979500D01*
X93698280Y-81979500D01*
X93698279Y-81979500D01*
X93642963Y-82002411D01*
X93615958Y-82029417D01*
X93590901Y-82047621D01*
X93569143Y-82058708D01*
X93524196Y-82069500D01*
X86470064Y-82069500D01*
X86447151Y-82078990D01*
X86447149Y-82078991D01*
X86447148Y-82078990D01*
X86417314Y-82091349D01*
X86414748Y-82092412D01*
X86414747Y-82092413D01*
X86403464Y-82103695D01*
X86403462Y-82103697D01*
X85527742Y-82979417D01*
X85502685Y-82997621D01*
X85480927Y-83008708D01*
X85435980Y-83019500D01*
X83844680Y-83019500D01*
X83814087Y-83014654D01*
X83801401Y-83010532D01*
X83751901Y-82974568D01*
X83751894Y-82974558D01*
X83748900Y-82970436D01*
X83730000Y-82912256D01*
X83730000Y-80864051D01*
X83734844Y-80833462D01*
X83740709Y-80815409D01*
X83768616Y-80772433D01*
X83771766Y-80769596D01*
X83788502Y-80757436D01*
X83835212Y-80730469D01*
X83900469Y-80665212D01*
X83901409Y-80663582D01*
X83920904Y-80639508D01*
X83935009Y-80626808D01*
X83980669Y-80603543D01*
X83984820Y-80602661D01*
X83990609Y-80602053D01*
X83990904Y-80601922D01*
X83991219Y-80601989D01*
X84005393Y-80600500D01*
X91237528Y-80600500D01*
X91268119Y-80605345D01*
G37*
%TD.AperFunction*%
%TA.AperFunction,Conductor*%
G36*
X116471563Y-81835345D02*
G01*
X116483900Y-81839353D01*
X116494789Y-81842891D01*
X116534202Y-81867042D01*
X116809917Y-82142757D01*
X116828122Y-82167815D01*
X116839209Y-82189574D01*
X116850000Y-82234520D01*
X116850000Y-82564819D01*
X116845154Y-82595412D01*
X116841032Y-82608098D01*
X116805080Y-82657589D01*
X116800959Y-82660584D01*
X116742771Y-82679500D01*
X116089026Y-82679500D01*
X116058433Y-82674654D01*
X116035206Y-82667107D01*
X115995795Y-82642956D01*
X115715255Y-82362413D01*
X115677649Y-82346837D01*
X115673728Y-82345213D01*
X115673723Y-82345211D01*
X115659938Y-82339501D01*
X115659936Y-82339500D01*
X115659934Y-82339500D01*
X115659933Y-82339500D01*
X108018028Y-82339500D01*
X107987434Y-82334654D01*
X107977032Y-82331274D01*
X107927532Y-82295309D01*
X107908626Y-82237118D01*
X107923209Y-82185402D01*
X107926220Y-82180489D01*
X107940622Y-82162217D01*
X108232260Y-81870579D01*
X108257312Y-81852378D01*
X108279079Y-81841288D01*
X108324020Y-81830500D01*
X116440972Y-81830500D01*
X116471563Y-81835345D01*
G37*
%TD.AperFunction*%
%TA.AperFunction,Conductor*%
G36*
X116765908Y-78935343D02*
G01*
X116778597Y-78939466D01*
X116828096Y-78975428D01*
X116831091Y-78979550D01*
X116850000Y-79037740D01*
X116850000Y-81502469D01*
X116846536Y-81524337D01*
X116846587Y-81524345D01*
X116845990Y-81528296D01*
X116845872Y-81528530D01*
X116845155Y-81533061D01*
X116842853Y-81540146D01*
X116840448Y-81539364D01*
X116833127Y-81553990D01*
X116821294Y-81580167D01*
X116819516Y-81581179D01*
X116818601Y-81583009D01*
X116793091Y-81596236D01*
X116768133Y-81610457D01*
X116766100Y-81610231D01*
X116764283Y-81611174D01*
X116707320Y-81603715D01*
X116704128Y-81602272D01*
X116674908Y-81582068D01*
X116645252Y-81552412D01*
X116645225Y-81552401D01*
X116637909Y-81549370D01*
X116612848Y-81538990D01*
X116602701Y-81534787D01*
X116602700Y-81534786D01*
X116589937Y-81529500D01*
X108180064Y-81529500D01*
X108180046Y-81529503D01*
X108124772Y-81552401D01*
X108124758Y-81552407D01*
X108124750Y-81552411D01*
X108124748Y-81552412D01*
X108124747Y-81552413D01*
X107377742Y-82299417D01*
X107352685Y-82317621D01*
X107330927Y-82328708D01*
X107285980Y-82339500D01*
X104551869Y-82339500D01*
X104521276Y-82334654D01*
X104498049Y-82327107D01*
X104458638Y-82302957D01*
X104244588Y-82088907D01*
X104244588Y-82088906D01*
X104244587Y-82088906D01*
X103988095Y-81832413D01*
X103988094Y-81832412D01*
X103970868Y-81825277D01*
X103966858Y-81823616D01*
X103965995Y-81823254D01*
X103934755Y-81809966D01*
X103932779Y-81809500D01*
X103932778Y-81809500D01*
X103932775Y-81809500D01*
X103497555Y-81809500D01*
X103466962Y-81804654D01*
X103443735Y-81797107D01*
X103404324Y-81772957D01*
X103160867Y-81529500D01*
X103160867Y-81529499D01*
X103160866Y-81529499D01*
X102863781Y-81232412D01*
X102849609Y-81226542D01*
X102826672Y-81217041D01*
X102826669Y-81217040D01*
X102817709Y-81213329D01*
X102808464Y-81209500D01*
X100530868Y-81209500D01*
X100500276Y-81204655D01*
X100489872Y-81201274D01*
X100440373Y-81165312D01*
X100421465Y-81107121D01*
X100436052Y-81055395D01*
X100439063Y-81050483D01*
X100453467Y-81032213D01*
X100480469Y-81005212D01*
X100526614Y-80925288D01*
X100550500Y-80836144D01*
X100550500Y-80743856D01*
X100526614Y-80654712D01*
X100480469Y-80574788D01*
X100415212Y-80509531D01*
X100409342Y-80506142D01*
X100409339Y-80506140D01*
X100346576Y-80469902D01*
X100341362Y-80465901D01*
X100329215Y-80460870D01*
X100322701Y-80460013D01*
X100280313Y-80448655D01*
X100246144Y-80439500D01*
X100246143Y-80439500D01*
X100169017Y-80439500D01*
X100138424Y-80434654D01*
X100125738Y-80430532D01*
X100111411Y-80420123D01*
X100076239Y-80394570D01*
X100069745Y-80385632D01*
X100054211Y-80353065D01*
X100046614Y-80324712D01*
X100021141Y-80280593D01*
X100000469Y-80244788D01*
X99935212Y-80179531D01*
X99925074Y-80173678D01*
X99925071Y-80173676D01*
X99866576Y-80139902D01*
X99861362Y-80135901D01*
X99849215Y-80130870D01*
X99842701Y-80130013D01*
X99800313Y-80118655D01*
X99766144Y-80109500D01*
X99766143Y-80109500D01*
X99673857Y-80109500D01*
X99673856Y-80109500D01*
X99640719Y-80118378D01*
X99586136Y-80133004D01*
X99584799Y-80133340D01*
X99584739Y-80133370D01*
X99584711Y-80133386D01*
X99504794Y-80179525D01*
X99439525Y-80244794D01*
X99393392Y-80324698D01*
X99393370Y-80324739D01*
X99393340Y-80324799D01*
X99393004Y-80326136D01*
X99369500Y-80413856D01*
X99369500Y-80506141D01*
X99369499Y-80506141D01*
X99390706Y-80585285D01*
X99393388Y-80595293D01*
X99433754Y-80665208D01*
X99439527Y-80675207D01*
X99439529Y-80675209D01*
X99439531Y-80675212D01*
X99497742Y-80733423D01*
X99509322Y-80747348D01*
X99519713Y-80762467D01*
X99537091Y-80821133D01*
X99516672Y-80878802D01*
X99511696Y-80885288D01*
X99487130Y-80906857D01*
X99487448Y-80907223D01*
X99487057Y-80907562D01*
X99487273Y-80907889D01*
X99484796Y-80909524D01*
X99484793Y-80909526D01*
X99419525Y-80974794D01*
X99373392Y-81054698D01*
X99373370Y-81054739D01*
X99373340Y-81054799D01*
X99373004Y-81056136D01*
X99349500Y-81143856D01*
X99349500Y-81236143D01*
X99355820Y-81259734D01*
X99359057Y-81290536D01*
X99358413Y-81302822D01*
X99336486Y-81359943D01*
X99287675Y-81392561D01*
X99281090Y-81394511D01*
X99278021Y-81395421D01*
X99249897Y-81399500D01*
X92575584Y-81399500D01*
X92544991Y-81394654D01*
X92521764Y-81387107D01*
X92482353Y-81362957D01*
X91967767Y-80848371D01*
X91714686Y-80595290D01*
X91441808Y-80322412D01*
X91409404Y-80308990D01*
X91409402Y-80308989D01*
X91386495Y-80299500D01*
X91386493Y-80299500D01*
X91386492Y-80299500D01*
X84010668Y-80299500D01*
X83980074Y-80294654D01*
X83962024Y-80288789D01*
X83919041Y-80260873D01*
X83916205Y-80257723D01*
X83912784Y-80253013D01*
X83912525Y-80252825D01*
X83912425Y-80252519D01*
X83904047Y-80240985D01*
X83900468Y-80234786D01*
X83835213Y-80169532D01*
X83835211Y-80169530D01*
X83835209Y-80169529D01*
X83793078Y-80145204D01*
X83769007Y-80125711D01*
X83756309Y-80111608D01*
X83733043Y-80065942D01*
X83732162Y-80061796D01*
X83731553Y-80056005D01*
X83731423Y-80055712D01*
X83731489Y-80055397D01*
X83730000Y-80041219D01*
X83730000Y-79045180D01*
X83734843Y-79014594D01*
X83738965Y-79001905D01*
X83774923Y-78952406D01*
X83775522Y-78951971D01*
X83779063Y-78949400D01*
X83837243Y-78930500D01*
X116735320Y-78930500D01*
X116765908Y-78935343D01*
G37*
%TD.AperFunction*%
%TD*%
%TA.AperFunction,Conductor*%
%TO.N,GND*%
G36*
X98201177Y-91295185D02*
G01*
X98221819Y-91311819D01*
X102372319Y-95462319D01*
X102405804Y-95523642D01*
X102400820Y-95593334D01*
X102372319Y-95637681D01*
X97856319Y-100153681D01*
X97794996Y-100187166D01*
X97768638Y-100190000D01*
X97421362Y-100190000D01*
X97354323Y-100170315D01*
X97333681Y-100153681D01*
X92816319Y-95636319D01*
X92801615Y-95609391D01*
X92785023Y-95583573D01*
X92784131Y-95577372D01*
X92782834Y-95574996D01*
X92780000Y-95548638D01*
X92780000Y-95431362D01*
X92799685Y-95364323D01*
X92816319Y-95343681D01*
X96848181Y-91311819D01*
X96909504Y-91278334D01*
X96935862Y-91275500D01*
X98134138Y-91275500D01*
X98201177Y-91295185D01*
G37*
%TD.AperFunction*%
%TD*%
%TA.AperFunction,Conductor*%
%TO.N,Net-(U8-SW)*%
G36*
X83017183Y-80968907D02*
G01*
X83028996Y-80978996D01*
X83381004Y-81331004D01*
X83408781Y-81385521D01*
X83410000Y-81401008D01*
X83410000Y-83082747D01*
X83407531Y-83090344D01*
X83408781Y-83098235D01*
X83398257Y-83118888D01*
X83391093Y-83140938D01*
X83381003Y-83152751D01*
X83310863Y-83222890D01*
X83256346Y-83250667D01*
X83215239Y-83248513D01*
X83198273Y-83243967D01*
X83105985Y-83243967D01*
X83016841Y-83267853D01*
X83016840Y-83267853D01*
X83016838Y-83267854D01*
X82936919Y-83313996D01*
X82871658Y-83379257D01*
X82825516Y-83459176D01*
X82825515Y-83459178D01*
X82825515Y-83459179D01*
X82801629Y-83548323D01*
X82801629Y-83640611D01*
X82825515Y-83729755D01*
X82871660Y-83809679D01*
X82936917Y-83874936D01*
X83016841Y-83921081D01*
X83105985Y-83944967D01*
X83105987Y-83944967D01*
X83198271Y-83944967D01*
X83198273Y-83944967D01*
X83285378Y-83921627D01*
X83346478Y-83924830D01*
X83394028Y-83963335D01*
X83410000Y-84017254D01*
X83410000Y-84500000D01*
X83440000Y-84530000D01*
X84051000Y-84530000D01*
X84109191Y-84548907D01*
X84145155Y-84598407D01*
X84150000Y-84629000D01*
X84150000Y-85314607D01*
X84133316Y-85369607D01*
X84128412Y-85376945D01*
X84114990Y-85409348D01*
X84114991Y-85409349D01*
X84105500Y-85432264D01*
X84105500Y-85816338D01*
X84086593Y-85874529D01*
X84076504Y-85886342D01*
X83922342Y-86040504D01*
X83867825Y-86068281D01*
X83852338Y-86069500D01*
X83612094Y-86069500D01*
X83574210Y-86061965D01*
X83569254Y-86059912D01*
X83536850Y-86046490D01*
X83536849Y-86046489D01*
X83513939Y-86037000D01*
X83513938Y-86037000D01*
X82958008Y-86037000D01*
X82899817Y-86018093D01*
X82888004Y-86008004D01*
X82169495Y-85289495D01*
X82141718Y-85234978D01*
X82140499Y-85219491D01*
X82140499Y-85020101D01*
X82139051Y-85012823D01*
X82134669Y-84990787D01*
X82112457Y-84957543D01*
X82079213Y-84935331D01*
X82079212Y-84935330D01*
X82079211Y-84935330D01*
X82049901Y-84929500D01*
X82049899Y-84929500D01*
X81884411Y-84929500D01*
X81826220Y-84910593D01*
X81790256Y-84861093D01*
X81790256Y-84799907D01*
X81798675Y-84780999D01*
X81836614Y-84715288D01*
X81860500Y-84626144D01*
X81860500Y-84533856D01*
X82179500Y-84533856D01*
X82179500Y-84626144D01*
X82203386Y-84715288D01*
X82203387Y-84715290D01*
X82243810Y-84785304D01*
X82249531Y-84795212D01*
X82314788Y-84860469D01*
X82394712Y-84906614D01*
X82483856Y-84930500D01*
X82483858Y-84930500D01*
X82576142Y-84930500D01*
X82576144Y-84930500D01*
X82665288Y-84906614D01*
X82745212Y-84860469D01*
X82810469Y-84795212D01*
X82856614Y-84715288D01*
X82880500Y-84626144D01*
X82880500Y-84533856D01*
X82856614Y-84444712D01*
X82810469Y-84364788D01*
X82745212Y-84299531D01*
X82737267Y-84294944D01*
X82665290Y-84253387D01*
X82665289Y-84253386D01*
X82665288Y-84253386D01*
X82576144Y-84229500D01*
X82483856Y-84229500D01*
X82394712Y-84253386D01*
X82394711Y-84253386D01*
X82394709Y-84253387D01*
X82314790Y-84299529D01*
X82249529Y-84364790D01*
X82203387Y-84444709D01*
X82203386Y-84444711D01*
X82203386Y-84444712D01*
X82179500Y-84533856D01*
X81860500Y-84533856D01*
X81836614Y-84444712D01*
X81790469Y-84364788D01*
X81725212Y-84299531D01*
X81725209Y-84299529D01*
X81720624Y-84294944D01*
X81722456Y-84293111D01*
X81694068Y-84251778D01*
X81690000Y-84223690D01*
X81690000Y-81191008D01*
X81708907Y-81132817D01*
X81718996Y-81121004D01*
X81861004Y-80978996D01*
X81915521Y-80951219D01*
X81931008Y-80950000D01*
X82958992Y-80950000D01*
X83017183Y-80968907D01*
G37*
%TD.AperFunction*%
%TD*%
M02*
