M48
; DRILL file KiCad 10.0.4 date 2026-08-11T23:07:31
; FORMAT={-:-/ absolute / metric / decimal}
; #@! TF.CreationDate,2026-08-11T23:07:31+10:00
; #@! TF.GenerationSoftware,Kicad,Pcbnew,10.0.4
; #@! TF.FileFunction,Plated,1,6,PTH
FMAT,2
METRIC
; #@! TA.AperFunction,Plated,PTH,ViaDrill
T1C0.300
; #@! TA.AperFunction,Plated,PTH,ComponentDrill
T2C0.600
; #@! TA.AperFunction,Plated,PTH,ComponentDrill
T3C2.200
%
G90
G05
T1
X78.03Y-85.37
X78.12Y-84.7
X78.19Y-85.88
X78.64Y-84.68
X78.71Y-85.4
X78.98Y-90.92
X79.0Y-85.95
X79.21Y-84.13
X79.41Y-95.5
X79.41Y-98.475
X80.0Y-90.92
X80.43Y-95.5
X80.43Y-98.475
X80.57Y-103.83
X80.57Y-104.36
X80.57Y-107.25
X80.94Y-91.27
X81.22Y-90.68
X81.51Y-84.58
X81.72Y-96.86
X81.83Y-91.27
X82.02Y-90.63
X82.06Y-97.48
X82.07Y-82.14
X82.11Y-82.92
X82.12Y-81.3
X82.2Y-103.37
X82.31Y-102.75
X82.53Y-84.58
X82.57Y-89.925
X82.75Y-89.175
X82.8Y-82.13
X82.8Y-82.94
X82.81Y-81.29
X82.88Y-86.7
X82.92Y-106.28
X82.96Y-103.16
X82.96Y-103.87
X82.965Y-105.645
X82.97Y-104.45
X83.152Y-83.594
X83.16Y-106.85
X83.17Y-89.925
X83.54Y-105.65
X83.56Y-85.37
X83.593Y-94.316
X83.599Y-99.129
X83.62Y-80.45
X83.75Y-84.87
X83.752Y-83.607
X83.79Y-85.82
X83.892Y-93.522
X83.892Y-97.472
X83.892Y-99.922
X83.94Y-96.472
X84.0Y-89.35
X84.166Y-94.329
X84.17Y-99.112
X84.352Y-83.588
X84.38Y-90.39
X84.651Y-84.57
X84.807Y-98.475
X84.84Y-90.89
X84.96Y-90.38
X85.02Y-95.075
X85.03Y-89.35
X85.24Y-103.66
X85.27Y-104.61
X85.28Y-98.01
X85.28Y-106.55
X85.31Y-93.3
X85.31Y-94.32
X85.323Y-88.43
X85.333Y-96.479
X85.63Y-84.157
X85.84Y-87.51
X85.9Y-98.06
X85.97Y-79.45
X86.02Y-80.02
X86.103Y-96.479
X86.13Y-87.03
X86.19Y-88.21
X86.19Y-89.17
X86.24Y-90.52
X86.26Y-102.29
X86.26Y-103.31
X86.32Y-93.28
X86.32Y-94.3
X86.425Y-87.61
X86.5Y-79.77
X86.99Y-79.42
X86.99Y-80.0
X87.04Y-103.15
X87.05Y-104.01
X87.28Y-89.56
X87.34Y-104.88
X87.37Y-84.2
X87.37Y-90.4
X87.37Y-92.1
X87.37Y-93.8
X87.37Y-98.9
X87.37Y-99.75
X87.37Y-101.45
X87.37Y-105.7
X87.37Y-106.8
X87.46Y-92.93
X87.61Y-104.02
X87.62Y-103.14
X87.69Y-86.93
X87.74Y-85.31
X87.74Y-86.14
X87.8Y-83.07
X88.07Y-79.5
X88.1Y-80.02
X88.12Y-96.65
X88.13Y-95.88
X88.271Y-94.892
X88.29Y-88.85
X88.302Y-88.328
X88.355Y-92.125
X88.42Y-85.45
X88.43Y-86.36
X88.44Y-83.07
X88.51Y-101.95
X88.52Y-101.43
X88.54Y-79.76
X88.68Y-85.89
X88.75Y-84.2
X88.75Y-106.8
X88.94Y-85.45
X88.95Y-86.36
X88.97Y-103.6
X89.02Y-79.49
X89.02Y-80.01
X89.047Y-87.494
X89.11Y-88.475
X89.25Y-90.03
X89.25Y-91.05
X89.4Y-98.92
X89.4Y-99.89
X89.42Y-101.96
X89.47Y-101.43
X89.49Y-87.99
X89.6Y-106.8
X89.68Y-92.69
X90.45Y-106.8
X90.49Y-88.65
X90.65Y-92.85
X90.65Y-98.51
X90.75Y-87.91
X90.86Y-89.13
X91.04Y-83.28
X91.66Y-83.24
X92.15Y-106.8
X92.16Y-81.819
X92.16Y-83.24
X93.0Y-106.8
X93.14Y-95.4
X93.19Y-91.87
X93.67Y-95.64
X93.8Y-96.25
X93.83Y-106.8
X93.894Y-82.53
X94.7Y-106.8
X94.92Y-81.99
X95.62Y-106.8
X95.69Y-83.28
X95.92Y-80.05
X96.18Y-82.73
X96.22Y-80.56
X96.23Y-83.27
X96.36Y-98.33
X96.47Y-106.8
X96.53Y-80.04
X96.53Y-93.24
X96.57Y-92.47
X96.61Y-97.3
X96.78Y-96.11
X96.83Y-83.27
X96.87Y-98.47
X96.93Y-91.95
X97.38Y-106.8
X97.41Y-92.9
X97.68Y-91.52
X97.74Y-90.02
X97.748Y-82.79
X97.77Y-92.17
X97.77Y-94.27
X97.77Y-98.47
X97.77Y-100.57
X97.787Y-96.025
X97.97Y-87.87
X98.05Y-106.8
X98.4Y-92.81
X98.41Y-83.08
X98.42Y-92.12
X98.56Y-94.9
X98.61Y-96.09
X98.62Y-94.25
X98.85Y-100.56
X98.88Y-93.28
X98.89Y-98.34
X98.92Y-106.8
X98.98Y-91.17
X99.09Y-83.45
X99.16Y-94.64
X99.24Y-96.32
X99.43Y-93.17
X99.7Y-81.19
X99.72Y-80.46
X99.78Y-83.19
X99.8Y-82.47
X99.83Y-106.8
X99.87Y-92.17
X99.87Y-94.27
X99.87Y-96.37
X99.87Y-98.47
X99.87Y-100.57
X100.1Y-93.27
X100.17Y-87.87
X100.19Y-94.89
X100.2Y-80.79
X100.24Y-82.83
X100.44Y-92.82
X100.61Y-106.8
X100.65Y-84.2
X100.67Y-94.27
X100.74Y-98.37
X100.83Y-100.53
X100.98Y-92.2
X101.01Y-81.96
X101.01Y-96.28
X101.06Y-94.91
X101.14Y-91.15
X101.48Y-93.28
X101.5Y-84.2
X101.5Y-106.8
X101.62Y-96.06
X101.67Y-81.98
X101.97Y-92.17
X101.97Y-94.27
X101.97Y-98.47
X101.97Y-100.57
X102.37Y-102.77
X102.41Y-106.8
X102.42Y-105.5
X102.51Y-82.56
X102.54Y-83.11
X102.97Y-80.94
X103.186Y-102.384
X103.22Y-103.23
X103.36Y-82.56
X103.39Y-83.15
X103.48Y-106.49
X103.5Y-107.01
X103.85Y-102.37
X103.96Y-103.2
X104.04Y-91.15
X104.042Y-88.946
X104.05Y-84.14
X104.07Y-92.17
X104.07Y-96.37
X104.07Y-98.47
X104.07Y-100.57
X104.11Y-94.39
X104.36Y-102.7
X104.43Y-107.01
X104.44Y-106.5
X104.57Y-82.01
X105.02Y-91.1
X105.04Y-94.43
X105.08Y-96.17
X105.09Y-92.14
X105.11Y-98.4
X105.51Y-106.48
X105.55Y-107.02
X105.57Y-82.01
X105.79Y-94.66
X106.06Y-91.11
X106.12Y-92.99
X106.14Y-92.11
X106.17Y-90.07
X106.17Y-94.27
X106.17Y-96.37
X106.17Y-98.47
X106.17Y-100.57
X106.41Y-107.06
X106.46Y-106.52
X106.6Y-84.2
X106.75Y-93.16
X106.94Y-92.1
X107.06Y-97.41
X107.17Y-80.86
X107.19Y-100.51
X107.22Y-93.59
X107.22Y-95.35
X107.25Y-96.35
X107.56Y-106.49
X107.57Y-107.01
X107.97Y-84.2
X107.97Y-85.3
X107.97Y-86.15
X108.46Y-107.03
X108.51Y-106.48
X108.66Y-89.06
X108.85Y-93.24
X108.93Y-86.77
X109.13Y-98.4
X109.2Y-95.0
X109.24Y-92.09
X109.27Y-93.92
X109.3Y-100.48
X109.31Y-91.13
X109.37Y-81.09
X109.37Y-82.09
X109.37Y-82.89
X109.44Y-89.17
X109.64Y-106.53
X109.64Y-107.03
X109.97Y-81.09
X109.97Y-82.09
X109.97Y-82.89
X110.01Y-87.42
X110.02Y-88.34
X110.12Y-86.7
X110.17Y-85.79
X110.23Y-84.34
X110.37Y-90.07
X110.37Y-92.17
X110.37Y-96.37
X110.37Y-98.47
X110.37Y-100.57
X110.57Y-107.04
X110.59Y-106.52
X111.13Y-89.04
X111.42Y-100.53
X111.46Y-98.34
X111.67Y-92.07
X111.79Y-96.29
X111.96Y-86.71
X112.06Y-85.68
X112.11Y-84.44
X112.26Y-87.36
X112.26Y-88.22
X112.27Y-102.77
X112.31Y-89.77
X112.37Y-81.09
X112.37Y-82.09
X112.37Y-82.89
X112.47Y-96.37
X112.47Y-98.47
X112.47Y-100.57
X112.94Y-82.89
X112.97Y-81.09
X112.97Y-82.09
X113.14Y-106.24
X113.43Y-94.59
X113.44Y-96.46
X113.465Y-89.575
X113.48Y-95.32
X113.5Y-93.632
X113.8Y-107.58
X114.63Y-95.3
X115.03Y-103.77
X115.108Y-103.052
X115.63Y-103.575
X115.82Y-87.52
X115.94Y-104.48
X116.09Y-102.96
X116.42Y-88.91
X116.72Y-89.59
X116.75Y-102.85
X118.016Y-82.1
X118.65Y-85.55
X119.84Y-106.86
X120.94Y-105.73
X121.21Y-81.96
X121.25Y-82.9
X121.53Y-90.165
X121.596Y-88.584
X121.67Y-81.49
X121.76Y-105.21
X121.85Y-104.3
X121.94Y-82.9
X122.83Y-91.44
X122.94Y-89.23
X122.94Y-90.19
X123.02Y-103.24
X123.06Y-80.8
X123.06Y-82.3
X123.5Y-82.86
X123.78Y-80.9
X123.78Y-81.7
X123.93Y-91.84
X124.02Y-101.74
X124.375Y-83.61
X125.03Y-90.99
X125.26Y-107.47
X125.3Y-81.51
X125.3Y-82.13
X125.43Y-86.082
X125.43Y-98.412
X125.925Y-83.61
X126.13Y-91.24
X126.23Y-98.412
X127.03Y-86.082
X127.03Y-98.412
X127.16Y-100.55
X127.23Y-91.44
X127.83Y-86.082
X127.83Y-98.412
X128.14Y-84.35
X128.33Y-91.24
X128.63Y-86.082
X128.64Y-97.87
X129.43Y-86.082
X129.43Y-91.44
X129.43Y-98.412
X129.76Y-100.14
X130.09Y-83.38
X130.09Y-84.36
X130.23Y-86.082
X130.27Y-81.56
X130.39Y-91.41
X131.05Y-83.38
X131.56Y-101.5
X131.74Y-88.55
X131.83Y-86.082
X131.83Y-98.412
X133.94Y-100.1
X134.23Y-86.082
X134.23Y-98.412
X134.4Y-106.64
X134.575Y-84.04
X134.87Y-80.94
T3
X78.34Y-81.63
X78.34Y-110.77
X111.7Y-110.94
X133.27Y-110.86
T2
G00X79.537Y-92.402
M15
G01X78.737Y-92.402
M16
G05
G00X79.537Y-101.042
M15
G01X78.737Y-101.042
M16
G05
G00X83.867Y-92.402
M15
G01X82.767Y-92.402
M16
G05
G00X83.867Y-101.042
M15
G01X82.767Y-101.042
M16
G05
M30
