%TF.GenerationSoftware,KiCad,Pcbnew,10.0.4*%
%TF.CreationDate,2026-08-11T23:07:26+10:00*%
%TF.ProjectId,v2_mini,76325f6d-696e-4692-9e6b-696361645f70,rev?*%
%TF.SameCoordinates,Original*%
%TF.FileFunction,Paste,Top*%
%TF.FilePolarity,Positive*%
%FSLAX46Y46*%
G04 Gerber Fmt 4.6, Leading zero omitted, Abs format (unit mm)*
G04 Created by KiCad (PCBNEW 10.0.4) date 2026-08-11 23:07:26*
%MOMM*%
%LPD*%
G01*
G04 APERTURE LIST*
G04 Aperture macros list*
%AMRoundRect*
0 Rectangle with rounded corners*
0 $1 Rounding radius*
0 $2 $3 $4 $5 $6 $7 $8 $9 X,Y pos of 4 corners*
0 Add a 4 corners polygon primitive as box body*
4,1,4,$2,$3,$4,$5,$6,$7,$8,$9,$2,$3,0*
0 Add four circle primitives for the rounded corners*
1,1,$1+$1,$2,$3*
1,1,$1+$1,$4,$5*
1,1,$1+$1,$6,$7*
1,1,$1+$1,$8,$9*
0 Add four rect primitives between the rounded corners*
20,1,$1+$1,$2,$3,$4,$5,0*
20,1,$1+$1,$4,$5,$6,$7,0*
20,1,$1+$1,$6,$7,$8,$9,0*
20,1,$1+$1,$8,$9,$2,$3,0*%
%AMFreePoly0*
4,1,7,0.099993,-0.100000,-0.675510,-0.100002,-0.675510,0.099998,-0.100007,0.099998,-0.100007,0.599999,0.099993,0.599999,0.099993,-0.100000,0.099993,-0.100000,$1*%
%AMFreePoly1*
4,1,7,0.099993,-0.599999,-0.100007,-0.599999,-0.100007,-0.099998,-0.675510,-0.099998,-0.675510,0.100000,0.099993,0.100000,0.099993,-0.599999,0.099993,-0.599999,$1*%
%AMFreePoly2*
4,1,7,0.725000,-0.099998,0.100000,-0.099998,0.100000,-0.599999,-0.100000,-0.599999,-0.100000,0.100002,0.725000,0.100002,0.725000,-0.099998,0.725000,-0.099998,$1*%
%AMFreePoly3*
4,1,7,0.074999,-0.050001,0.699999,-0.050001,0.699999,-0.250001,-0.125001,-0.249999,-0.125001,0.450000,0.074999,0.450000,0.074999,-0.050001,0.074999,-0.050001,$1*%
G04 Aperture macros list end*
%ADD10C,0.010000*%
%ADD11RoundRect,0.137500X-0.137500X-0.662500X0.137500X-0.662500X0.137500X0.662500X-0.137500X0.662500X0*%
%ADD12RoundRect,0.250000X-0.475000X0.250000X-0.475000X-0.250000X0.475000X-0.250000X0.475000X0.250000X0*%
%ADD13RoundRect,0.200000X-0.275000X0.200000X-0.275000X-0.200000X0.275000X-0.200000X0.275000X0.200000X0*%
%ADD14RoundRect,0.135000X-0.185000X0.135000X-0.185000X-0.135000X0.185000X-0.135000X0.185000X0.135000X0*%
%ADD15RoundRect,0.140000X0.170000X-0.140000X0.170000X0.140000X-0.170000X0.140000X-0.170000X-0.140000X0*%
%ADD16RoundRect,0.140000X-0.170000X0.140000X-0.170000X-0.140000X0.170000X-0.140000X0.170000X0.140000X0*%
%ADD17R,1.125610X0.575610*%
%ADD18R,1.150000X0.600000*%
%ADD19R,1.150000X0.300000*%
%ADD20R,1.123795X0.573797*%
%ADD21RoundRect,0.218750X0.218750X0.256250X-0.218750X0.256250X-0.218750X-0.256250X0.218750X-0.256250X0*%
%ADD22R,0.800000X1.500000*%
%ADD23R,1.500000X0.800000*%
%ADD24C,1.100000*%
%ADD25R,1.100000X1.100000*%
%ADD26RoundRect,0.140000X0.140000X0.170000X-0.140000X0.170000X-0.140000X-0.170000X0.140000X-0.170000X0*%
%ADD27RoundRect,0.135000X0.135000X0.185000X-0.135000X0.185000X-0.135000X-0.185000X0.135000X-0.185000X0*%
%ADD28RoundRect,0.050000X0.075000X-0.250000X0.075000X0.250000X-0.075000X0.250000X-0.075000X-0.250000X0*%
%ADD29RoundRect,0.050000X0.075000X-0.400000X0.075000X0.400000X-0.075000X0.400000X-0.075000X-0.400000X0*%
%ADD30RoundRect,0.200000X0.275000X-0.200000X0.275000X0.200000X-0.275000X0.200000X-0.275000X-0.200000X0*%
%ADD31RoundRect,0.135000X-0.135000X-0.185000X0.135000X-0.185000X0.135000X0.185000X-0.135000X0.185000X0*%
%ADD32RoundRect,0.250000X-0.250000X-0.475000X0.250000X-0.475000X0.250000X0.475000X-0.250000X0.475000X0*%
%ADD33RoundRect,0.200000X0.200000X0.275000X-0.200000X0.275000X-0.200000X-0.275000X0.200000X-0.275000X0*%
%ADD34RoundRect,0.250000X-0.375000X-0.850000X0.375000X-0.850000X0.375000X0.850000X-0.375000X0.850000X0*%
%ADD35RoundRect,0.135000X0.185000X-0.135000X0.185000X0.135000X-0.185000X0.135000X-0.185000X-0.135000X0*%
%ADD36RoundRect,0.250000X0.475000X-0.250000X0.475000X0.250000X-0.475000X0.250000X-0.475000X-0.250000X0*%
%ADD37RoundRect,0.075000X0.200000X-0.075000X0.200000X0.075000X-0.200000X0.075000X-0.200000X-0.075000X0*%
%ADD38RoundRect,0.250000X0.250000X-0.275000X0.250000X0.275000X-0.250000X0.275000X-0.250000X-0.275000X0*%
%ADD39RoundRect,0.250000X0.275000X-0.850000X0.275000X0.850000X-0.275000X0.850000X-0.275000X-0.850000X0*%
%ADD40R,1.800000X1.400000*%
%ADD41R,1.400000X1.900000*%
%ADD42RoundRect,0.140000X-0.140000X-0.170000X0.140000X-0.170000X0.140000X0.170000X-0.140000X0.170000X0*%
%ADD43RoundRect,0.218750X-0.218750X-0.381250X0.218750X-0.381250X0.218750X0.381250X-0.218750X0.381250X0*%
%ADD44RoundRect,0.033750X-0.346250X-0.101250X0.346250X-0.101250X0.346250X0.101250X-0.346250X0.101250X0*%
%ADD45RoundRect,0.225000X-0.250000X0.225000X-0.250000X-0.225000X0.250000X-0.225000X0.250000X0.225000X0*%
%ADD46FreePoly0,90.000000*%
%ADD47R,0.200000X0.624992*%
%ADD48FreePoly1,90.000000*%
%ADD49R,0.599999X0.200000*%
%ADD50R,0.999998X0.200000*%
%ADD51FreePoly2,90.000000*%
%ADD52R,0.200000X0.599999*%
%ADD53FreePoly3,90.000000*%
%ADD54R,0.618998X0.200000*%
%ADD55RoundRect,0.125000X0.125000X-0.125000X0.125000X0.125000X-0.125000X0.125000X-0.125000X-0.125000X0*%
%ADD56R,0.650000X0.600000*%
%ADD57R,1.340000X0.850000*%
%ADD58RoundRect,0.225000X-0.225000X-0.250000X0.225000X-0.250000X0.225000X0.250000X-0.225000X0.250000X0*%
%ADD59RoundRect,0.075000X0.175000X-0.075000X0.175000X0.075000X-0.175000X0.075000X-0.175000X-0.075000X0*%
G04 APERTURE END LIST*
D10*
%TO.C,U10*%
X92285000Y-81190000D02*
X92285000Y-81640000D01*
X92285000Y-81643000D01*
X92285000Y-81645000D01*
X92284000Y-81648000D01*
X92284000Y-81650000D01*
X92283000Y-81653000D01*
X92283000Y-81655000D01*
X92282000Y-81658000D01*
X92281000Y-81660000D01*
X92280000Y-81663000D01*
X92278000Y-81665000D01*
X92277000Y-81667000D01*
X92275000Y-81669000D01*
X92274000Y-81671000D01*
X92272000Y-81673000D01*
X92270000Y-81675000D01*
X92268000Y-81677000D01*
X92266000Y-81679000D01*
X92264000Y-81680000D01*
X92262000Y-81682000D01*
X92260000Y-81683000D01*
X92258000Y-81685000D01*
X92255000Y-81686000D01*
X92253000Y-81687000D01*
X92250000Y-81688000D01*
X92248000Y-81688000D01*
X92245000Y-81689000D01*
X92243000Y-81689000D01*
X92240000Y-81690000D01*
X92238000Y-81690000D01*
X92235000Y-81690000D01*
X92085000Y-81690000D01*
X92082000Y-81690000D01*
X92080000Y-81690000D01*
X92077000Y-81689000D01*
X92075000Y-81689000D01*
X92072000Y-81688000D01*
X92070000Y-81688000D01*
X92067000Y-81687000D01*
X92065000Y-81686000D01*
X92062000Y-81685000D01*
X92060000Y-81683000D01*
X92058000Y-81682000D01*
X92056000Y-81680000D01*
X92054000Y-81679000D01*
X92052000Y-81677000D01*
X92050000Y-81675000D01*
X92048000Y-81673000D01*
X92046000Y-81671000D01*
X92045000Y-81669000D01*
X92043000Y-81667000D01*
X92042000Y-81665000D01*
X92040000Y-81663000D01*
X92039000Y-81660000D01*
X92038000Y-81658000D01*
X92037000Y-81655000D01*
X92037000Y-81653000D01*
X92036000Y-81650000D01*
X92036000Y-81648000D01*
X92035000Y-81645000D01*
X92035000Y-81643000D01*
X92035000Y-81640000D01*
X92035000Y-81190000D01*
X92035000Y-81187000D01*
X92035000Y-81185000D01*
X92036000Y-81182000D01*
X92036000Y-81180000D01*
X92037000Y-81177000D01*
X92037000Y-81175000D01*
X92038000Y-81172000D01*
X92039000Y-81170000D01*
X92040000Y-81167000D01*
X92042000Y-81165000D01*
X92043000Y-81163000D01*
X92045000Y-81161000D01*
X92046000Y-81159000D01*
X92048000Y-81157000D01*
X92050000Y-81155000D01*
X92052000Y-81153000D01*
X92054000Y-81151000D01*
X92056000Y-81150000D01*
X92058000Y-81148000D01*
X92060000Y-81147000D01*
X92062000Y-81145000D01*
X92065000Y-81144000D01*
X92067000Y-81143000D01*
X92070000Y-81142000D01*
X92072000Y-81142000D01*
X92075000Y-81141000D01*
X92077000Y-81141000D01*
X92080000Y-81140000D01*
X92082000Y-81140000D01*
X92085000Y-81140000D01*
X92235000Y-81140000D01*
X92238000Y-81140000D01*
X92240000Y-81140000D01*
X92243000Y-81141000D01*
X92245000Y-81141000D01*
X92248000Y-81142000D01*
X92250000Y-81142000D01*
X92253000Y-81143000D01*
X92255000Y-81144000D01*
X92258000Y-81145000D01*
X92260000Y-81147000D01*
X92262000Y-81148000D01*
X92264000Y-81150000D01*
X92266000Y-81151000D01*
X92268000Y-81153000D01*
X92270000Y-81155000D01*
X92272000Y-81157000D01*
X92274000Y-81159000D01*
X92275000Y-81161000D01*
X92277000Y-81163000D01*
X92278000Y-81165000D01*
X92280000Y-81167000D01*
X92281000Y-81170000D01*
X92282000Y-81172000D01*
X92283000Y-81175000D01*
X92283000Y-81177000D01*
X92284000Y-81180000D01*
X92284000Y-81182000D01*
X92285000Y-81185000D01*
X92285000Y-81187000D01*
X92285000Y-81190000D01*
G36*
X92243000Y-81141000D02*
G01*
X92245000Y-81141000D01*
X92248000Y-81142000D01*
X92250000Y-81142000D01*
X92253000Y-81143000D01*
X92255000Y-81144000D01*
X92258000Y-81145000D01*
X92260000Y-81147000D01*
X92262000Y-81148000D01*
X92264000Y-81150000D01*
X92266000Y-81151000D01*
X92268000Y-81153000D01*
X92270000Y-81155000D01*
X92272000Y-81157000D01*
X92274000Y-81159000D01*
X92275000Y-81161000D01*
X92277000Y-81163000D01*
X92278000Y-81165000D01*
X92280000Y-81167000D01*
X92281000Y-81170000D01*
X92282000Y-81172000D01*
X92283000Y-81175000D01*
X92283000Y-81177000D01*
X92284000Y-81180000D01*
X92284000Y-81182000D01*
X92285000Y-81185000D01*
X92285000Y-81187000D01*
X92285000Y-81190000D01*
X92285000Y-81640000D01*
X92285000Y-81643000D01*
X92285000Y-81645000D01*
X92284000Y-81648000D01*
X92284000Y-81650000D01*
X92283000Y-81653000D01*
X92283000Y-81655000D01*
X92282000Y-81658000D01*
X92281000Y-81660000D01*
X92280000Y-81663000D01*
X92278000Y-81665000D01*
X92277000Y-81667000D01*
X92275000Y-81669000D01*
X92274000Y-81671000D01*
X92272000Y-81673000D01*
X92270000Y-81675000D01*
X92268000Y-81677000D01*
X92266000Y-81679000D01*
X92264000Y-81680000D01*
X92262000Y-81682000D01*
X92260000Y-81683000D01*
X92258000Y-81685000D01*
X92255000Y-81686000D01*
X92253000Y-81687000D01*
X92250000Y-81688000D01*
X92248000Y-81688000D01*
X92245000Y-81689000D01*
X92243000Y-81689000D01*
X92240000Y-81690000D01*
X92238000Y-81690000D01*
X92235000Y-81690000D01*
X92085000Y-81690000D01*
X92082000Y-81690000D01*
X92080000Y-81690000D01*
X92077000Y-81689000D01*
X92075000Y-81689000D01*
X92072000Y-81688000D01*
X92070000Y-81688000D01*
X92067000Y-81687000D01*
X92065000Y-81686000D01*
X92062000Y-81685000D01*
X92060000Y-81683000D01*
X92058000Y-81682000D01*
X92056000Y-81680000D01*
X92054000Y-81679000D01*
X92052000Y-81677000D01*
X92050000Y-81675000D01*
X92048000Y-81673000D01*
X92046000Y-81671000D01*
X92045000Y-81669000D01*
X92043000Y-81667000D01*
X92042000Y-81665000D01*
X92040000Y-81663000D01*
X92039000Y-81660000D01*
X92038000Y-81658000D01*
X92037000Y-81655000D01*
X92037000Y-81653000D01*
X92036000Y-81650000D01*
X92036000Y-81648000D01*
X92035000Y-81645000D01*
X92035000Y-81643000D01*
X92035000Y-81640000D01*
X92035000Y-81190000D01*
X92035000Y-81187000D01*
X92035000Y-81185000D01*
X92036000Y-81182000D01*
X92036000Y-81180000D01*
X92037000Y-81177000D01*
X92037000Y-81175000D01*
X92038000Y-81172000D01*
X92039000Y-81170000D01*
X92040000Y-81167000D01*
X92042000Y-81165000D01*
X92043000Y-81163000D01*
X92045000Y-81161000D01*
X92046000Y-81159000D01*
X92048000Y-81157000D01*
X92050000Y-81155000D01*
X92052000Y-81153000D01*
X92054000Y-81151000D01*
X92056000Y-81150000D01*
X92058000Y-81148000D01*
X92060000Y-81147000D01*
X92062000Y-81145000D01*
X92065000Y-81144000D01*
X92067000Y-81143000D01*
X92070000Y-81142000D01*
X92072000Y-81142000D01*
X92075000Y-81141000D01*
X92077000Y-81141000D01*
X92080000Y-81140000D01*
X92082000Y-81140000D01*
X92085000Y-81140000D01*
X92235000Y-81140000D01*
X92238000Y-81140000D01*
X92240000Y-81140000D01*
X92243000Y-81141000D01*
G37*
X92285000Y-81940000D02*
X92285000Y-82390000D01*
X92285000Y-82393000D01*
X92285000Y-82395000D01*
X92284000Y-82398000D01*
X92284000Y-82400000D01*
X92283000Y-82403000D01*
X92283000Y-82405000D01*
X92282000Y-82408000D01*
X92281000Y-82410000D01*
X92280000Y-82413000D01*
X92278000Y-82415000D01*
X92277000Y-82417000D01*
X92275000Y-82419000D01*
X92274000Y-82421000D01*
X92272000Y-82423000D01*
X92270000Y-82425000D01*
X92268000Y-82427000D01*
X92266000Y-82429000D01*
X92264000Y-82430000D01*
X92262000Y-82432000D01*
X92260000Y-82433000D01*
X92258000Y-82435000D01*
X92255000Y-82436000D01*
X92253000Y-82437000D01*
X92250000Y-82438000D01*
X92248000Y-82438000D01*
X92245000Y-82439000D01*
X92243000Y-82439000D01*
X92240000Y-82440000D01*
X92238000Y-82440000D01*
X92235000Y-82440000D01*
X92085000Y-82440000D01*
X92082000Y-82440000D01*
X92080000Y-82440000D01*
X92077000Y-82439000D01*
X92075000Y-82439000D01*
X92072000Y-82438000D01*
X92070000Y-82438000D01*
X92067000Y-82437000D01*
X92065000Y-82436000D01*
X92062000Y-82435000D01*
X92060000Y-82433000D01*
X92058000Y-82432000D01*
X92056000Y-82430000D01*
X92054000Y-82429000D01*
X92052000Y-82427000D01*
X92050000Y-82425000D01*
X92048000Y-82423000D01*
X92046000Y-82421000D01*
X92045000Y-82419000D01*
X92043000Y-82417000D01*
X92042000Y-82415000D01*
X92040000Y-82413000D01*
X92039000Y-82410000D01*
X92038000Y-82408000D01*
X92037000Y-82405000D01*
X92037000Y-82403000D01*
X92036000Y-82400000D01*
X92036000Y-82398000D01*
X92035000Y-82395000D01*
X92035000Y-82393000D01*
X92035000Y-82390000D01*
X92035000Y-81940000D01*
X92035000Y-81937000D01*
X92035000Y-81935000D01*
X92036000Y-81932000D01*
X92036000Y-81930000D01*
X92037000Y-81927000D01*
X92037000Y-81925000D01*
X92038000Y-81922000D01*
X92039000Y-81920000D01*
X92040000Y-81917000D01*
X92042000Y-81915000D01*
X92043000Y-81913000D01*
X92045000Y-81911000D01*
X92046000Y-81909000D01*
X92048000Y-81907000D01*
X92050000Y-81905000D01*
X92052000Y-81903000D01*
X92054000Y-81901000D01*
X92056000Y-81900000D01*
X92058000Y-81898000D01*
X92060000Y-81897000D01*
X92062000Y-81895000D01*
X92065000Y-81894000D01*
X92067000Y-81893000D01*
X92070000Y-81892000D01*
X92072000Y-81892000D01*
X92075000Y-81891000D01*
X92077000Y-81891000D01*
X92080000Y-81890000D01*
X92082000Y-81890000D01*
X92085000Y-81890000D01*
X92235000Y-81890000D01*
X92238000Y-81890000D01*
X92240000Y-81890000D01*
X92243000Y-81891000D01*
X92245000Y-81891000D01*
X92248000Y-81892000D01*
X92250000Y-81892000D01*
X92253000Y-81893000D01*
X92255000Y-81894000D01*
X92258000Y-81895000D01*
X92260000Y-81897000D01*
X92262000Y-81898000D01*
X92264000Y-81900000D01*
X92266000Y-81901000D01*
X92268000Y-81903000D01*
X92270000Y-81905000D01*
X92272000Y-81907000D01*
X92274000Y-81909000D01*
X92275000Y-81911000D01*
X92277000Y-81913000D01*
X92278000Y-81915000D01*
X92280000Y-81917000D01*
X92281000Y-81920000D01*
X92282000Y-81922000D01*
X92283000Y-81925000D01*
X92283000Y-81927000D01*
X92284000Y-81930000D01*
X92284000Y-81932000D01*
X92285000Y-81935000D01*
X92285000Y-81937000D01*
X92285000Y-81940000D01*
G36*
X92243000Y-81891000D02*
G01*
X92245000Y-81891000D01*
X92248000Y-81892000D01*
X92250000Y-81892000D01*
X92253000Y-81893000D01*
X92255000Y-81894000D01*
X92258000Y-81895000D01*
X92260000Y-81897000D01*
X92262000Y-81898000D01*
X92264000Y-81900000D01*
X92266000Y-81901000D01*
X92268000Y-81903000D01*
X92270000Y-81905000D01*
X92272000Y-81907000D01*
X92274000Y-81909000D01*
X92275000Y-81911000D01*
X92277000Y-81913000D01*
X92278000Y-81915000D01*
X92280000Y-81917000D01*
X92281000Y-81920000D01*
X92282000Y-81922000D01*
X92283000Y-81925000D01*
X92283000Y-81927000D01*
X92284000Y-81930000D01*
X92284000Y-81932000D01*
X92285000Y-81935000D01*
X92285000Y-81937000D01*
X92285000Y-81940000D01*
X92285000Y-82390000D01*
X92285000Y-82393000D01*
X92285000Y-82395000D01*
X92284000Y-82398000D01*
X92284000Y-82400000D01*
X92283000Y-82403000D01*
X92283000Y-82405000D01*
X92282000Y-82408000D01*
X92281000Y-82410000D01*
X92280000Y-82413000D01*
X92278000Y-82415000D01*
X92277000Y-82417000D01*
X92275000Y-82419000D01*
X92274000Y-82421000D01*
X92272000Y-82423000D01*
X92270000Y-82425000D01*
X92268000Y-82427000D01*
X92266000Y-82429000D01*
X92264000Y-82430000D01*
X92262000Y-82432000D01*
X92260000Y-82433000D01*
X92258000Y-82435000D01*
X92255000Y-82436000D01*
X92253000Y-82437000D01*
X92250000Y-82438000D01*
X92248000Y-82438000D01*
X92245000Y-82439000D01*
X92243000Y-82439000D01*
X92240000Y-82440000D01*
X92238000Y-82440000D01*
X92235000Y-82440000D01*
X92085000Y-82440000D01*
X92082000Y-82440000D01*
X92080000Y-82440000D01*
X92077000Y-82439000D01*
X92075000Y-82439000D01*
X92072000Y-82438000D01*
X92070000Y-82438000D01*
X92067000Y-82437000D01*
X92065000Y-82436000D01*
X92062000Y-82435000D01*
X92060000Y-82433000D01*
X92058000Y-82432000D01*
X92056000Y-82430000D01*
X92054000Y-82429000D01*
X92052000Y-82427000D01*
X92050000Y-82425000D01*
X92048000Y-82423000D01*
X92046000Y-82421000D01*
X92045000Y-82419000D01*
X92043000Y-82417000D01*
X92042000Y-82415000D01*
X92040000Y-82413000D01*
X92039000Y-82410000D01*
X92038000Y-82408000D01*
X92037000Y-82405000D01*
X92037000Y-82403000D01*
X92036000Y-82400000D01*
X92036000Y-82398000D01*
X92035000Y-82395000D01*
X92035000Y-82393000D01*
X92035000Y-82390000D01*
X92035000Y-81940000D01*
X92035000Y-81937000D01*
X92035000Y-81935000D01*
X92036000Y-81932000D01*
X92036000Y-81930000D01*
X92037000Y-81927000D01*
X92037000Y-81925000D01*
X92038000Y-81922000D01*
X92039000Y-81920000D01*
X92040000Y-81917000D01*
X92042000Y-81915000D01*
X92043000Y-81913000D01*
X92045000Y-81911000D01*
X92046000Y-81909000D01*
X92048000Y-81907000D01*
X92050000Y-81905000D01*
X92052000Y-81903000D01*
X92054000Y-81901000D01*
X92056000Y-81900000D01*
X92058000Y-81898000D01*
X92060000Y-81897000D01*
X92062000Y-81895000D01*
X92065000Y-81894000D01*
X92067000Y-81893000D01*
X92070000Y-81892000D01*
X92072000Y-81892000D01*
X92075000Y-81891000D01*
X92077000Y-81891000D01*
X92080000Y-81890000D01*
X92082000Y-81890000D01*
X92085000Y-81890000D01*
X92235000Y-81890000D01*
X92238000Y-81890000D01*
X92240000Y-81890000D01*
X92243000Y-81891000D01*
G37*
%TO.C,U9*%
X87980000Y-87830000D02*
X88540000Y-87830000D01*
X88540000Y-88650000D01*
X87980000Y-88650000D01*
X87980000Y-87830000D01*
G36*
X88540000Y-88650000D02*
G01*
X87980000Y-88650000D01*
X87980000Y-87830000D01*
X88540000Y-87830000D01*
X88540000Y-88650000D01*
G37*
%TD*%
D11*
%TO.C,L5*%
X91505000Y-79800000D03*
X92955000Y-79800000D03*
%TD*%
D12*
%TO.C,C10*%
X88970000Y-101700000D03*
X88970000Y-103600000D03*
%TD*%
D13*
%TO.C,R25*%
X94690000Y-81575000D03*
X94690000Y-83225000D03*
%TD*%
D14*
%TO.C,R17*%
X101595000Y-84152500D03*
X101595000Y-85172500D03*
%TD*%
D15*
%TO.C,C3*%
X105570000Y-83060000D03*
X105570000Y-82100000D03*
%TD*%
D16*
%TO.C,C24*%
X122930000Y-105230000D03*
X122930000Y-106190000D03*
%TD*%
D17*
%TO.C,J6*%
X83904683Y-93510317D03*
D18*
X83892500Y-94322500D03*
D19*
X83892500Y-95472500D03*
X83892500Y-96472500D03*
X83892500Y-96972500D03*
X83892500Y-97972500D03*
D20*
X83905594Y-99935595D03*
D18*
X83892500Y-99122500D03*
D19*
X83892500Y-98472500D03*
X83892500Y-97472500D03*
X83892500Y-95972500D03*
X83892500Y-94972500D03*
%TD*%
D21*
%TO.C,L1*%
X108770000Y-84890000D03*
X107195000Y-84890000D03*
%TD*%
D22*
%TO.C,U1*%
X112270000Y-87870000D03*
X111170000Y-87870000D03*
X110070000Y-87870000D03*
X108970000Y-87870000D03*
X107870000Y-87870000D03*
X106770000Y-87870000D03*
X105670000Y-87870000D03*
X104570000Y-87870000D03*
X103470000Y-87870000D03*
X102370000Y-87870000D03*
X101270000Y-87870000D03*
X100170000Y-87870000D03*
X99070000Y-87870000D03*
X97970000Y-87870000D03*
D23*
X95170000Y-88720000D03*
X95170000Y-89820000D03*
X95170000Y-90920000D03*
X95170000Y-92020000D03*
X95170000Y-93120000D03*
X95170000Y-94220000D03*
X95170000Y-95320000D03*
X95170000Y-96420000D03*
X95170000Y-97520000D03*
X95170000Y-98620000D03*
X95170000Y-99720000D03*
X95170000Y-100820000D03*
X95170000Y-101920000D03*
D22*
X97970000Y-102770000D03*
X99070000Y-102770000D03*
X100170000Y-102770000D03*
X101270000Y-102770000D03*
X102370000Y-102770000D03*
X103470000Y-102770000D03*
X104570000Y-102770000D03*
X105670000Y-102770000D03*
X106770000Y-102770000D03*
X107870000Y-102770000D03*
X108970000Y-102770000D03*
X110070000Y-102770000D03*
X111170000Y-102770000D03*
X112270000Y-102770000D03*
D23*
X115070000Y-101920000D03*
X115070000Y-100820000D03*
X115070000Y-99720000D03*
X115070000Y-98620000D03*
X115070000Y-97520000D03*
X115070000Y-96420000D03*
X115070000Y-95320000D03*
X115070000Y-94220000D03*
X115070000Y-93120000D03*
X115070000Y-92020000D03*
X115070000Y-90920000D03*
X115070000Y-89820000D03*
X115070000Y-88720000D03*
D24*
X112470000Y-90070000D03*
D25*
X112470000Y-92170000D03*
X112470000Y-94270000D03*
X112470000Y-96370000D03*
X112470000Y-98470000D03*
X112470000Y-100570000D03*
X110370000Y-90070000D03*
X110370000Y-92170000D03*
X110370000Y-94270000D03*
X110370000Y-96370000D03*
X110370000Y-98470000D03*
X110370000Y-100570000D03*
X108270000Y-90070000D03*
X108270000Y-92170000D03*
X108270000Y-94270000D03*
X108270000Y-96370000D03*
X108270000Y-98470000D03*
X108270000Y-100570000D03*
X106170000Y-90070000D03*
X106170000Y-92170000D03*
X106170000Y-94270000D03*
X106170000Y-96370000D03*
X106170000Y-98470000D03*
X106170000Y-100570000D03*
X104070000Y-90070000D03*
X104070000Y-92170000D03*
X104070000Y-94270000D03*
X104070000Y-96370000D03*
X104070000Y-98470000D03*
X104070000Y-100570000D03*
X101970000Y-90070000D03*
X101970000Y-92170000D03*
X101970000Y-94270000D03*
X101970000Y-96370000D03*
X101970000Y-98470000D03*
X101970000Y-100570000D03*
X99870000Y-90070000D03*
X99870000Y-92170000D03*
X99870000Y-94270000D03*
X99870000Y-96370000D03*
X99870000Y-98470000D03*
X99870000Y-100570000D03*
X97770000Y-90070000D03*
X97770000Y-92170000D03*
X97770000Y-94270000D03*
X97770000Y-96370000D03*
X97770000Y-98470000D03*
X97770000Y-100570000D03*
%TD*%
D14*
%TO.C,R14*%
X86240000Y-90520000D03*
X86240000Y-91540000D03*
%TD*%
D26*
%TO.C,C12*%
X126220000Y-107470000D03*
X125260000Y-107470000D03*
%TD*%
D27*
%TO.C,R31*%
X128200000Y-107470000D03*
X127180000Y-107470000D03*
%TD*%
D28*
%TO.C,U10*%
X91160000Y-83240000D03*
X91660000Y-83240000D03*
X92160000Y-83240000D03*
X92660000Y-83240000D03*
X93160000Y-83240000D03*
D29*
X93160000Y-81590000D03*
X92660000Y-81590000D03*
X91660000Y-81590000D03*
X91160000Y-81590000D03*
%TD*%
D30*
%TO.C,TH1*%
X90640000Y-100195000D03*
X90640000Y-98545000D03*
%TD*%
D31*
%TO.C,R28*%
X80030000Y-89920000D03*
X81050000Y-89920000D03*
%TD*%
D32*
%TO.C,C32*%
X86780000Y-85890000D03*
X88680000Y-85890000D03*
%TD*%
D33*
%TO.C,R26*%
X93835000Y-84610000D03*
X92185000Y-84610000D03*
%TD*%
D34*
%TO.C,L4*%
X82457500Y-82112500D03*
X84607500Y-82112500D03*
%TD*%
D35*
%TO.C,R3*%
X89250000Y-91050000D03*
X89250000Y-90030000D03*
%TD*%
D36*
%TO.C,C4*%
X103970000Y-106760000D03*
X103970000Y-104860000D03*
%TD*%
D37*
%TO.C,U6*%
X86103120Y-97478822D03*
X86103120Y-96978822D03*
X86103120Y-96478822D03*
X86103120Y-95978822D03*
X86103120Y-95478822D03*
X85333120Y-95478822D03*
X85333120Y-95978822D03*
X85333120Y-96478822D03*
X85333120Y-96978822D03*
X85333120Y-97478822D03*
%TD*%
D27*
%TO.C,R13*%
X85230000Y-88360000D03*
X84210000Y-88360000D03*
%TD*%
D38*
%TO.C,J1*%
X111170000Y-83510000D03*
D39*
X109695000Y-81985000D03*
X112645000Y-81985000D03*
%TD*%
D36*
%TO.C,C35*%
X102970000Y-82860000D03*
X102970000Y-80960000D03*
%TD*%
%TO.C,C5*%
X106000000Y-106770000D03*
X106000000Y-104870000D03*
%TD*%
D31*
%TO.C,R27*%
X84040000Y-89380000D03*
X85060000Y-89380000D03*
%TD*%
D27*
%TO.C,R2*%
X101440000Y-104585000D03*
X100420000Y-104585000D03*
%TD*%
D22*
%TO.C,J2*%
X122830000Y-91440000D03*
X123930000Y-91840000D03*
X125030000Y-91440000D03*
X126130000Y-91240000D03*
X127230000Y-91440000D03*
X128330000Y-91240000D03*
X129430000Y-91440000D03*
X130530000Y-91440000D03*
D40*
X129720000Y-101740000D03*
X124020000Y-101740000D03*
D41*
X131320000Y-88590000D03*
X118170000Y-87590000D03*
%TD*%
D42*
%TO.C,C25*%
X92230000Y-91870000D03*
X93190000Y-91870000D03*
%TD*%
D43*
%TO.C,FB1*%
X97747500Y-82790000D03*
X99872500Y-82790000D03*
%TD*%
D12*
%TO.C,C31*%
X88540000Y-79760000D03*
X88540000Y-81660000D03*
%TD*%
D14*
%TO.C,R9*%
X85280000Y-105530000D03*
X85280000Y-106550000D03*
%TD*%
D44*
%TO.C,U9*%
X87275000Y-87490000D03*
X87275000Y-87990000D03*
X87275000Y-88490000D03*
X87275000Y-88990000D03*
X89245000Y-88990000D03*
X89245000Y-88490000D03*
X89245000Y-87990000D03*
X89245000Y-87490000D03*
%TD*%
D36*
%TO.C,C6*%
X108030000Y-106760000D03*
X108030000Y-104860000D03*
%TD*%
D16*
%TO.C,C19*%
X81510000Y-84580000D03*
X81510000Y-85540000D03*
%TD*%
D45*
%TO.C,C18*%
X82880000Y-88375000D03*
X82880000Y-89925000D03*
%TD*%
D15*
%TO.C,C8*%
X102420000Y-105500000D03*
X102420000Y-104540000D03*
%TD*%
%TO.C,C1*%
X111170000Y-86050000D03*
X111170000Y-85090000D03*
%TD*%
D46*
%TO.C,U8*%
X82894999Y-86637493D03*
D47*
X83352001Y-87000501D03*
X83752000Y-87000501D03*
X84151999Y-87000501D03*
D48*
X84595001Y-86637493D03*
D49*
X84895000Y-86237500D03*
X84895000Y-85837501D03*
D50*
X84695000Y-85437501D03*
X84695000Y-85037502D03*
D51*
X84595001Y-84637502D03*
D52*
X84151999Y-84212501D03*
X83752000Y-84212501D03*
X83352001Y-84212501D03*
D53*
X82745000Y-84612501D03*
D50*
X82795000Y-85037502D03*
X82795000Y-85437501D03*
X82795000Y-85837501D03*
D54*
X82604000Y-86237500D03*
%TD*%
D45*
%TO.C,C34*%
X96220000Y-80305000D03*
X96220000Y-81855000D03*
%TD*%
D31*
%TO.C,R32*%
X87280000Y-94862500D03*
X88300000Y-94862500D03*
%TD*%
D55*
%TO.C,D2*%
X107170000Y-83060000D03*
X107170000Y-80860000D03*
%TD*%
D16*
%TO.C,C21*%
X86190000Y-88210000D03*
X86190000Y-89170000D03*
%TD*%
D14*
%TO.C,R10*%
X100532500Y-84152500D03*
X100532500Y-85172500D03*
%TD*%
D12*
%TO.C,C30*%
X86500000Y-79770000D03*
X86500000Y-81670000D03*
%TD*%
D32*
%TO.C,C20*%
X78330000Y-85270000D03*
X80230000Y-85270000D03*
%TD*%
D31*
%TO.C,R33*%
X87110000Y-95880000D03*
X88130000Y-95880000D03*
%TD*%
D56*
%TO.C,J4*%
X82970000Y-104450000D03*
X82970000Y-105650000D03*
D57*
X79265000Y-103025000D03*
X79265000Y-107075000D03*
%TD*%
D26*
%TO.C,C26*%
X91610000Y-92850000D03*
X90650000Y-92850000D03*
%TD*%
D15*
%TO.C,C2*%
X104570000Y-83060000D03*
X104570000Y-82100000D03*
%TD*%
D58*
%TO.C,C16*%
X79675000Y-87100000D03*
X81225000Y-87100000D03*
%TD*%
D31*
%TO.C,R29*%
X78980000Y-90920000D03*
X80000000Y-90920000D03*
%TD*%
D16*
%TO.C,C29*%
X121850000Y-104300000D03*
X121850000Y-105260000D03*
%TD*%
D59*
%TO.C,D1*%
X110170000Y-85790000D03*
X110170000Y-85090000D03*
%TD*%
D31*
%TO.C,R22*%
X88380000Y-98920000D03*
X89400000Y-98920000D03*
%TD*%
D43*
%TO.C,FB2*%
X97737500Y-80800000D03*
X99862500Y-80800000D03*
%TD*%
D14*
%TO.C,R30*%
X122980000Y-103250000D03*
X122980000Y-104270000D03*
%TD*%
%TO.C,R21*%
X86320000Y-93280000D03*
X86320000Y-94300000D03*
%TD*%
D15*
%TO.C,C9*%
X87340000Y-104880000D03*
X87340000Y-103920000D03*
%TD*%
D31*
%TO.C,R23*%
X88380000Y-99890000D03*
X89400000Y-99890000D03*
%TD*%
D36*
%TO.C,C7*%
X110100000Y-106780000D03*
X110100000Y-104880000D03*
%TD*%
D35*
%TO.C,R8*%
X86260000Y-103310000D03*
X86260000Y-102290000D03*
%TD*%
D15*
%TO.C,C11*%
X85270000Y-104610000D03*
X85270000Y-103650000D03*
%TD*%
D35*
%TO.C,R15*%
X89680000Y-93700000D03*
X89680000Y-92680000D03*
%TD*%
D58*
%TO.C,C33*%
X88075000Y-83150000D03*
X89625000Y-83150000D03*
%TD*%
D35*
%TO.C,R16*%
X85310000Y-94320000D03*
X85310000Y-93300000D03*
%TD*%
D27*
%TO.C,R1*%
X101440000Y-105647500D03*
X100420000Y-105647500D03*
%TD*%
M02*
