%TF.GenerationSoftware,KiCad,Pcbnew,10.0.4*%
%TF.CreationDate,2026-08-11T23:07:26+10:00*%
%TF.ProjectId,v2_mini,76325f6d-696e-4692-9e6b-696361645f70,rev?*%
%TF.SameCoordinates,Original*%
%TF.FileFunction,Profile,NP*%
%FSLAX46Y46*%
G04 Gerber Fmt 4.6, Leading zero omitted, Abs format (unit mm)*
G04 Created by KiCad (PCBNEW 10.0.4) date 2026-08-11 23:07:26*
%MOMM*%
%LPD*%
G01*
G04 APERTURE LIST*
%TA.AperFunction,Profile*%
%ADD10C,0.050000*%
%TD*%
G04 APERTURE END LIST*
D10*
X86680000Y-113770000D02*
X86680000Y-107620000D01*
X108680000Y-107620000D01*
X108680000Y-113770000D01*
X133180000Y-113770000D01*
X133258544Y-113769486D01*
X133415418Y-113761264D01*
X133571646Y-113744844D01*
X133726800Y-113720270D01*
X133880456Y-113687610D01*
X134032192Y-113646952D01*
X134181592Y-113598409D01*
X134328247Y-113542113D01*
X134471755Y-113478220D01*
X134611722Y-113406903D01*
X134747764Y-113328359D01*
X134879510Y-113242802D01*
X135006597Y-113150468D01*
X135128678Y-113051609D01*
X135245418Y-112946496D01*
X135356496Y-112835418D01*
X135461609Y-112718678D01*
X135560468Y-112596597D01*
X135652802Y-112469510D01*
X135738359Y-112337764D01*
X135816903Y-112201722D01*
X135888220Y-112061755D01*
X135952113Y-111918247D01*
X136008409Y-111771592D01*
X136056952Y-111622192D01*
X136097610Y-111470456D01*
X136130270Y-111316800D01*
X136154844Y-111161646D01*
X136171264Y-111005418D01*
X136179486Y-110848544D01*
X136180000Y-110770000D01*
X136180000Y-81630000D01*
X136179486Y-81551456D01*
X136171264Y-81394582D01*
X136154844Y-81238354D01*
X136130270Y-81083200D01*
X136097610Y-80929544D01*
X136056952Y-80777808D01*
X136008409Y-80628408D01*
X135952113Y-80481753D01*
X135888220Y-80338245D01*
X135816903Y-80198278D01*
X135738359Y-80062236D01*
X135652802Y-79930490D01*
X135560468Y-79803403D01*
X135461609Y-79681322D01*
X135356496Y-79564582D01*
X135245418Y-79453504D01*
X135128678Y-79348391D01*
X135006597Y-79249532D01*
X134879510Y-79157198D01*
X134747764Y-79071641D01*
X134611722Y-78993097D01*
X134471755Y-78921780D01*
X134328247Y-78857887D01*
X134181592Y-78801591D01*
X134032192Y-78753048D01*
X133880456Y-78712390D01*
X133726800Y-78679730D01*
X133571646Y-78655156D01*
X133415418Y-78638736D01*
X133258544Y-78630514D01*
X133180000Y-78630000D01*
X78340000Y-78630000D01*
X78261456Y-78630514D01*
X78104582Y-78638736D01*
X77948354Y-78655156D01*
X77793200Y-78679730D01*
X77639544Y-78712390D01*
X77487808Y-78753048D01*
X77338408Y-78801591D01*
X77191753Y-78857887D01*
X77048245Y-78921780D01*
X76908278Y-78993097D01*
X76772236Y-79071641D01*
X76640490Y-79157198D01*
X76513403Y-79249532D01*
X76391322Y-79348391D01*
X76274582Y-79453504D01*
X76163504Y-79564582D01*
X76058391Y-79681322D01*
X75959532Y-79803403D01*
X75867198Y-79930490D01*
X75781641Y-80062236D01*
X75703097Y-80198278D01*
X75631780Y-80338245D01*
X75567887Y-80481753D01*
X75511591Y-80628408D01*
X75463048Y-80777808D01*
X75422390Y-80929544D01*
X75389730Y-81083200D01*
X75365156Y-81238354D01*
X75348736Y-81394582D01*
X75340514Y-81551456D01*
X75340000Y-81630000D01*
X75340000Y-110770000D01*
X75340514Y-110848544D01*
X75348736Y-111005418D01*
X75365156Y-111161646D01*
X75389730Y-111316800D01*
X75422390Y-111470456D01*
X75463048Y-111622192D01*
X75511591Y-111771592D01*
X75567887Y-111918247D01*
X75631780Y-112061755D01*
X75703097Y-112201722D01*
X75781641Y-112337764D01*
X75867198Y-112469510D01*
X75959532Y-112596597D01*
X76058391Y-112718678D01*
X76163504Y-112835418D01*
X76274582Y-112946496D01*
X76391322Y-113051609D01*
X76513403Y-113150468D01*
X76640490Y-113242802D01*
X76772236Y-113328359D01*
X76908278Y-113406903D01*
X77048245Y-113478220D01*
X77191753Y-113542113D01*
X77338408Y-113598409D01*
X77487808Y-113646952D01*
X77639544Y-113687610D01*
X77793200Y-113720270D01*
X77948354Y-113744844D01*
X78104582Y-113761264D01*
X78261456Y-113769486D01*
X78340000Y-113770000D01*
X86680000Y-113770000D01*
M02*
